<svg width="442" height="579" xmlns="http://www.w3.org/2000/svg" xmlns:xlink="http://www.w3.org/1999/xlink" xml:space="preserve" overflow="hidden"><g transform="translate(-189 -637)"><path d="M205.863 679.028C209.577 679.028 213.138 677.605 215.763 675.074 218.389 672.542 219.864 669.108 219.864 665.528 219.864 661.947 218.389 658.513 215.763 655.981 213.138 653.45 209.577 652.027 205.863 652.027 202.15 652.027 198.589 653.45 195.963 655.981 193.339 658.513 191.863 661.947 191.863 665.528 191.863 669.108 193.339 672.542 195.963 675.074 198.589 677.605 202.15 679.028 205.863 679.028Z" stroke="#1F77B4" stroke-width="1.62077" stroke-linejoin="round" stroke-miterlimit="10" fill="#1F77B4" fill-rule="evenodd"/><path d="M-0.290049 24.3754C-0.290049 29.9776 0.535557 34.7993 2.18677 38.8406 3.83798 42.8899 6.02831 45.9034 8.75776 47.8817 10.884 49.4503 13.0778 50.2347 15.3402 50.2347 19.0121 50.2347 22.3106 48.3144 25.236 44.4738 28.8855 39.7218 30.7099 33.2735 30.7099 25.1289 30.7099 19.4336 29.9071 14.5926 28.3011 10.6053 26.7027 6.62565 24.6591 3.73589 22.1713 1.93526 19.6905 0.135001 17.2928-0.765494 14.9781-0.765494 10.409-0.765494 6.6052 2.00094 3.56646 7.53381 0.995216 12.1932-0.290049 17.807-0.290049 24.3754ZM6.64261 23.4713C6.64261 16.7099 7.45325 11.1927 9.07418 6.91937 10.4239 3.31848 12.4297 1.51822 15.0911 1.51822 16.3578 1.51822 17.6734 2.10164 19.0385 3.26849 20.4107 4.443 21.4511 6.40563 22.1599 9.15638 23.2381 13.3137 23.7772 19.1709 23.7772 26.7284 23.7772 32.3306 23.2117 37.0017 22.0808 40.7416 21.2363 43.5233 20.1431 45.494 18.8008 46.6532 17.8359 47.449 16.6671 47.847 15.2949 47.847 13.6964 47.847 12.2711 47.1089 11.0197 45.633 9.32325 43.6317 8.16947 40.4789 7.55873 36.1749 6.94798 31.8786 6.64261 27.6439 6.64261 23.4713Z" fill-rule="evenodd" transform="matrix(1 0 0 -1 279 689)"/><path d="M532.777 679.518C536.49 679.518 540.051 678.096 542.677 675.564 545.302 673.032 546.778 669.598 546.778 666.018 546.778 662.438 545.302 659.003 542.677 656.472 540.051 653.94 536.49 652.518 532.777 652.518 529.064 652.518 525.503 653.94 522.878 656.472 520.252 659.003 518.777 662.438 518.777 666.018 518.777 669.598 520.252 673.032 522.878 675.564 525.503 678.096 529.064 679.518 532.777 679.518Z" stroke="#FF7F0E" stroke-width="4.58189" stroke-linejoin="round" stroke-miterlimit="10" fill="#FF7F0E" fill-rule="evenodd"/><path d="M-0.285856 43.4165 11.4511 49.2316 12.6236 49.2316 12.6236 7.86724C12.6236 5.12328 12.7373 3.41249 12.965 2.73414 13.1928 2.0638 13.6594 1.54739 14.3652 1.18493 15.0786 0.822825 16.5283 0.618666 18.714 0.572448L18.714-0.768601 0.567766-0.768601 0.567766 0.572448C2.84457 0.618666 4.3133 0.815183 4.9736 1.162 5.64144 1.51646 6.10411 1.98664 6.36235 2.57219 6.62776 3.16575 6.76083 4.93077 6.76083 7.86724L6.76083 34.3068C6.76083 37.8751 6.64319 40.1641 6.4079 41.1737 6.24076 41.9444 5.93733 42.5111 5.49725 42.8732 5.05681 43.2353 4.52958 43.4165 3.91482 43.4165 3.0343 43.4165 1.81233 43.0428 0.248913 42.2953L-0.285856 43.4165Z" fill-rule="evenodd" transform="matrix(1 0 0 -1 608 687)"/><path d="M206.777 815.527C210.49 815.527 214.051 814.051 216.677 811.426 219.302 808.801 220.777 805.24 220.777 801.527 220.777 797.814 219.302 794.252 216.677 791.627 214.051 789.002 210.49 787.526 206.777 787.526 203.064 787.526 199.503 789.002 196.878 791.627 194.253 794.252 192.777 797.814 192.777 801.527 192.777 805.24 194.253 808.801 196.878 811.426 199.503 814.051 203.064 815.527 206.777 815.527Z" stroke="#2CA02C" stroke-width="4.58189" stroke-linejoin="round" stroke-miterlimit="10" fill="#2CA02C" fill-rule="evenodd"/><path d="M31.7299 8.6729 28.3422-0.760589-0.270077-0.760589-0.270077 0.58045C8.14594 8.33373 14.0703 14.6652 17.5038 19.5748 20.9373 24.4917 22.654 28.985 22.654 33.0547 22.654 36.1607 21.7118 38.7115 19.8274 40.7079 17.9426 42.7116 15.6879 43.7135 13.0632 43.7135 10.6826 43.7135 8.54258 43.0082 6.64267 41.5981 4.75032 40.1875 3.35018 38.1219 2.44223 35.4013L1.11492 35.4013C1.71746 39.856 3.25102 43.2743 5.71561 45.6557 8.18019 48.0449 11.2628 49.2396 14.9631 49.2396 18.8924 49.2396 22.1734 47.9641 24.806 45.413 27.4458 42.8619 28.7659 39.8523 28.7659 36.3842 28.7659 33.9023 28.1936 31.4207 27.0492 28.9388 25.2866 25.039 22.4254 20.9082 18.4655 16.5459 12.5292 9.99465 8.82095 6.04505 7.34076 4.696L19.999 4.696C22.5779 4.696 24.3863 4.79244 25.424 4.98532 26.4614 5.17783 27.396 5.56686 28.2279 6.15277 29.067 6.74632 29.7957 7.58624 30.4138 8.6729L31.7299 8.6729Z" fill-rule="evenodd" transform="matrix(1 0 0 -1 277 821)"/><path d="M532.777 814.535C536.49 814.535 540.051 813.06 542.677 810.434 545.302 807.809 546.778 804.248 546.778 800.535 546.778 796.822 545.302 793.261 542.677 790.635 540.051 788.01 536.49 786.535 532.777 786.535 529.064 786.535 525.503 788.01 522.878 790.635 520.252 793.261 518.777 796.822 518.777 800.535 518.777 804.248 520.252 807.809 522.878 810.434 525.503 813.06 529.064 814.535 532.777 814.535Z" stroke="#D62728" stroke-width="4.58189" stroke-linejoin="round" stroke-miterlimit="10" fill="#D62728" fill-rule="evenodd"/><path d="M0.519058 39.8973C1.92103 43.2045 3.69087 45.7582 5.8286 47.5588 7.97401 49.3591 10.6465 50.2595 13.8454 50.2595 17.7878 50.2595 20.8125 48.9807 22.9194 46.423 24.515 44.5143 25.3127 42.474 25.3127 40.3027 25.3127 36.7251 23.0626 33.0275 18.5624 29.2103 21.591 28.0281 23.8799 26.3395 25.4291 24.1452 26.9778 21.9505 27.7527 19.3658 27.7527 16.3906 27.7527 12.1406 26.3969 8.45875 23.6859 5.34459 20.1539 1.28799 15.0344-0.740683 8.32652-0.740683 5.01158-0.740683 2.75342-0.330936 1.55315 0.488194 0.352505 1.31499-0.247815 2.19578-0.247815 3.13094-0.247815 3.83404 0.0347747 4.45213 0.600321 4.9852 1.17355 5.51864 1.8588 5.78499 2.65678 5.78499 3.26845 5.78499 3.88817 5.68867 4.51558 5.49529 4.92629 5.37159 5.85569 4.92755 7.30414 4.16242 8.76029 3.40495 9.76729 2.95325 10.3248 2.8062 11.2157 2.5435 12.1722 2.41215 13.1946 2.41215 15.6578 2.41215 17.8035 3.36664 19.6312 5.27527 21.4593 7.1839 22.3733 9.44024 22.3733 12.0443 22.3733 13.9529 21.9512 15.8112 21.1068 17.6195 20.4794 18.9717 19.7901 19.9995 19.0386 20.7026 17.9931 21.6684 16.5641 22.5416 14.7514 23.322 12.9391 24.1105 11.088 24.5046 9.19808 24.5046L8.03624 24.5046 8.03624 25.5941C9.94921 25.8334 11.8662 26.5212 13.7872 27.657 15.716 28.7932 17.1139 30.1571 17.9814 31.7487 18.8567 33.3406 19.2945 35.0909 19.2945 36.9995 19.2945 39.4875 18.5122 41.4969 16.9473 43.0268 15.3905 44.5643 13.4501 45.3331 11.1264 45.3331 7.37003 45.3331 4.23299 43.3281 1.71567 39.3175L0.519058 39.8973Z" fill-rule="evenodd" transform="matrix(1 0 0 -1 603 823)"/><path d="M205.778 945.543C209.49 945.543 213.051 944.069 215.677 941.443 218.302 938.818 219.778 935.256 219.778 931.543 219.778 927.831 218.302 924.269 215.677 921.644 213.051 919.018 209.49 917.543 205.778 917.543 202.064 917.543 198.503 919.018 195.878 921.644 193.253 924.269 191.777 927.831 191.777 931.543 191.777 935.256 193.253 938.818 195.878 941.443 198.503 944.069 202.064 945.543 205.778 945.543Z" stroke="#9467BD" stroke-width="4.58189" stroke-linejoin="round" stroke-miterlimit="10" fill="#9467BD" fill-rule="evenodd"/><path d="M32.7283 17.3254 32.7283 12.1924 26.2041 12.1924 26.2041-0.744213 20.299-0.744213 20.299 12.1924-0.271664 12.1924-0.271664 16.8167 22.2711 49.256 26.2041 49.256 26.2041 17.3254 32.7283 17.3254ZM20.299 17.3254 20.299 41.6374 3.23685 17.3254 20.299 17.3254Z" fill-rule="evenodd" transform="matrix(1 0 0 -1 272 956)"/><path d="M532.777 945.552C536.49 945.552 540.051 944.077 542.677 941.451 545.302 938.826 546.778 935.265 546.778 931.552 546.778 927.839 545.302 924.277 542.677 921.652 540.051 919.027 536.49 917.551 532.777 917.551 529.064 917.551 525.503 919.027 522.878 921.652 520.252 924.277 518.777 927.839 518.777 931.552 518.777 935.265 520.252 938.826 522.878 941.451 525.503 944.077 529.064 945.552 532.777 945.552Z" stroke="#C49C94" stroke-width="4.58189" stroke-linejoin="round" stroke-miterlimit="10" fill="#C49C94" fill-rule="evenodd"/><path d="M27.7311 49.2919 24.9672 43.1242 10.5251 43.1242 7.37646 36.5397C13.6288 35.5968 18.5864 33.2163 22.2486 29.3984 25.3826 26.1137 26.9496 22.2494 26.9496 17.8057 26.9496 15.2242 26.436 12.832 25.409 10.6297 24.3894 8.43464 23.0983 6.56437 21.5352 5.01852 19.9796 3.47304 18.2466 2.22863 16.336 1.28565 13.6252-0.0434267 10.8388-0.70833 7.97671-0.70833 5.09964-0.70833 3.00411-0.209835 1.69013 0.787155 0.383633 1.79181-0.269435 2.90083-0.269435 4.11422-0.269435 4.78679 0.00249807 5.38199 0.546008 5.89983 1.08987 6.42533 1.77328 6.68808 2.59621 6.68808 3.21538 6.68808 3.75532 6.59137 4.21603 6.39832 4.67675 6.20491 5.45829 5.70642 6.56066 4.90284 8.33536 3.65076 10.1286 3.02454 11.9411 3.02454 14.7047 3.02454 17.1289 4.09123 19.213 6.22425 21.3046 8.36493 22.3506 10.9694 22.3506 14.0378 22.3506 17.0058 21.4181 19.7763 19.5528 22.3498 17.6878 24.9236 15.1166 26.9096 11.8391 28.3087 9.26429 29.3984 5.7602 30.0283 1.32755 30.1984L10.5251 49.2919 27.7311 49.2919Z" fill-rule="evenodd" transform="matrix(1 0 0 -1 601 957)"/><path d="M205.778 1075.56C209.49 1075.56 213.051 1074.09 215.677 1071.46 218.302 1068.83 219.778 1065.27 219.778 1061.56 219.778 1057.85 218.302 1054.29 215.677 1051.66 213.051 1049.04 209.49 1047.56 205.778 1047.56 202.064 1047.56 198.503 1049.04 195.878 1051.66 193.253 1054.29 191.777 1057.85 191.777 1061.56 191.777 1065.27 193.253 1068.83 195.878 1071.46 198.503 1074.09 202.064 1075.56 205.778 1075.56Z" stroke="#F7B6D2" stroke-width="4.58189" stroke-linejoin="round" stroke-miterlimit="10" fill="#F7B6D2" fill-rule="evenodd"/><path d="M29.726 50.284 29.726 48.9395C26.5389 48.6304 23.9382 47.997 21.9239 47.0389 19.9096 46.0884 17.9187 44.6355 15.9507 42.6805 13.9908 40.7255 12.3661 38.5465 11.0776 36.1432 9.78868 33.7401 8.70806 30.8847 7.83605 27.5775 11.3091 29.9652 14.7932 31.159 18.2892 31.159 21.646 31.159 24.5516 29.8068 27.0057 27.1024 29.4674 24.398 30.6983 20.9205 30.6983 16.6705 30.6983 12.5675 29.4561 8.82362 26.971 5.4391 23.9845 1.33578 20.0292-0.715872 15.1057-0.715872 11.7566-0.715872 8.91266 0.396977 6.57454 2.62231 1.99056 6.94199-0.301611 12.5442-0.301611 19.4293-0.301611 23.8183 0.578058 27.9909 2.33776 31.9475 4.0971 35.9115 6.60919 39.4273 9.87366 42.4951 13.1458 45.563 16.275 47.6259 19.2615 48.6848 22.2558 49.7509 25.0458 50.284 27.6308 50.284L29.726 50.284ZM7.22262 24.9348C6.79044 21.6739 6.57454 19.0388 6.57454 17.0299 6.57454 14.7119 7.0027 12.1928 7.8594 9.47272 8.71609 6.76028 9.98563 4.60829 11.6676 3.01637 12.9025 1.88053 14.3997 1.3128 16.1594 1.3128 18.2582 1.3128 20.1335 2.30159 21.7849 4.27991 23.4367 6.26589 24.2624 9.09398 24.2624 12.7646 24.2624 16.8909 23.4403 20.4607 21.7966 23.4745 20.1605 26.4957 17.8337 28.0066 14.8165 28.0066 13.9058 28.0066 12.9259 27.8132 11.8763 27.4268 10.8266 27.0404 9.27555 26.21 7.22262 24.9348Z" fill-rule="evenodd" transform="matrix(1 0 0 -1 275 1088)"/><path d="M532.777 1075.57C536.49 1075.57 540.051 1074.09 542.677 1071.47 545.302 1068.84 546.778 1065.28 546.778 1061.57 546.778 1057.86 545.302 1054.29 542.677 1051.67 540.051 1049.04 536.49 1047.57 532.777 1047.57 529.064 1047.57 525.503 1049.04 522.878 1051.67 520.252 1054.29 518.777 1057.86 518.777 1061.57 518.777 1065.28 520.252 1068.84 522.878 1071.47 525.503 1074.09 529.064 1075.57 532.777 1075.57Z" stroke="#C7C7C7" stroke-width="4.58189" stroke-linejoin="round" stroke-miterlimit="10" fill="#C7C7C7" fill-rule="evenodd"/><path d="M4.41184 49.3126 30.7118 49.3126 30.7118 47.9373 14.3552-0.687282 10.3036-0.687282 24.9586 43.4181 11.4612 43.4181C8.73724 43.4181 6.79628 43.0946 5.63871 42.4474 3.61678 41.3377 1.98837 39.6269 0.753845 37.3155L-0.288117 37.7084 4.41184 49.3126Z" fill-rule="evenodd" transform="matrix(1 0 0 -1 598 1087)"/><path d="M205.778 1203.58C209.49 1203.58 213.051 1202.1 215.677 1199.48 218.302 1196.85 219.778 1193.29 219.778 1189.58 219.778 1185.86 218.302 1182.3 215.677 1179.68 213.051 1177.05 209.49 1175.58 205.778 1175.58 202.064 1175.58 198.503 1177.05 195.878 1179.68 193.253 1182.3 191.777 1185.86 191.777 1189.58 191.777 1193.29 193.253 1196.85 195.878 1199.48 198.503 1202.1 202.064 1203.58 205.778 1203.58Z" stroke="#DBDB8D" stroke-width="4.58189" stroke-linejoin="round" stroke-miterlimit="10" fill="#DBDB8D" fill-rule="evenodd"/><path d="M8.99715 24.9054C5.29125 28.0965 2.90016 30.6583 1.82457 32.5899 0.756291 34.5219 0.222152 36.5272 0.222152 38.6056 0.222152 41.7894 1.39733 44.5325 3.74768 46.8352 6.09803 49.1456 9.21826 50.3011 13.1087 50.3011 16.8884 50.3011 19.9275 49.227 22.2263 47.0786 24.5328 44.9306 25.6857 42.4809 25.6857 39.7301 25.6857 37.8908 25.0631 36.0172 23.8179 34.1085 22.5728 32.1999 19.9829 29.9552 16.0486 27.3741 20.1009 24.0899 22.7827 21.5051 24.0941 19.6199 25.8403 17.1548 26.7136 14.5584 26.7136 11.8306 26.7136 8.37635 25.4573 5.42454 22.9447 2.97516 20.4397 0.525414 17.1499-0.699458 13.0753-0.699458 8.63258-0.699458 5.1659 0.761121 2.67557 3.68228 0.700927 6.02366-0.286221 8.58505-0.286221 11.3668-0.286221 13.5382 0.409832 15.6902 1.80263 17.8232 3.19509 19.9636 5.59314 22.3243 8.99715 24.9054ZM14.4239 28.7883C17.1868 31.3924 18.9365 33.4477 19.6733 34.9547 20.4101 36.4692 20.7785 38.1808 20.7785 40.0895 20.7785 42.6239 20.0971 44.6099 18.7339 46.0471 17.3783 47.4843 15.5252 48.2031 13.1749 48.2031 10.8318 48.2031 8.92368 47.4883 7.45009 46.0588 5.97651 44.6369 5.23972 42.9716 5.23972 41.063 5.23972 39.8111 5.54161 38.5556 6.14574 37.296 6.75752 36.0442 7.62698 34.8503 8.7541 33.7145L14.4239 28.7883ZM10.6219 23.5375C8.71371 21.8452 7.29898 20.0022 6.37799 18.0086 5.457 16.0149 4.99633 13.8589 4.99633 11.5409 4.99633 8.4267 5.80694 5.93463 7.42781 4.06466 9.04903 2.1947 11.1156 1.25954 13.6279 1.25954 16.1112 1.25954 18.1005 1.99366 19.596 3.4619 21.0992 4.9378 21.8506 6.72676 21.8506 8.82842 21.8506 10.567 21.4122 12.1243 20.5355 13.4995 18.9 16.0576 15.5952 19.4035 10.6219 23.5375Z" fill-rule="evenodd" transform="matrix(1 0 0 -1 276 1215)"/><path d="M532.777 1200.58C536.49 1200.58 540.051 1199.11 542.677 1196.48 545.302 1193.86 546.778 1190.3 546.778 1186.58 546.778 1182.87 545.302 1179.31 542.677 1176.69 540.051 1174.06 536.49 1172.58 532.777 1172.58 529.064 1172.58 525.503 1174.06 522.878 1176.69 520.252 1179.31 518.777 1182.87 518.777 1186.58 518.777 1190.3 520.252 1193.86 522.878 1196.48 525.503 1199.11 529.064 1200.58 532.777 1200.58Z" stroke="#9EDAE5" stroke-width="4.58189" stroke-linejoin="round" stroke-miterlimit="10" fill="#9EDAE5" fill-rule="evenodd"/><path d="M0.693038-0.686484 0.693038 0.654106C3.83328 0.700308 6.75712 1.42826 9.46421 2.83834 12.1709 4.24805 14.7855 6.70986 17.3069 10.223 19.836 13.7442 21.5957 17.6077 22.5859 21.8147 18.7881 19.3874 15.358 18.1742 12.2948 18.1742 8.8377 18.1742 5.87511 19.5031 3.4078 22.1614 0.9405 24.8193-0.293152 28.3517-0.293152 32.7588-0.293152 37.0501 0.9405 40.8678 3.4078 44.2118 6.37807 48.2798 10.2567 50.3137 15.0447 50.3137 19.0819 50.3137 22.5395 48.6534 25.4165 45.3326 28.9435 41.2108 30.7071 36.1297 30.7071 30.0892 30.7071 24.6497 29.3649 19.5762 26.6812 14.8687 23.9972 10.1616 20.2655 6.25511 15.4855 3.15011 11.5872 0.59226 7.34489-0.686484 2.75826-0.686484L0.693038-0.686484ZM23.166 24.4959C23.5991 27.6238 23.8155 30.1278 23.8155 32.0075 23.8155 34.342 23.4171 36.8617 22.6206 39.5658 21.8238 42.2779 20.6946 44.354 19.2329 45.795 17.7712 47.2433 16.108 47.9676 14.2442 47.9676 12.0938 47.9676 10.2066 47.0047 8.5822 45.0784 6.96584 43.1524 6.15766 40.2861 6.15766 36.48 6.15766 31.4029 7.23633 27.4313 9.3944 24.565 10.9647 22.4924 12.8983 21.4563 15.1953 21.4563 16.3014 21.4563 17.6162 21.7219 19.1401 22.2538 20.6636 22.7853 22.0058 23.5325 23.166 24.4959Z" fill-rule="evenodd" transform="matrix(1 0 0 -1 598 1213)"/></g></svg>