<svg width="425" height="620" xmlns="http://www.w3.org/2000/svg" xmlns:xlink="http://www.w3.org/1999/xlink" xml:space="preserve" overflow="hidden"><g transform="translate(-3228 -231)"><path d="M3243.86 269.028C3247.58 269.028 3251.14 267.605 3253.76 265.074 3256.39 262.542 3257.86 259.108 3257.86 255.528 3257.86 251.947 3256.39 248.513 3253.76 245.981 3251.14 243.45 3247.58 242.027 3243.86 242.027 3240.15 242.027 3236.59 243.45 3233.96 245.981 3231.34 248.513 3229.86 251.947 3229.86 255.528 3229.86 259.108 3231.34 262.542 3233.96 265.074 3236.59 267.605 3240.15 269.028 3243.86 269.028Z" stroke="#1F77B4" stroke-width="1.62077" stroke-linejoin="round" stroke-miterlimit="10" fill="#1F77B4" fill-rule="evenodd"/><path d="M40.458 48.8607 41.5761 32.2862 40.458 32.2862C38.9665 37.251 36.841 40.8227 34.0807 43.0021 31.3213 45.1816 28.008 46.2708 24.1418 46.2708 20.8983 46.2708 17.9656 45.4498 15.3437 43.8078 12.7228 42.1658 10.663 39.5451 9.16333 35.9458 7.66466 32.3547 6.91481 27.8853 6.91481 22.5376 6.91481 18.1244 7.6226 14.2999 9.03716 11.062 10.4589 7.82304 12.5915 5.34059 15.436 3.61465 18.2805 1.88768 21.5281 1.02471 25.1799 1.02471 28.3547 1.02471 31.1521 1.70035 33.5739 3.0506 36.003 4.40903 38.67 7.10236 41.5761 11.1306L42.6942 10.4171C40.2426 6.07355 37.3827 2.89295 34.1155 0.875255 30.8484-1.13527 26.971-2.14054 22.4811-2.14054 14.3866-2.14054 8.11806 0.855805 3.67539 6.84848 0.353896 11.3148-1.30582 16.5674-1.30582 22.6061-1.30582 27.4789-0.214389 31.9524 1.96848 36.0267 4.15956 40.101 7.16921 43.2591 10.9964 45.4999 14.8328 47.7408 19.0221 48.8607 23.5653 48.8607 27.094 48.8607 30.5756 47.9977 34.0119 46.2708 35.0193 45.7487 35.7373 45.4887 36.1681 45.4887 36.8216 45.4887 37.3868 45.7149 37.8627 46.1674 38.4854 46.8123 38.9316 47.7101 39.2004 48.8607L40.458 48.8607Z" fill-rule="evenodd" transform="matrix(1 0 0 -1 3303 280)"/><path d="M3509.86 270.051C3513.58 270.051 3517.14 268.628 3519.76 266.097 3522.39 263.565 3523.86 260.131 3523.86 256.55 3523.86 252.97 3522.39 249.536 3519.76 247.004 3517.14 244.472 3513.58 243.05 3509.86 243.05 3506.15 243.05 3502.59 244.472 3499.96 247.004 3497.34 249.536 3495.86 252.97 3495.86 256.55 3495.86 260.131 3497.34 263.565 3499.96 266.097 3502.59 268.628 3506.15 270.051 3509.86 270.051Z" stroke="#AEC7E8" stroke-width="1.62077" stroke-linejoin="round" stroke-miterlimit="10" fill="#AEC7E8" fill-rule="evenodd"/><path d="M40.458 48.8839 41.5761 32.3095 40.458 32.3095C38.9665 37.2733 36.841 40.846 34.0807 43.0254 31.3213 45.2038 28.008 46.294 24.1418 46.294 20.8983 46.294 17.9656 45.473 15.3437 43.831 12.7228 42.188 10.663 39.5684 9.16333 35.9691 7.66466 32.3781 6.91481 27.9087 6.91481 22.5599 6.91481 18.1478 7.6226 14.3223 9.03716 11.0844 10.4589 7.84653 12.5915 5.3641 15.436 3.63714 18.2805 1.91122 21.5281 1.04825 25.1799 1.04825 28.3547 1.04825 31.1521 1.72286 33.5739 3.07412 36.003 4.43152 38.67 7.12483 41.5761 11.154L42.6942 10.4405C40.2426 6.09705 37.3827 2.91647 34.1155 0.89777 30.8484-1.11172 26.971-2.11698 22.4811-2.11698 14.3866-2.11698 8.11806 0.879343 3.67539 6.87198 0.353896 11.3383-1.30582 16.5898-1.30582 22.6295-1.30582 27.5012-0.214389 31.9757 1.96848 36.05 4.15956 40.1243 7.16921 43.2823 10.9964 45.5221 14.8328 47.763 19.0221 48.8839 23.5653 48.8839 27.094 48.8839 30.5756 48.0199 34.0119 46.294 35.0193 45.7719 35.7373 45.5109 36.1681 45.5109 36.8216 45.5109 37.3868 45.7371 37.8627 46.1906 38.4854 46.8345 38.9316 47.7323 39.2004 48.8839L40.458 48.8839Z" fill-rule="evenodd" transform="matrix(1 0 0 -1 3569 281)"/><path d="M2.04436-2.12641 5.37894 14.2745-0.738865 14.2745-0.738865 17.2379 5.95169 17.2379 8.42612 29.6025-0.738865 29.6025-0.738865 32.4859 9.1018 32.4859 12.3548 48.8745 15.3337 48.8745 12.0685 32.4859 24.1431 32.4859 27.6142 48.8745 30.5809 48.8745 27.179 32.4859 33.2612 32.4859 33.2612 29.6025 26.6399 29.6025 24.1431 17.2379 33.2612 17.2379 33.2612 14.2745 23.5245 14.2745 20.2021-2.12641 17.3037-2.12641 20.5568 14.2745 8.42612 14.2745 5.02326-2.12641 2.04436-2.12641ZM8.96422 17.2379 21.0959 17.2379 23.6732 29.6025 11.4611 29.6025 8.96422 17.2379Z" fill-rule="evenodd" transform="matrix(1 0 0 -1 3617 281)"/><path d="M3243.86 386.076C3247.58 386.076 3251.14 384.601 3253.76 381.976 3256.39 379.35 3257.86 375.788 3257.86 372.076 3257.86 368.363 3256.39 364.801 3253.76 362.175 3251.14 359.55 3247.58 358.075 3243.86 358.075 3240.15 358.075 3236.59 359.55 3233.96 362.175 3231.34 364.801 3229.86 368.363 3229.86 372.076 3229.86 375.788 3231.34 379.35 3233.96 381.976 3236.59 384.601 3240.15 386.076 3243.86 386.076Z" stroke="#FFBB78" stroke-width="1.62077" stroke-linejoin="round" stroke-miterlimit="10" fill="#FFBB78" fill-rule="evenodd"/><path d="M-1.40711-2.06103-1.40711-0.747452 0.429895-0.747452C2.48849-0.747452 3.94564-0.0977127 4.80338 1.20076 5.3313 1.97843 5.59476 3.72316 5.59476 6.43393L5.59476 37.4451C5.59476 40.4349 5.2588 42.3076 4.58486 43.0631 3.65155 44.1047 2.26588 44.6255 0.429895 44.6255L-1.40711 44.6255-1.40711 45.9401 18.3936 45.9401C25.663 45.9401 31.1913 45.1242 34.9797 43.4933 38.7742 41.8624 41.8243 39.1476 44.127 35.3499 46.4378 31.5511 47.5937 27.1641 47.5937 22.1889 47.5937 15.5061 45.5392 9.9254 41.4302 5.44774 36.8157 0.442226 29.7832-2.06103 20.3327-2.06103L-1.40711-2.06103ZM12.4823 1.40424C15.5201 0.747452 18.0637 0.419057 20.1152 0.419057 25.663 0.419057 30.2652 2.34108 33.9229 6.18411 37.5887 10.0352 39.4216 15.2492 39.4216 21.8262 39.4216 28.4636 37.5887 33.6918 33.9229 37.5126 30.2652 41.3335 25.567 43.2444 19.8282 43.2444 17.6778 43.2444 15.2291 42.9009 12.4823 42.2129L12.4823 1.40424Z" fill-rule="evenodd" transform="matrix(1 0 0 -1 3302 395)"/><path d="M3507.86 384.096C3511.58 384.096 3515.14 382.673 3517.76 380.142 3520.39 377.61 3521.86 374.176 3521.86 370.596 3521.86 367.015 3520.39 363.581 3517.76 361.05 3515.14 358.518 3511.58 357.095 3507.86 357.095 3504.15 357.095 3500.59 358.518 3497.96 361.05 3495.34 363.581 3493.86 367.015 3493.86 370.596 3493.86 374.176 3495.34 377.61 3497.96 380.142 3500.59 382.673 3504.15 384.096 3507.86 384.096Z" stroke="#98DF8A" stroke-width="1.62077" stroke-linejoin="round" stroke-miterlimit="10" fill="#98DF8A" fill-rule="evenodd"/><path d="M-1.40711-2.08133-1.40711-0.739367 0.429895-0.739367C2.48849-0.739367 3.94564-0.0771246 4.80338 1.24942 5.3313 2.04329 5.59476 3.82332 5.59476 6.59055L5.59476 38.2476C5.59476 41.3007 5.2588 43.2124 4.58486 43.9826 3.65155 45.0469 2.26588 45.5786 0.429895 45.5786L-1.40711 45.5786-1.40711 46.9195 18.3936 46.9195C25.663 46.9195 31.1913 46.0876 34.9797 44.4227 38.7742 42.7579 41.8243 39.9865 44.127 36.1087 46.4378 32.2319 47.5937 27.7535 47.5937 22.6736 47.5937 15.8517 45.5392 10.1558 41.4302 5.58485 36.8157 0.474059 29.7832-2.08133 20.3327-2.08133L-1.40711-2.08133ZM12.4823 1.45714C15.5201 0.786671 18.0637 0.451436 20.1152 0.451436 25.663 0.451436 30.2652 2.41246 33.9229 6.33655 37.5887 10.2678 39.4216 15.5894 39.4216 22.3034 39.4216 29.079 37.5887 34.4171 33.9229 38.3175 30.2652 42.218 25.567 44.1677 19.8282 44.1677 17.6778 44.1677 15.2291 43.817 12.4823 43.1157L12.4823 1.45714Z" fill-rule="evenodd" transform="matrix(1 0 0 -1 3566 394)"/><path d="M2.04538-2.08025 5.37894 14.3207-0.737846 14.3207-0.737846 17.2851 5.95169 17.2851 8.42612 29.6486-0.737846 29.6486-0.737846 32.532 9.10282 32.532 12.3559 48.9207 15.3348 48.9207 12.0695 32.532 24.1441 32.532 27.6152 48.9207 30.5819 48.9207 27.1801 32.532 33.2622 32.532 33.2622 29.6486 26.6409 29.6486 24.1441 17.2851 33.2622 17.2851 33.2622 14.3207 23.5255 14.3207 20.2031-2.08025 17.3047-2.08025 20.5578 14.3207 8.42612 14.3207 5.02428-2.08025 2.04538-2.08025ZM8.96524 17.2851 21.0969 17.2851 23.6743 29.6486 11.4621 29.6486 8.96524 17.2851Z" fill-rule="evenodd" transform="matrix(1 0 0 -1 3619 395)"/><path d="M3245.86 498.124C3249.58 498.124 3253.14 496.648 3255.76 494.023 3258.39 491.397 3259.86 487.835 3259.86 484.122 3259.86 480.41 3258.39 476.848 3255.76 474.223 3253.14 471.597 3249.58 470.122 3245.86 470.122 3242.15 470.122 3238.59 471.597 3235.96 474.223 3233.34 476.848 3231.86 480.41 3231.86 484.122 3231.86 487.835 3233.34 491.397 3235.96 494.023 3238.59 496.648 3242.15 498.124 3245.86 498.124Z" stroke="#FF9896" stroke-width="1.62077" stroke-linejoin="round" stroke-miterlimit="10" fill="#FF9896" fill-rule="evenodd"/><path d="M12.845 44.2606 12.845 24.8939 23.6109 24.8939C26.402 24.8939 28.2671 25.3176 29.2074 26.166 30.4645 27.2684 31.162 29.2181 31.3009 32.0162L32.6424 32.0162 32.6424 14.9623 31.3009 14.9623C30.9696 17.3439 30.6343 18.8741 30.2948 19.5528 29.8627 20.3929 29.1498 21.051 28.155 21.5292 27.1684 22.0146 25.6541 22.2583 23.6109 22.2583L12.845 22.2583 12.845 6.10523C12.845 3.93955 12.9407 2.62123 13.1341 2.15128 13.3265 1.6803 13.6619 1.30701 14.1402 1.02936 14.6258 0.751713 15.5435 0.612888 16.8922 0.612888L25.1952 0.612888C27.9708 0.612888 29.982 0.806215 31.2309 1.19081 32.4881 1.57644 33.6948 2.33638 34.8511 3.46857 36.3387 4.9648 37.8695 7.21891 39.4414 10.233L40.8868 10.233 36.6545-2.0577-1.11311-2.0577-1.11311-0.716749 0.621368-0.716749C1.77769-0.716749 2.8764-0.439099 3.9175 0.116202 4.68803 0.501827 5.2127 1.07975 5.49046 1.84997 5.7672 2.62123 5.90608 4.19766 5.90608 6.57929L5.90608 38.4104C5.90608 41.517 5.59025 43.4328 4.9586 44.1567 4.09444 45.1203 2.64904 45.6025 0.621368 45.6025L-1.11311 45.6025-1.11311 46.9435 36.6545 46.9435 37.1987 36.2015 35.7873 36.2015C35.2791 38.7847 34.7164 40.5575 34.0991 41.5211 33.4901 42.4846 32.5848 43.2168 31.3822 43.7176 30.4182 44.0796 28.7187 44.2606 26.2816 44.2606L12.845 44.2606Z" fill-rule="evenodd" transform="matrix(1 0 0 -1 3304 508)"/><path d="M3506.86 497.146C3510.58 497.146 3514.14 495.672 3516.76 493.046 3519.39 490.42 3520.86 486.859 3520.86 483.146 3520.86 479.434 3519.39 475.871 3516.76 473.246 3514.14 470.621 3510.58 469.145 3506.86 469.145 3503.15 469.145 3499.59 470.621 3496.96 473.246 3494.34 475.871 3492.86 479.434 3492.86 483.146 3492.86 486.859 3494.34 490.42 3496.96 493.046 3499.59 495.672 3503.15 497.146 3506.86 497.146Z" stroke="#C5B0D5" stroke-width="1.62077" stroke-linejoin="round" stroke-miterlimit="10" fill="#C5B0D5" fill-rule="evenodd"/><path d="M13.1101 43.3804 13.1101 24.5219 22.0535 24.5219C24.1075 24.5219 25.6101 24.9641 26.5593 25.8475 27.5177 26.731 28.1505 28.4828 28.4597 31.1029L29.8035 31.1029 29.8035 14.8604 28.4597 14.8604C28.436 16.7179 28.1896 18.0849 27.7176 18.9613 27.2467 19.8367 26.5943 20.4895 25.7605 20.9206 24.934 21.3578 23.6983 21.5774 22.0535 21.5774L13.1101 21.5774 13.1101 6.50142C13.1101 4.07069 13.2688 2.46599 13.5852 1.68832 13.8243 1.09902 14.3303 0.593328 15.1022 0.170242 16.1678-0.395888 17.2809-0.678953 18.4393-0.678953L20.2108-0.678953 20.2108-1.99253-0.86054-1.99253-0.86054-0.678953 0.877029-0.678953C2.90832-0.678953 4.37896-0.101742 5.29 1.05369 5.86919 1.8092 6.15879 3.62545 6.15879 6.50142L6.15879 37.5136C6.15879 39.9373 6.00523 41.542 5.69605 42.3267 5.45593 42.916 4.96228 43.4217 4.21304 43.8448 3.17009 44.4109 2.05808 44.694 0.877029 44.694L-0.86054 44.694-0.86054 46.0086 35.6655 46.0086 36.1396 35.4516 34.8771 35.4516C34.2443 37.695 33.5106 39.341 32.6758 40.3906 31.8503 41.4403 30.8269 42.1988 29.6067 42.6672 28.3865 43.1427 26.4974 43.3804 23.9416 43.3804L13.1101 43.3804Z" fill-rule="evenodd" transform="matrix(1 0 0 -1 3565 506)"/><path d="M3245.86 608.17C3249.58 608.17 3253.14 606.695 3255.76 604.069 3258.39 601.444 3259.86 597.883 3259.86 594.169 3259.86 590.456 3258.39 586.895 3255.76 584.27 3253.14 581.645 3249.58 580.169 3245.86 580.169 3242.15 580.169 3238.59 581.645 3235.96 584.27 3233.34 586.895 3231.86 590.456 3231.86 594.169 3231.86 597.883 3233.34 601.444 3235.96 604.069 3238.59 606.695 3242.15 608.17 3245.86 608.17Z" stroke="#8C564B" stroke-width="1.62077" stroke-linejoin="round" stroke-miterlimit="10" fill="#8C564B" fill-rule="evenodd"/><path d="M13.11 44.3079 13.11 25.0564 22.0533 25.0564C24.1073 25.0564 25.6098 25.5068 26.559 26.4087 27.5174 27.3105 28.1502 29.0988 28.4594 31.7735L29.8033 31.7735 29.8033 15.1937 28.4594 15.1937C28.4357 17.0899 28.1894 18.4854 27.7174 19.379 27.2464 20.2736 26.594 20.94 25.7603 21.3791 24.9338 21.8264 23.6981 22.0496 22.0533 22.0496L13.11 22.0496 13.11 6.66053C13.11 4.17813 13.2687 2.54102 13.5851 1.74611 13.8242 1.14557 14.3302 0.629341 15.1021 0.19744 16.1677-0.380484 17.2807-0.669446 18.4391-0.669446L20.2106-0.669446 20.2106-2.01142-0.860532-2.01142-0.860532-0.669446 0.877021-0.669446C2.90829-0.669446 4.37892-0.0802101 5.28995 1.09929 5.86913 1.86951 6.15873 3.7236 6.15873 6.66053L6.15873 38.3178C6.15873 40.793 6.00517 42.4301 5.696 43.2322 5.45587 43.8338 4.96223 44.35 4.213 44.7819 3.17005 45.3599 2.05806 45.6488 0.877021 45.6488L-0.860532 45.6488-0.860532 46.9898 35.6652 46.9898 36.1392 36.2138 34.8768 36.2138C34.244 38.5029 33.5102 40.1832 32.6755 41.2547 31.85 42.3263 30.8266 43.1016 29.6064 43.5788 28.3862 44.0642 26.4972 44.3079 23.9413 44.3079L13.11 44.3079Z" fill-rule="evenodd" transform="matrix(1 0 0 -1 3304 618)"/><path d="M2.04334-2.01051 5.3769 14.3905-0.740903 14.3905-0.740903 17.354 5.94965 17.354 8.42408 29.7186-0.740903 29.7186-0.740903 32.602 9.09976 32.602 12.3528 48.9907 15.3317 48.9907 12.0664 32.602 24.141 32.602 27.6122 48.9907 30.5788 48.9907 27.177 32.602 33.2601 32.602 33.2601 29.7186 26.6389 29.7186 24.141 17.354 33.2601 17.354 33.2601 14.3905 23.5224 14.3905 20.2001-2.01051 17.3017-2.01051 20.5557 14.3905 8.42408 14.3905 5.02123-2.01051 2.04334-2.01051ZM8.96218 17.354 21.0938 17.354 23.6712 29.7186 11.4601 29.7186 8.96218 17.354Z" fill-rule="evenodd" transform="matrix(1 0 0 -1 3345 619)"/><path d="M3508.33 608.193C3511.91 608.193 3515.35 606.719 3517.88 604.093 3520.41 601.467 3521.83 597.906 3521.83 594.193 3521.83 590.48 3520.41 586.919 3517.88 584.293 3515.35 581.667 3511.91 580.193 3508.33 580.193 3504.75 580.193 3501.32 581.667 3498.79 584.293 3496.25 586.919 3494.83 590.48 3494.83 594.193 3494.83 597.906 3496.25 601.467 3498.79 604.093 3501.32 606.719 3504.75 608.193 3508.33 608.193Z" stroke="#E377C2" stroke-width="1.62077" stroke-linejoin="round" stroke-miterlimit="10" fill="#E377C2" fill-rule="evenodd"/><path d="M40.6084 49.0225 41.8597 33.6333 40.6084 33.6333C39.3561 37.4701 37.7323 40.359 35.738 42.3009 32.87 45.1089 29.183 46.5134 24.6771 46.5134 18.5392 46.5134 13.8702 44.0545 10.6682 39.1357 7.99048 34.9846 6.65114 30.0463 6.65114 24.3218 6.65114 19.6641 7.53898 15.4168 9.31464 11.58 11.0974 7.74421 13.4258 4.93111 16.3009 3.14375 19.184 1.36355 22.1431 0.472945 25.1772 0.472945 26.9528 0.472945 28.6708 0.69918 30.3321 1.15267 31.9933 1.60515 33.5949 2.27669 35.1346 3.16627L35.1346 17.2666C35.1346 19.7142 34.9484 21.3142 34.5768 22.0656 34.2124 22.8262 33.6435 23.4016 32.87 23.7926 32.1037 24.1918 30.7491 24.3915 28.8075 24.3915L28.8075 25.7612 47.4701 25.7612 47.4701 24.3915 46.5823 24.3915C44.7317 24.3915 43.4643 23.766 42.7819 22.515 42.3041 21.6326 42.0642 19.8831 42.0642 17.2666L42.0642 2.33811C39.341 0.849663 36.6522-0.240567 33.9968-0.930534 31.3414-1.62971 28.3904-1.97879 25.1438-1.97879 15.8271-1.97879 8.74874 1.04519 3.90869 7.0911 0.282446 11.6189-1.53067 16.8448-1.53067 22.7679-1.53067 27.0653-0.510225 31.1785 1.53067 35.1074 3.95121 39.7806 7.26969 43.3789 11.4882 45.9033 15.0152 47.9834 19.1881 49.0225 24.0049 49.0225 25.7583 49.0225 27.3507 48.8771 28.7852 48.5853 30.2187 48.3018 32.2515 47.6681 34.8846 46.6864 36.2118 46.1879 37.0996 45.9381 37.5471 45.9381 38.0026 45.9381 38.3894 46.1449 38.7072 46.5595 39.0261 46.9812 39.2235 47.8022 39.2995 49.0225L40.6084 49.0225Z" fill-rule="evenodd" transform="matrix(1 0 0 -1 3567 619)"/><path d="M3245.33 723.217C3248.91 723.217 3252.35 721.741 3254.88 719.116 3257.41 716.491 3258.83 712.93 3258.83 709.217 3258.83 705.503 3257.41 701.942 3254.88 699.317 3252.35 696.691 3248.91 695.216 3245.33 695.216 3241.75 695.216 3238.32 696.691 3235.79 699.317 3233.25 701.942 3231.83 705.503 3231.83 709.217 3231.83 712.93 3233.25 716.491 3235.79 719.116 3238.32 721.741 3241.75 723.217 3245.33 723.217Z" stroke="#7F7F7F" stroke-width="1.62077" stroke-linejoin="round" stroke-miterlimit="10" fill="#7F7F7F" fill-rule="evenodd"/><path d="M41.4372 49.0457 42.714 33.6566 41.4372 33.6566C40.1594 37.4934 38.5024 40.3822 36.4674 42.3242 33.5409 45.1321 29.7786 46.5366 25.1807 46.5366 18.9175 46.5366 14.1533 44.0767 10.8859 39.1589 8.15356 35.0069 6.78689 30.0697 6.78689 24.3452 6.78689 19.6875 7.69284 15.4402 9.50474 11.6034 11.3239 7.76668 13.6998 4.95462 16.6336 3.16625 19.5756 1.38607 22.5951 0.496486 25.691 0.496486 27.5029 0.496486 29.2559 0.72272 30.9511 1.17519 32.6463 1.62868 34.2805 2.29919 35.8517 3.1898L35.8517 17.289C35.8517 19.7376 35.6616 21.3376 35.2825 22.089 34.9106 22.8486 34.3301 23.4239 33.5409 23.816 32.7589 24.2142 31.3767 24.4138 29.3954 24.4138L29.3954 25.7835 48.439 25.7835 48.439 24.4138 47.533 24.4138C45.6447 24.4138 44.3513 23.7883 43.6551 22.5384 43.1675 21.656 42.9227 19.9065 42.9227 17.289L42.9227 2.36061C40.1439 0.872178 37.4002-0.217021 34.6906-0.908006 31.981-1.60616 28.9698-1.95523 25.6569-1.95523 16.1501-1.95523 8.92729 1.0677 3.98846 7.11459 0.28821 11.6423-1.56191 16.8672-1.56191 22.7913-1.56191 27.0887-0.520638 31.2008 1.56191 35.1297 4.03185 39.8028 7.41806 43.4021 11.7226 45.9265 15.3216 48.0056 19.5797 49.0457 24.4948 49.0457 26.284 49.0457 27.9089 48.8993 29.3727 48.6085 30.8354 48.324 32.9097 47.6913 35.5966 46.7086 36.9508 46.2101 37.8568 45.9613 38.3134 45.9613 38.7782 45.9613 39.1728 46.1681 39.4972 46.5827 39.8226 47.0044 40.024 47.8254 40.1015 49.0457L41.4372 49.0457Z" fill-rule="evenodd" transform="matrix(1 0 0 -1 3304 734)"/><path d="M2.04538-1.92582 5.37894 14.1535-0.737846 14.1535-0.737846 17.0598 5.95169 17.0598 8.42612 29.1809-0.737846 29.1809-0.737846 32.0078 9.10282 32.0078 12.3559 48.075 15.3348 48.075 12.0695 32.0078 24.1441 32.0078 27.6152 48.075 30.5819 48.075 27.1801 32.0078 33.2622 32.0078 33.2622 29.1809 26.6409 29.1809 24.1441 17.0598 33.2622 17.0598 33.2622 14.1535 23.5255 14.1535 20.2031-1.92582 17.3047-1.92582 20.5578 14.1535 8.42612 14.1535 5.02428-1.92582 2.04538-1.92582ZM8.96524 17.0598 21.0969 17.0598 23.6743 29.1809 11.4621 29.1809 8.96524 17.0598Z" fill-rule="evenodd" transform="matrix(1 0 0 -1 3356 733)"/><path d="M3509.86 724.241C3513.58 724.241 3517.14 722.765 3519.76 720.14 3522.39 717.515 3523.86 713.953 3523.86 710.24 3523.86 706.527 3522.39 702.966 3519.76 700.341 3517.14 697.714 3513.58 696.24 3509.86 696.24 3506.15 696.24 3502.59 697.714 3499.96 700.341 3497.34 702.966 3495.86 706.527 3495.86 710.24 3495.86 713.953 3497.34 717.515 3499.96 720.14 3502.59 722.765 3506.15 724.241 3509.86 724.241Z" stroke="#BCBD22" stroke-width="1.62077" stroke-linejoin="round" stroke-miterlimit="10" fill="#BCBD22" fill-rule="evenodd"/><path d="M31.783 14.0966 12.8316 14.0966 9.50397 6.53297C8.6867 4.67072 8.27858 3.28006 8.27858 2.361 8.27858 1.62998 8.63324 0.989448 9.34154 0.438414 10.0509-0.111615 11.5836-0.469586 13.9409-0.635499L13.9409-1.94672-1.47417-1.94672-1.47417-0.635499C0.574658-0.280545 1.89977 0.178986 2.50115 0.744097 3.72551 1.87432 5.08557 4.16996 6.5803 7.62901L23.8098 47.0531 25.0691 47.0531 42.1135 7.19964C43.4849 3.996 44.7288 1.91655 45.8462 0.959282 46.9709 0.00904983 48.5304-0.521874 50.5257-0.635499L50.5257-1.94672 31.2053-1.94672 31.2053-0.635499C33.1544-0.545001 34.4713-0.228257 35.157 0.314733 35.8426 0.856717 36.186 1.51635 36.186 2.29262 36.186 3.33335 35.7039 4.96836 34.7406 7.19964L31.783 14.0966ZM30.7776 16.708 22.4692 36.0756 13.9409 16.708 30.7776 16.708Z" fill-rule="evenodd" transform="matrix(1 0 0 -1 3564 733)"/><path d="M3246.86 838.254C3250.58 838.254 3254.14 836.832 3256.76 834.301 3259.39 831.768 3260.86 828.334 3260.86 824.754 3260.86 821.174 3259.39 817.739 3256.76 815.207 3254.14 812.676 3250.58 811.253 3246.86 811.253 3243.15 811.253 3239.59 812.676 3236.96 815.207 3234.34 817.739 3232.86 821.174 3232.86 824.754 3232.86 828.334 3234.34 831.768 3236.96 834.301 3239.59 836.832 3243.15 838.254 3246.86 838.254Z" stroke="#17BECF" stroke-width="1.62077" stroke-linejoin="round" stroke-miterlimit="10" fill="#17BECF" fill-rule="evenodd"/><path d="M31.1718 14.1188 12.5849 14.1188 9.32119 6.55514C8.51964 4.69388 8.11937 3.30321 8.11937 2.38314 8.11937 1.65211 8.46721 1.01158 9.16189 0.461545 9.85757-0.0884879 11.3609-0.446462 13.6728-0.612376L13.6728-1.92361-1.44582-1.92361-1.44582-0.612376C0.563607-0.258425 1.86323 0.201109 2.45305 0.76723 3.65387 1.89746 4.98777 4.19211 6.45375 7.65219L23.3519 47.0766 24.587 47.0766 41.3036 7.22282C42.6486 4.01916 43.8686 1.93869 44.9645 0.981411 46.0676 0.0321774 47.5971-0.499755 49.5541-0.612376L49.5541-1.92361 30.6052-1.92361 30.6052-0.612376C32.5168-0.521877 33.8083-0.205131 34.4808 0.336857 35.1533 0.879851 35.4901 1.53949 35.4901 2.31577 35.4901 3.3555 35.0172 4.99152 34.0725 7.22282L31.1718 14.1188ZM30.1857 16.7312 22.0371 36.098 13.6728 16.7312 30.1857 16.7312Z" fill-rule="evenodd" transform="matrix(1 0 0 -1 3304 848)"/><path d="M2.04538-1.87957 5.37894 14.1989-0.737846 14.1989-0.737846 17.1052 5.95169 17.1052 8.42612 29.2264-0.737846 29.2264-0.737846 32.0533 9.10282 32.0533 12.3559 48.1206 15.3348 48.1206 12.0695 32.0533 24.1441 32.0533 27.6152 48.1206 30.5819 48.1206 27.1801 32.0533 33.2622 32.0533 33.2622 29.2264 26.6409 29.2264 24.1441 17.1052 33.2622 17.1052 33.2622 14.1989 23.5255 14.1989 20.2031-1.87957 17.3047-1.87957 20.5578 14.1989 8.42612 14.1989 5.02428-1.87957 2.04538-1.87957ZM8.96524 17.1052 21.0969 17.1052 23.6743 29.2264 11.4621 29.2264 8.96524 17.1052Z" fill-rule="evenodd" transform="matrix(1 0 0 -1 3357 849)"/><path d="M3511.33 838.277C3514.91 838.277 3518.35 836.854 3520.88 834.323 3523.41 831.791 3524.83 828.357 3524.83 824.777 3524.83 821.196 3523.41 817.762 3520.88 815.23 3518.35 812.699 3514.91 811.276 3511.33 811.276 3507.75 811.276 3504.32 812.699 3501.79 815.23 3499.25 817.762 3497.83 821.196 3497.83 824.777 3497.83 828.357 3499.25 831.791 3501.79 834.323 3504.32 836.854 3507.75 838.277 3511.33 838.277Z" stroke="#9EDAE5" stroke-width="1.62077" stroke-linejoin="round" stroke-miterlimit="10" fill="#9EDAE5" fill-rule="evenodd"/><path d="M31.7106 22.6432C35.1035 21.933 37.6423 20.8007 39.3269 19.2444 41.6573 17.0705 42.8235 14.4121 42.8235 11.2712 42.8235 8.89287 42.0536 6.61223 40.5157 4.43032 38.9769 2.24739 36.8651 0.654776 34.1796-0.34955 31.5032-1.35388 27.4102-1.85654 21.9014-1.85654L-1.17751-1.85654-1.17751-0.541953 0.668315-0.541953C2.70714-0.541953 4.17312 0.0916687 5.06524 1.36093 5.6196 2.19098 5.89575 3.95082 5.89575 6.63842L5.89575 37.6496C5.89575 40.6173 5.54568 42.4899 4.84554 43.2676 3.90723 44.3102 2.51517 44.831 0.668315 44.831L-1.17751 44.831-1.17751 46.1446 19.9632 46.1446C23.9023 46.1446 27.0601 45.8615 29.4367 45.2954 33.0452 44.4422 35.7995 42.9362 37.6998 40.7764 39.6 38.6167 40.5496 36.1326 40.5496 33.3231 40.5496 30.9226 39.8033 28.7699 38.3116 26.867 36.8189 24.9641 34.6189 23.5568 31.7106 22.6432ZM12.8202 24.545C13.7051 24.3798 14.7163 24.2549 15.8548 24.1713 17.0015 24.0958 18.2591 24.0585 19.6286 24.0585 23.1447 24.0585 25.783 24.4282 27.5447 25.1686 29.3145 25.908 30.6686 27.0453 31.6069 28.5775 32.5452 30.1177 33.0144 31.7939 33.0144 33.6061 33.0144 36.4156 31.8492 38.8091 29.5178 40.7875 27.1874 42.773 23.7832 43.7663 19.3052 43.7663 16.905 43.7663 14.743 43.5053 12.8202 42.9845L12.8202 24.545ZM12.8202 1.60974C15.6053 0.975113 18.3556 0.657798 21.0709 0.657798 25.4247 0.657798 28.7448 1.61679 31.03 3.53478 33.3141 5.46083 34.4567 7.83918 34.4567 10.6708 34.4567 12.5354 33.9373 14.3295 32.8994 16.0511 31.8687 17.7726 30.1871 19.1275 27.8567 20.1167 25.5253 21.114 22.6406 21.6116 19.2015 21.6116 17.7088 21.6116 16.4317 21.5855 15.3702 21.5331 14.3159 21.4877 13.4659 21.4082 12.8202 21.2953L12.8202 1.60974Z" fill-rule="evenodd" transform="matrix(1 0 0 -1 3569 848)"/></g></svg>