<svg width="665" height="467" xmlns="http://www.w3.org/2000/svg" xmlns:xlink="http://www.w3.org/1999/xlink" xml:space="preserve" overflow="hidden"><g transform="translate(-1208 -635)"><path d="M1224.25 674.51C1227.83 674.51 1231.27 673.087 1233.8 670.556 1236.33 668.024 1237.75 664.59 1237.75 661.01 1237.75 657.429 1236.33 653.995 1233.8 651.464 1231.27 648.932 1227.83 647.51 1224.25 647.51 1220.67 647.51 1217.24 648.932 1214.71 651.464 1212.18 653.995 1210.75 657.429 1210.75 661.01 1210.75 664.59 1212.18 668.024 1214.71 670.556 1217.24 673.087 1220.67 674.51 1224.25 674.51Z" stroke="#000000" stroke-width="4.58189" stroke-linejoin="round" stroke-miterlimit="10" fill-rule="evenodd"/><path d="M32.4282 23.7528C35.821 23.0429 38.3593 21.9106 40.0441 20.355 42.3752 18.1805 43.5408 15.5225 43.5408 12.3814 43.5408 10.003 42.7715 7.72258 41.2329 5.54022 39.6943 3.35822 37.5824 1.76485 34.8975 0.760849 32.2206-0.243514 28.1276-0.745517 22.6197-0.745517L-0.459178-0.745517-0.459178 0.568319 1.38699 0.568319C3.42547 0.568319 4.89099 1.20224 5.78353 2.4708 6.3376 3.30153 6.61427 5.06103 6.61427 7.74896L6.61427 38.7601C6.61427 41.7276 6.26452 43.6001 5.5643 44.3781 4.62559 45.4199 3.23315 45.9408 1.38699 45.9408L-0.459178 45.9408-0.459178 47.2546 20.6812 47.2546C24.6196 47.2546 27.7779 46.9715 30.1549 46.4053 33.7628 45.5522 36.5168 44.0458 38.4172 41.8862 40.3175 39.7267 41.2675 37.2424 41.2675 34.4336 41.2675 32.0323 40.5211 29.8802 39.0287 27.9774 37.5362 26.0749 35.336 24.6666 32.4282 23.7528ZM13.5379 25.6556C14.4228 25.4895 15.4343 25.3651 16.5729 25.282 17.7192 25.2064 18.9768 25.1686 20.3463 25.1686 23.862 25.1686 26.5007 25.5387 28.2625 26.2785 30.032 27.0187 31.3859 28.155 32.3242 29.6877 33.2629 31.2283 33.7323 32.9044 33.7323 34.7167 33.7323 37.5254 32.5667 39.9192 30.2356 41.8977 27.9048 43.8832 24.5008 44.8762 20.0231 44.8762 17.6229 44.8762 15.4615 44.6159 13.5379 44.0946L13.5379 25.6556ZM13.5379 2.72002C16.3228 2.08574 19.0732 1.76878 21.789 1.76878 26.143 1.76878 29.4626 2.7275 31.7473 4.64567 34.0322 6.57097 35.1746 8.94942 35.1746 11.781 35.1746 13.6461 34.6554 15.4395 33.6167 17.1612 32.586 18.8825 30.9049 20.2381 28.5741 21.2271 26.2429 22.224 23.3581 22.7221 19.9195 22.7221 18.4271 22.7221 17.1499 22.6957 16.0883 22.6429 15.0343 22.5976 14.1843 22.5185 13.5379 22.4051L13.5379 2.72002Z" fill-rule="evenodd" transform="matrix(1 0 0 -1 1294 686)"/><path d="M11.5346 50.2073 11.5346 6.63233C11.5346 4.57425 11.6865 3.20833 11.99 2.53531 12.3012 1.86951 12.772 1.36483 13.4025 1.02019 14.0331 0.675914 15.2124 0.503955 16.9406 0.503955L16.9406-0.792961 0.559145-0.792961 0.559145 0.503955C2.09275 0.503955 3.13562 0.657128 3.68852 0.963114 4.24876 1.27669 4.68872 1.78931 5.00766 2.50063 5.32696 3.21989 5.48661 4.59701 5.48661 6.63233L5.48661 36.4704C5.48661 40.1733 5.4009 42.4496 5.22947 43.2986 5.05842 44.1479 4.78216 44.7255 4.40069 45.0315 4.02694 45.3451 3.54836 45.5022 2.96457 45.5022 2.33406 45.5022 1.53213 45.3108 0.559145 44.9282L-0.059593 46.1908 9.8998 50.2073 11.5346 50.2073Z" fill-rule="evenodd" transform="matrix(1 0 0 -1 1344 686)"/><path d="M17.5105 4.97702C14.2311 2.33036 12.1753 0.800854 11.3422 0.389615 10.0855-0.215882 8.74698-0.518631 7.32693-0.518631 5.12604-0.518631 3.30783 0.269395 1.87267 1.84508 0.444887 3.42076-0.26883 5.49345-0.26883 8.06279-0.26883 9.69272 0.0804732 11.1016 0.779782 12.2892 1.7314 13.9349 3.38585 15.4834 5.74312 16.9349 8.10038 18.3944 12.0228 20.168 17.5105 22.256L17.5105 23.5601C17.5105 26.89 17.0048 29.1723 15.9934 30.4064 14.9821 31.6409 13.5135 32.2577 11.5878 32.2577 10.1228 32.2577 8.95923 31.8465 8.09652 31.0237 7.21166 30.2008 6.76924 29.2537 6.76924 28.1827L6.84725 26.0752C6.84725 24.9573 6.57209 24.0956 6.02178 23.4901 5.47921 22.885 4.76514 22.5822 3.88028 22.5822 3.01792 22.5822 2.3151 22.8964 1.77217 23.5253 1.22959 24.1616 0.957947 25.0233 0.957947 26.11 0.957947 28.1981 1.98055 30.1154 4.02542 31.8619 6.07028 33.6084 8.93674 34.4818 12.6252 34.4818 15.4656 34.4818 17.7891 33.9848 19.5961 32.9915 20.9719 32.2383 21.9832 31.0625 22.6298 29.4634 23.054 28.4155 23.2659 26.2808 23.2659 23.0595L23.2659 11.7419C23.2659 8.55942 23.3214 6.61099 23.4332 5.897 23.5519 5.18301 23.7456 4.70543 24.013 4.46499 24.2808 4.22418 24.5893 4.10396 24.939 4.10396 25.3108 4.10396 25.6341 4.18533 25.9092 4.34844 26.4001 4.66658 27.3405 5.5554 28.731 7.01489L28.731 4.97702C26.1285 1.33671 23.6412-0.483811 21.2692-0.483811 20.1317-0.483811 19.2243-0.0722051 18.5478 0.75064 17.8784 1.57349 17.5326 2.9824 17.5105 4.97702ZM17.5105 7.34073 17.5105 20.0323C14.0006 18.5805 11.7364 17.5521 10.7177 16.9466 8.88087 15.8756 7.56483 14.7577 6.76924 13.5933 5.98102 12.4288 5.58709 11.1559 5.58709 9.77445 5.58709 8.0276 6.08504 6.57617 7.08164 5.41978 8.08527 4.27073 9.2379 3.69639 10.5392 3.69639 12.3015 3.69639 14.6254 4.91105 17.5105 7.34073Z" fill-rule="evenodd" transform="matrix(1 0 0 -1 1365 687)"/><path d="M27.7603 13.0536C26.8704 8.70201 25.1175 5.35385 22.5017 3.00909 19.8936 0.663968 17.0028-0.508231 13.83-0.508231 10.0611-0.508231 6.77201 1.06402 3.96278 4.20852 1.16122 7.36064-0.239559 11.616-0.239559 16.9746-0.239559 22.164 1.3119 26.3812 4.41556 29.6255 7.52653 32.8699 11.2567 34.4922 15.6061 34.4922 18.8721 34.4922 21.5574 33.6311 23.6625 31.9089 25.7674 30.1944 26.82 28.4108 26.82 26.558 26.82 25.6508 26.5219 24.9124 25.9261 24.3435 25.338 23.7823 24.51 23.5017 23.442 23.5017 22.0178 23.5017 20.9422 23.9595 20.2147 24.8743 19.8047 25.3738 19.5337 26.3311 19.4021 27.7458 19.2708 29.1681 18.7792 30.2521 17.9278 30.9977 17.0844 31.7205 15.9118 32.0817 14.4105 32.0817 11.9959 32.0817 10.0494 31.1901 8.57145 29.4063 6.61328 27.0539 5.6342 23.9439 5.6342 20.0766 5.6342 16.1327 6.6056 12.6539 8.54804 9.64006 10.4982 6.62625 13.1296 5.11934 16.4418 5.11934 18.818 5.11934 20.9462 5.92271 22.8265 7.52981 24.1578 8.63666 25.4539 10.6434 26.7154 13.5494L27.7603 13.0536Z" fill-rule="evenodd" transform="matrix(1 0 0 -1 1397 687)"/><path d="M10.9262 50.2073 10.9262 17.5347 19.1549 25.132C20.8952 26.7616 21.9091 27.7905 22.1954 28.2189 22.3838 28.5098 22.4778 28.7966 22.4778 29.0798 22.4778 29.5617 22.2819 29.9747 21.8902 30.3189 21.5056 30.6636 20.8653 30.8623 19.9686 30.9157L19.9686 32.0634 34.0297 32.0634 34.0297 30.9157C32.0928 30.8623 30.4843 30.5603 29.203 30.0093 27.922 29.466 26.5168 28.4866 24.987 27.0712L16.6792 19.2905 24.987 8.64057C27.2928 5.70282 28.8451 3.83584 29.6439 3.04035 30.7742 1.92334 31.7652 1.19649 32.6167 0.859794 33.2046 0.622447 34.2292 0.503955 35.691 0.503955L35.691-0.792961 19.9686-0.792961 19.9686 0.503955C20.8653 0.526714 21.4718 0.660741 21.7884 0.905674 22.105 1.15819 22.2631 1.51367 22.2631 1.97283 22.2631 2.52375 21.7919 3.40738 20.8504 4.62374L10.9262 17.5001 10.9262 6.59765C10.9262 4.47093 11.073 3.07069 11.3671 2.39767 11.6609 1.73187 12.079 1.25357 12.6217 0.963114 13.164 0.679887 14.3396 0.526714 16.1483 0.503955L16.1483-0.792961-0.309105-0.792961-0.309105 0.503955C1.34112 0.503955 2.57683 0.706621 3.39838 1.11231 3.89551 1.37242 4.27228 1.77775 4.52868 2.32867 4.88265 3.11657 5.06 4.47851 5.06 6.41413L5.06 36.3212C5.06 40.1235 4.97702 42.4496 4.81108 43.2986 4.64548 44.1479 4.37413 44.7331 3.99736 45.0546 3.62059 45.3838 3.12702 45.5481 2.51665 45.5481 2.02699 45.5481 1.2845 45.3415 0.289875 44.9282L-0.309105 46.1908 9.29845 50.2073 10.9262 50.2073Z" fill-rule="evenodd" transform="matrix(1 0 0 -1 1428 686)"/><path d="M1600.25 674.518C1603.83 674.518 1607.27 673.043 1609.8 670.418 1612.33 667.792 1613.75 664.231 1613.75 660.519 1613.75 656.806 1612.33 653.244 1609.8 650.619 1607.27 647.993 1603.83 646.518 1600.25 646.518 1596.67 646.518 1593.24 647.993 1590.71 650.619 1588.18 653.244 1586.75 656.806 1586.75 660.519 1586.75 664.231 1588.18 667.792 1590.71 670.418 1593.24 673.043 1596.67 674.518 1600.25 674.518Z" stroke="#0000FF" stroke-width="4.58189" stroke-linejoin="round" stroke-miterlimit="10" fill="#0000FF" fill-rule="evenodd"/><path d="M32.4282 24.256C35.821 23.5314 38.3593 22.3751 40.0441 20.7875 42.3752 18.5673 43.5408 15.8539 43.5408 12.6474 43.5408 10.2194 42.7715 7.89184 41.2329 5.66401 39.6943 3.43619 37.5824 1.80999 34.8975 0.784707 32.2206-0.24058 28.1276-0.753042 22.6197-0.753042L-0.459178-0.753042-0.459178 0.588166 1.38699 0.588166C3.42547 0.588166 4.89099 1.23566 5.78353 2.53064 6.3376 3.37868 6.61427 5.17448 6.61427 7.91877L6.61427 39.576C6.61427 42.6053 6.26452 44.5168 5.5643 45.3107 4.62559 46.3745 3.23315 46.9063 1.38699 46.9063L-0.459178 46.9063-0.459178 48.2475 20.6812 48.2475C24.6196 48.2475 27.7779 47.9585 30.1549 47.3805 33.7628 46.5092 36.5168 44.9714 38.4172 42.7669 40.3175 40.5624 41.2675 38.0266 41.2675 35.159 41.2675 32.708 40.5211 30.5111 39.0287 28.5687 37.5362 26.6262 35.336 25.1889 32.4282 24.256ZM13.5379 26.1985C14.4228 26.0289 15.4343 25.9015 16.5729 25.8167 17.7192 25.7399 18.9768 25.7013 20.3463 25.7013 23.862 25.7013 26.5007 26.0791 28.2625 26.8344 30.032 27.5896 31.3859 28.7499 32.3242 30.3146 33.2629 31.8869 33.7323 33.5983 33.7323 35.4483 33.7323 38.3156 32.5667 40.7589 30.2356 42.7786 27.9048 44.8058 24.5008 45.8195 20.0231 45.8195 17.6229 45.8195 15.4615 45.5534 13.5379 45.0217L13.5379 26.1985ZM13.5379 2.78506C16.3228 2.13756 19.0732 1.81363 21.789 1.81363 26.143 1.81363 29.4626 2.7927 31.7473 4.75046 34.0322 6.71623 35.1746 9.14424 35.1746 12.0348 35.1746 13.9387 34.6554 15.7695 33.6167 17.5267 32.586 19.2843 30.9049 20.6681 28.5741 21.6777 26.2429 22.695 23.3581 23.2038 19.9195 23.2038 18.4271 23.2038 17.1499 23.1769 16.0883 23.123 15.0343 23.0768 14.1843 22.9956 13.5379 22.8803L13.5379 2.78506Z" fill-rule="evenodd" transform="matrix(1 0 0 -1 1675 686)"/><path d="M11.5348 50.2156 11.5348 6.64028C11.5348 4.5822 11.6867 3.21664 11.9902 2.54326 12.3014 1.87782 12.7723 1.37278 13.4028 1.0285 14.0334 0.684223 15.2127 0.512264 16.941 0.512264L16.941-0.784652 0.559156-0.784652 0.559156 0.512264C2.09279 0.512264 3.13569 0.665076 3.68859 0.971061 4.24885 1.28499 4.68882 1.79762 5.00776 2.50894 5.32707 3.2282 5.48672 4.60532 5.48672 6.64028L5.48672 36.4784C5.48672 40.1816 5.40101 42.4576 5.22958 43.3069 5.05853 44.1562 4.78226 44.7338 4.40078 45.0398 4.02703 45.3534 3.54844 45.5102 2.96463 45.5102 2.33411 45.5102 1.53216 45.3191 0.559156 44.9365L-0.0595943 46.1987 9.90001 50.2156 11.5348 50.2156Z" fill-rule="evenodd" transform="matrix(1 0 0 -1 1725 686)"/><path d="M30.2546 33.5158 30.2546 13.526C30.2546 9.70839 30.3415 7.37341 30.5145 6.52074 30.6955 5.66806 30.9782 5.07289 31.3624 4.73487 31.7542 4.40446 32.21 4.23944 32.7299 4.23944 33.461 4.23944 34.2861 4.44291 35.2053 4.8502L35.7027 3.59422 26.0161-0.484549 24.4336-0.484549 24.4336 6.50913C21.653 3.43682 19.5317 1.50116 18.0698 0.702161 16.6155-0.0888582 15.0746-0.484549 13.4472-0.484549 11.631-0.484549 10.0563 0.0493253 8.72226 1.11707 7.39609 2.19244 6.47305 3.56738 5.95313 5.24191 5.44068 6.92405 5.18464 9.30109 5.18464 12.3738L5.18464 27.0981C5.18464 28.6577 5.01869 29.7367 4.68715 30.3358 4.35561 30.9426 3.86595 31.4072 3.21783 31.73 2.56971 32.0524 1.3981 32.2022-0.297354 32.1793L-0.297354 33.5158 11.0395 33.5158 11.0395 11.4406C11.0395 8.3679 11.5633 6.35173 12.6106 5.3917 13.6655 4.43166 14.9314 3.95147 16.4086 3.95147 17.4256 3.95147 18.5748 4.2739 19.8557 4.91912 21.1367 5.57195 22.6626 6.80871 24.4336 8.62903L24.4336 27.3172C24.4336 29.1915 24.0981 30.4588 23.4276 31.1192 22.757 31.7797 21.3593 32.1333 19.2343 32.1793L19.2343 33.5158 30.2546 33.5158Z" fill-rule="evenodd" transform="matrix(1 0 0 -1 1744 687)"/><path d="M4.87652 21.0666C4.85357 16.1743 6.04838 12.3341 8.46204 9.54597 10.8677 6.76544 13.6971 5.37536 16.951 5.37536 19.1177 5.37536 21.0026 5.96686 22.6066 7.1495 24.2103 8.34012 25.5559 10.3754 26.6429 13.2556L27.7531 12.5412C27.2521 9.25402 25.7833 6.25881 23.3467 3.55517 20.9181 0.851528 17.8726-0.50011 14.2098-0.50011 10.2315-0.50011 6.82742 1.04374 3.99763 4.13107 1.16784 7.21877-0.247051 11.3662-0.247051 16.5736-0.247051 22.2112 1.20246 26.6081 4.10185 29.7651 7.00852 32.9217 10.6516 34.5 15.0311 34.5 18.7474 34.5 21.797 33.2825 24.1793 30.848 26.562 28.4131 27.7531 25.1527 27.7531 21.0666L4.87652 21.0666ZM4.87652 23.1635 20.201 23.1635C20.0851 25.2757 19.8348 26.7619 19.4492 27.6221 18.8477 28.9661 17.9495 30.0222 16.7543 30.7903 15.5595 31.5584 14.3104 31.9425 13.007 31.9425 11.0102 31.9425 9.22141 31.1667 7.64072 29.6153 6.06769 28.0714 5.14653 25.9208 4.87652 23.1635Z" fill-rule="evenodd" transform="matrix(1 0 0 -1 1783 687)"/><path d="M1224.25 809.527C1227.83 809.527 1231.27 808.052 1233.8 805.426 1236.33 802.801 1237.75 799.24 1237.75 795.527 1237.75 791.814 1236.33 788.252 1233.8 785.627 1231.27 783.002 1227.83 781.526 1224.25 781.526 1220.67 781.526 1217.24 783.002 1214.71 785.627 1212.18 788.252 1210.75 791.814 1210.75 795.527 1210.75 799.24 1212.18 802.801 1214.71 805.426 1217.24 808.052 1220.67 809.527 1224.25 809.527Z" stroke="#008000" stroke-width="4.58189" stroke-linejoin="round" stroke-miterlimit="10" fill="#008000" fill-rule="evenodd"/><path d="M41.5548 50.2586 42.8064 34.87 41.5548 34.87C40.3028 38.7065 38.6794 41.5956 36.6842 43.5369 33.8164 46.3452 30.1298 47.7495 25.6235 47.7495 19.486 47.7495 14.8166 45.2901 11.615 40.3717 8.93722 36.2207 7.59814 31.2827 7.59814 25.5588 7.59814 20.9009 8.48584 16.6538 10.2609 12.8173 12.0438 8.98071 14.3728 6.16842 17.2481 4.38075 20.131 2.60034 23.0895 1.71049 26.124 1.71049 27.8994 1.71049 29.6174 1.93658 31.2788 2.38947 32.9402 2.842 34.541 3.51373 36.0812 4.40358L36.0812 18.5031C36.0812 20.9509 35.8951 22.5509 35.5234 23.3027 35.1595 24.0624 34.5905 24.6378 33.8164 25.0291 33.0503 25.4284 31.6961 25.6277 29.754 25.6277L29.754 26.9976 48.4165 26.9976 48.4165 25.6277 47.5288 25.6277C45.6777 25.6277 44.4111 25.0023 43.7281 23.7516 43.2502 22.8693 43.0111 21.1197 43.0111 18.5031L43.0111 3.57497C40.2877 2.08621 37.5985 0.996729 34.9433 0.306156 32.2881-0.392025 29.3367-0.741297 26.0899-0.741297 16.7738-0.741297 9.69585 2.28186 4.85581 8.32854 1.22937 12.8557-0.583672 18.081-0.583672 24.0048-0.583672 28.3019 0.436679 32.4145 2.47738 36.3435 4.8974 41.0163 8.21659 44.6151 12.4346 47.1394 15.9621 49.2191 20.1345 50.2586 24.952 50.2586 26.7044 50.2586 28.2974 50.1129 29.7314 49.8213 31.1652 49.5372 33.1983 48.9042 35.8306 47.9224 37.1586 47.4235 38.0459 47.1742 38.4937 47.1742 38.9487 47.1742 39.3355 47.3811 39.6542 47.7956 39.973 48.2176 40.1701 49.0387 40.2462 50.2586L41.5548 50.2586Z" fill-rule="evenodd" transform="matrix(1 0 0 -1 1297 822)"/><path d="M11.5677 33.4919 11.5677 26.062C14.3753 31.0154 17.2575 33.4919 20.2136 33.4919 21.559 33.4919 22.6693 33.0881 23.5453 32.2807 24.4291 31.4807 24.8711 30.5502 24.8711 29.4886 24.8711 28.5502 24.5507 27.7541 23.909 27.1004 23.2755 26.4543 22.5211 26.1314 21.6451 26.1314 20.7925 26.1314 19.8344 26.5465 18.7707 27.3775 17.7069 28.2081 16.9171 28.6232 16.4011 28.6232 15.9631 28.6232 15.486 28.3849 14.9696 27.9081 13.8748 26.9159 12.7409 25.2928 11.5677 23.0393L11.5677 7.21018C11.5677 5.37976 11.7983 3.99533 12.2596 3.05687 12.5804 2.41078 13.1434 1.87255 13.9491 1.44182 14.7549 1.01109 15.9162 0.795724 17.4334 0.795724L17.4334-0.508087 0.235072-0.508087 0.235072 0.795724C1.94785 0.795724 3.21857 1.05721 4.04761 1.58019 4.65784 1.96479 5.084 2.58002 5.32646 3.42622 5.45176 3.83371 5.51422 4.99879 5.51422 6.92182L5.51422 19.7166C5.51422 23.5623 5.43217 25.8507 5.26769 26.5814 5.11135 27.3197 4.81825 27.854 4.38802 28.1848 3.96555 28.5233 3.43775 28.6925 2.80424 28.6925 2.04543 28.6925 1.18904 28.5117 0.235072 28.1503L-0.128625 29.4541 10.019 33.4919 11.5677 33.4919Z" fill-rule="evenodd" transform="matrix(1 0 0 -1 1347 821)"/><path d="M4.8744 21.075C4.85108 16.1823 6.04627 12.3421 8.4596 9.55431 10.8653 6.77379 13.6951 5.3837 16.9491 5.3837 19.1157 5.3837 21.0007 5.9752 22.6047 7.15784 24.2084 8.34846 25.5537 10.3837 26.641 13.264L27.7513 12.5495C27.2503 9.26237 25.7814 6.26679 23.3448 3.56351 20.9162 0.85987 17.8702-0.492131 14.2078-0.492131 10.2294-0.492131 6.82496 1.05172 3.9955 4.13941 1.16567 7.22711-0.24924 11.3745-0.24924 16.582-0.24924 22.2192 1.20029 26.6164 4.09935 29.773 7.00643 32.9296 10.6496 34.5083 15.0291 34.5083 18.7455 34.5083 21.7951 33.2908 24.1774 30.8559 26.5601 28.4214 27.7513 25.1611 27.7513 21.075L4.8744 21.075ZM4.8744 23.1719 20.199 23.1719C20.0832 25.2836 19.8325 26.7698 19.4473 27.6304 18.8457 28.9745 17.9475 30.0305 16.7523 30.7986 15.5571 31.5664 14.308 31.9504 13.005 31.9504 11.0081 31.9504 9.21935 31.1747 7.63864 29.6233 6.06558 28.0794 5.14441 25.9288 4.8744 23.1719Z" fill-rule="evenodd" transform="matrix(1 0 0 -1 1374 822)"/><path d="M4.70277 21.075C4.68063 16.1823 5.83278 12.3421 8.15992 9.55431 10.4797 6.77379 13.2084 5.3837 16.3462 5.3837 18.4355 5.3837 20.2531 5.9752 21.7999 7.15784 23.3462 8.34846 24.6435 10.3837 25.692 13.264L26.7626 12.5495C26.2795 9.26237 24.8631 6.26679 22.5135 3.56351 20.1716 0.85987 17.2345-0.492131 13.7028-0.492131 9.86654-0.492131 6.58402 1.05172 3.85526 4.13941 1.1265 7.22711-0.237879 11.3745-0.237879 16.582-0.237879 22.2192 1.15988 26.6164 3.9554 29.773 6.75865 32.9296 10.2717 34.5083 14.4948 34.5083 18.0785 34.5083 21.0191 33.2908 23.3164 30.8559 25.614 28.4214 26.7626 25.1611 26.7626 21.075L4.70277 21.075ZM4.70277 23.1719 19.4801 23.1719C19.3684 25.2836 19.127 26.7698 18.7552 27.6304 18.1751 28.9745 17.309 30.0305 16.1565 30.7986 15.004 31.5664 13.7998 31.9504 12.5429 31.9504 10.6174 31.9504 8.89253 31.1747 7.36828 29.6233 5.85141 28.0794 4.96314 25.9288 4.70277 23.1719Z" fill-rule="evenodd" transform="matrix(1 0 0 -1 1407 822)"/><path d="M11.1421 26.5004C15.0018 31.1614 18.6777 33.4919 22.1698 33.4919 23.9616 33.4919 25.5048 33.042 26.7989 32.142 28.0931 31.2424 29.1231 29.7577 29.8889 27.6887 30.4097 26.2429 30.6703 24.0315 30.6703 21.0549L30.6703 6.95632C30.6703 4.86441 30.8386 3.44511 31.1755 2.69914 31.4437 2.09917 31.8686 1.62994 32.4505 1.29183 33.0404 0.96097 34.124 0.795724 35.7015 0.795724L35.7015-0.508087 19.4359-0.508087 19.4359 0.795724 20.125 0.795724C21.6566 0.795724 22.7249 1.02634 23.3301 1.48794 23.9424 1.9568 24.3676 2.64939 24.6051 3.5646 24.7046 3.92596 24.7542 5.05653 24.7542 6.95632L24.7542 20.4782C24.7542 23.4777 24.3637 25.6582 23.5827 27.0197 22.8093 28.3809 21.4995 29.0619 19.6542 29.0619 16.8052 29.0619 13.9678 27.4966 11.1421 24.366L11.1421 6.95632C11.1421 4.71805 11.2763 3.33761 11.5441 2.81463 11.8811 2.11479 12.3407 1.60307 12.9227 1.2802 13.5122 0.956975 14.7032 0.795724 16.4951 0.795724L16.4951-0.508087 0.22945-0.508087 0.22945 0.795724 0.953266 0.795724C2.63035 0.795724 3.75986 1.21846 4.34181 2.06467 4.93136 2.9185 5.22632 4.54917 5.22632 6.95632L5.22632 19.2089C5.22632 23.1777 5.13439 25.5928 4.95054 26.4543 4.77466 27.3234 4.49888 27.9117 4.12358 28.2197 3.75588 28.5349 3.26224 28.6925 2.64193 28.6925 1.96806 28.6925 1.1639 28.5117 0.22945 28.1503L-0.298936 29.4541 9.60287 33.4919 11.1421 33.4919 11.1421 26.5004Z" fill-rule="evenodd" transform="matrix(1 0 0 -1 1437 821)"/><path d="M1600.25 808.534C1603.83 808.534 1607.27 807.111 1609.8 804.58 1612.33 802.048 1613.75 798.614 1613.75 795.034 1613.75 791.453 1612.33 788.019 1609.8 785.487 1607.27 782.956 1603.83 781.533 1600.25 781.533 1596.67 781.533 1593.24 782.956 1590.71 785.487 1588.18 788.019 1586.75 791.453 1586.75 795.034 1586.75 798.614 1588.18 802.048 1590.71 804.58 1593.24 807.111 1596.67 808.534 1600.25 808.534Z" stroke="#FF0000" stroke-width="4.58189" stroke-linejoin="round" stroke-miterlimit="10" fill="#FF0000" fill-rule="evenodd"/><path d="M48.4626-0.721624 35.3177-0.721624 18.6397 21.7154C17.4075 21.6701 16.4042 21.6477 15.6294 21.6477 15.3119 21.6477 14.9706 21.6512 14.6066 21.6591 14.2504 21.674 13.8783 21.6929 13.4909 21.7154L13.4909 7.77315C13.4909 4.75295 13.8278 2.87651 14.5019 2.14419 15.4239 1.10953 16.8033 0.592202 18.6397 0.592202L20.569 0.592202 20.569-0.721624-0.537176-0.721624-0.537176 0.592202 1.32225 0.592202C3.40651 0.592202 4.89427 1.25286 5.78517 2.57453 6.29671 3.30685 6.5523 5.0396 6.5523 7.77315L6.5523 38.7841C6.5523 41.8043 6.21139 43.6768 5.52958 44.4016 4.58412 45.4438 3.18168 45.9647 1.32225 45.9647L-0.537176 45.9647-0.537176 47.2785 17.4075 47.2785C22.6375 47.2785 26.4926 46.9049 28.972 46.1572 31.459 45.4174 33.5667 44.0508 35.2943 42.0574 37.03 40.064 37.8978 37.6853 37.8978 34.9218 37.8978 31.9693 36.9099 29.4058 34.9344 27.2313 32.9585 25.0643 29.9017 23.5355 25.7643 22.6442L35.9337 8.87163C38.2581 5.7081 40.2534 3.60491 41.9191 2.56312 43.5929 1.52846 45.7742 0.871725 48.4626 0.592202L48.4626-0.721624ZM13.4909 23.9469C13.9479 23.9469 14.347 23.9391 14.6879 23.9241 15.0288 23.9166 15.3079 23.9127 15.5246 23.9127 20.2201 23.9127 23.7613 24.9021 26.1477 26.8801 28.534 28.866 29.7274 31.3917 29.7274 34.4576 29.7274 37.4553 28.7625 39.8904 26.8335 41.7629 24.9118 43.6429 22.3626 44.5831 19.186 44.5831 17.7836 44.5831 15.885 44.3603 13.4909 43.9146L13.4909 23.9469Z" fill-rule="evenodd" transform="matrix(1 0 0 -1 1677 820)"/><path d="M4.87215 21.0831C4.84883 16.1905 6.044 12.3503 8.4573 9.56219 10.863 6.78206 13.6927 5.39163 16.9463 5.39163 19.1129 5.39163 20.9982 5.98312 22.6019 7.16611 24.2059 8.35635 25.5512 10.3916 26.6385 13.2718L27.7488 12.5577C27.2474 9.27025 25.7786 6.27506 23.3423 3.57145 20.9133 0.867839 17.8678-0.483785 14.2054-0.483785 10.2267-0.483785 6.82269 1.06005 3.9929 4.14771 1.16347 7.23502-0.251424 11.3824-0.251424 16.5898-0.251424 22.2273 1.19809 26.6245 4.09711 29.7811 7.00379 32.9376 10.6472 34.5159 15.0267 34.5159 18.7431 34.5159 21.7926 33.2985 24.1749 30.864 26.5572 28.4294 27.7488 25.1688 27.7488 21.0831L4.87215 21.0831ZM4.87215 23.1796 20.1962 23.1796C20.0807 25.2917 19.83 26.7779 19.4445 27.6381 18.8433 28.9821 17.9451 30.0382 16.7499 30.8063 15.5547 31.5744 14.3056 31.9585 13.0026 31.9585 11.0054 31.9585 9.21704 31.1827 7.63635 29.6313 6.06331 28.0875 5.14179 25.9369 4.87215 23.1796Z" fill-rule="evenodd" transform="matrix(1 0 0 -1 1728 821)"/><path d="M22.408 3.95212C20.8302 2.27693 19.2867 1.07201 17.7771 0.337711 16.2675-0.389 14.637-0.752355 12.8859-0.752355 9.35335-0.752355 6.26637 0.746937 3.62455 3.74552 0.982742 6.75169-0.338163 10.6106-0.338163 15.3227-0.338163 20.0272 1.12222 24.3336 4.04333 28.2424 6.97194 32.1512 10.7345 34.1056 15.3315 34.1056 18.1845 34.1056 20.5434 33.1842 22.408 31.3403L22.408 37.4101C22.408 41.1585 22.3173 43.4607 22.1361 44.3174 21.9624 45.1818 21.687 45.7669 21.3096 46.0732 20.9322 46.3867 20.4603 46.5434 19.8942 46.5434 19.2828 46.5434 18.4677 46.3524 17.4486 45.9699L16.9959 47.2319 26.6535 51.2479 28.2498 51.2479 28.2498 13.269C28.2498 9.42123 28.3369 7.07315 28.5102 6.22399 28.684 5.37484 28.9672 4.78213 29.3596 4.4455 29.7519 4.11646 30.205 3.95212 30.7183 3.95212 31.36 3.95212 32.209 4.15475 33.2656 4.56L33.6619 3.30957 24.0381-0.752355 22.408-0.752355 22.408 3.95212ZM22.408 6.46491 22.408 23.3891C22.2642 25.0105 21.8379 26.4906 21.1284 27.8295 20.4264 29.1681 19.4904 30.1776 18.3204 30.8585 17.1507 31.5393 16.0107 31.8799 14.9013 31.8799 12.8256 31.8799 10.976 30.935 9.35335 29.0457 7.20238 26.5596 6.12653 22.9264 6.12653 18.1454 6.12653 13.3185 7.16457 9.62025 9.24028 7.05003 11.316 4.47982 13.6293 3.19471 16.1805 3.19471 18.3243 3.19471 20.4 4.28478 22.408 6.46491Z" fill-rule="evenodd" transform="matrix(1 0 0 -1 1760 821)"/><path d="M1224.25 943.543C1227.83 943.543 1231.27 942.068 1233.8 939.443 1236.33 936.817 1237.75 933.256 1237.75 929.543 1237.75 925.831 1236.33 922.269 1233.8 919.644 1231.27 917.018 1227.83 915.543 1224.25 915.543 1220.67 915.543 1217.24 917.018 1214.71 919.644 1212.18 922.269 1210.75 925.831 1210.75 929.543 1210.75 933.256 1212.18 936.817 1214.71 939.443 1217.24 942.068 1220.67 943.543 1224.25 943.543Z" stroke="#008080" stroke-width="4.58189" stroke-linejoin="round" stroke-miterlimit="10" fill="#008080" fill-rule="evenodd"/><path d="M39.038 48.2719 39.5668 36.7791 38.2282 36.7791C37.9731 38.7987 37.6243 40.244 37.182 41.1149 36.4545 42.51 35.4873 43.5393 34.2799 44.2021 33.0724 44.8648 31.4826 45.1964 29.5104 45.1964L22.7949 45.1964 22.7949 7.75821C22.7949 4.75225 23.1139 2.8753 23.7511 2.12772 24.6434 1.11773 26.0121 0.612912 27.8568 0.612912L29.5104 0.612912 29.5104-0.728287 9.29658-0.728287 9.29658 0.612912 10.9839 0.612912C13.0011 0.612912 14.4336 1.23711 15.2809 2.48586 15.7909 3.25673 16.0457 5.0143 16.0457 7.75821L16.0457 45.1964 10.3204 45.1964C8.09304 45.1964 6.51065 45.0268 5.57327 44.6876 4.35839 44.233 3.3161 43.354 2.44606 42.0514 1.57636 40.7488 1.06249 38.9912 0.905133 36.7791L-0.433429 36.7791 0.129001 48.2719 39.038 48.2719Z" fill-rule="evenodd" transform="matrix(1 0 0 -1 1297 955)"/><path d="M4.6975 21.0913C4.67501 16.199 5.82751 12.3588 8.15465 9.57063 10.4744 6.7901 13.2032 5.40002 16.3406 5.40002 18.4298 5.40002 20.2478 5.99152 21.7942 7.17416 23.341 8.36478 24.6382 10.4 25.6867 13.2803L26.7574 12.5658C26.2739 9.27869 24.8575 6.28347 22.5082 3.57983 20.166 0.876189 17.2292-0.475449 13.6976-0.475449 9.86092-0.475449 6.5784 1.0684 3.84964 4.15573 1.12123 7.24343-0.24315 11.3908-0.24315 16.5983-0.24315 22.2358 1.15461 26.6327 3.95013 29.7893 6.75303 32.9463 10.2664 34.5246 14.4895 34.5246 18.0732 34.5246 21.0138 33.3072 23.3111 30.8726 25.6084 28.4377 26.7574 25.1774 26.7574 21.0913L4.6975 21.0913ZM4.6975 23.1882 19.4745 23.1882C19.3631 25.3003 19.1213 26.7865 18.7496 27.6467 18.1698 28.9908 17.3037 30.0468 16.1512 30.815 14.9987 31.5831 13.7942 31.9671 12.5377 31.9671 10.6118 31.9671 8.88726 31.1914 7.36301 29.6399 5.84614 28.0961 4.95751 25.9455 4.6975 23.1882Z" fill-rule="evenodd" transform="matrix(1 0 0 -1 1337 956)"/><path d="M18.1143 4.86722C14.7222 2.29582 12.5952 0.810372 11.7336 0.410883 10.4337-0.177313 9.04897-0.471412 7.57995-0.471412 5.3028-0.471412 3.42227 0.293742 1.93761 1.82441 0.460592 3.35543-0.277736 5.36854-0.277736 7.86446-0.277736 9.44817 0.0836118 10.8165 0.806672 11.9704 1.79147 13.5688 3.50297 15.0731 5.94152 16.4834 8.37972 17.9008 12.4374 19.6241 18.1143 21.6525L18.1143 22.9194C18.1143 26.1541 17.5916 28.3709 16.5453 29.57 15.4991 30.7689 13.9799 31.3685 11.9874 31.3685 10.4722 31.3685 9.26818 30.9686 8.37608 30.1693 7.46071 29.3699 7.00303 28.4503 7.00303 27.4095L7.08373 25.3622C7.08373 24.2766 6.79909 23.4396 6.2298 22.8514 5.66815 22.2632 4.92982 21.9691 4.01446 21.9691 3.12199 21.9691 2.3953 22.2746 1.83364 22.8852 1.27199 23.5036 0.991345 24.3407 0.991345 25.3964 0.991345 27.4245 2.04922 29.2873 4.16459 30.9839 6.27997 32.6805 9.24528 33.5286 13.0605 33.5286 15.9989 33.5286 18.403 33.0462 20.2722 32.0809 21.6951 31.3496 22.7413 30.207 23.4106 28.6539 23.849 27.636 24.0682 25.5623 24.0682 22.433L24.0682 11.4389C24.0682 8.34726 24.126 6.45449 24.2412 5.76055 24.3645 5.06696 24.5644 4.60338 24.8414 4.36946 25.1184 4.13589 25.4376 4.01875 25.799 4.01875 26.1836 4.01875 26.5184 4.09815 26.803 4.25624 27.3105 4.56564 28.2837 5.42907 29.7222 6.84651L29.7222 4.86722C27.0299 1.33056 24.4568-0.437587 22.003-0.437587 20.8259-0.437587 19.8876-0.0380975 19.1874 0.761237 18.4953 1.56057 18.1376 2.92923 18.1143 4.86722ZM18.1143 7.16339 18.1143 19.492C14.4837 18.0821 12.1412 17.083 11.0876 16.4948 9.18748 15.454 7.82606 14.3681 7.00303 13.2373 6.18763 12.1061 5.77975 10.8695 5.77975 9.52722 5.77975 7.83063 6.29524 6.42067 7.32584 5.29697 8.36445 4.18111 9.55682 3.62282 10.903 3.62282 12.7261 3.62282 15.1297 4.80313 18.1143 7.16339Z" fill-rule="evenodd" transform="matrix(1 0 0 -1 1369 955)"/><path d="M11.539 50.2398 11.539 6.6648C11.539 4.60673 11.6909 3.24118 11.9944 2.5678 12.306 1.90237 12.7768 1.39734 13.4073 1.05306 14.0378 0.708783 15.2168 0.536464 16.945 0.536464L16.945-0.760081 0.563559-0.760081 0.563559 0.536464C2.09716 0.536464 3.14004 0.689637 3.69293 0.99562 4.25318 1.30919 4.69314 1.82181 5.01207 2.53348 5.33137 3.25274 5.49102 4.62985 5.49102 6.6648L5.49102 36.5027C5.49102 40.2059 5.40531 42.4818 5.23389 43.3311 5.06283 44.1805 4.78657 44.7577 4.4051 45.0641 4.03136 45.3777 3.55278 45.5344 2.96898 45.5344 2.33848 45.5344 1.53654 45.3433 0.563559 44.9608L-0.0551787 46.223 9.90458 50.2398 11.539 50.2398Z" fill-rule="evenodd" transform="matrix(1 0 0 -1 1401 955)"/><path d="M1600.25 942.552C1603.83 942.552 1607.27 941.077 1609.8 938.451 1612.33 935.826 1613.75 932.265 1613.75 928.552 1613.75 924.839 1612.33 921.277 1609.8 918.652 1607.27 916.027 1603.83 914.551 1600.25 914.551 1596.67 914.551 1593.24 916.027 1590.71 918.652 1588.18 921.277 1586.75 924.839 1586.75 928.552 1586.75 932.265 1588.18 935.826 1590.71 938.451 1593.24 941.077 1596.67 942.552 1600.25 942.552Z" stroke="#800080" stroke-width="4.58189" stroke-linejoin="round" stroke-miterlimit="10" fill="#800080" fill-rule="evenodd"/><path d="M13.484 22.2191 13.484 7.95147C13.484 4.86835 13.8163 2.95282 14.4811 2.20524 15.3904 1.14903 16.762 0.621283 18.5961 0.621283L20.4642 0.621283 20.4642-0.719916-0.351013-0.719916-0.351013 0.621283 1.48314 0.621283C3.53108 0.621283 4.99797 1.2957 5.88453 2.64455 6.36591 3.39212 6.60678 5.16134 6.60678 7.95147L6.60678 39.6085C6.60678 42.6916 6.28177 44.6035 5.63246 45.3434 4.70004 46.4069 3.31693 46.9391 1.48314 46.9391L-0.351013 46.9391-0.351013 48.2803 17.4499 48.2803C21.7979 48.2803 25.2249 47.8253 27.7315 46.9158 30.2377 46.0139 32.3506 44.4914 34.07 42.3488 35.7893 40.2058 36.6491 37.666 36.6491 34.7292 36.6491 30.7289 35.3422 27.4762 32.7287 24.9711 30.1156 22.4659 26.421 21.2131 21.6451 21.2131 20.4758 21.2131 19.2111 21.2979 17.8511 21.4676 16.4908 21.6372 15.0351 21.8876 13.484 22.2191ZM13.484 24.2886C14.7447 24.0422 15.8642 23.857 16.8425 23.7339 17.8204 23.6182 18.6572 23.5603 19.3527 23.5603 21.8361 23.5603 23.9794 24.5277 25.7829 26.4626 27.5863 28.405 28.4881 30.9178 28.4881 34.0009 28.4881 36.1207 28.0562 38.09 27.1927 39.9091 26.3368 41.7282 25.118 43.0887 23.5363 43.9906 21.9622 44.8925 20.1739 45.3434 18.1718 45.3434 16.957 45.3434 15.3944 45.116 13.484 44.661L13.484 24.2886Z" fill-rule="evenodd" transform="matrix(1 0 0 -1 1677 954)"/><path d="M31.0928 33.5485 31.0928 13.5587C31.0928 9.74103 31.1818 7.40606 31.36 6.55338 31.5459 5.70107 31.8362 5.10554 32.2315 4.76787 32.6341 4.43747 33.1026 4.27245 33.6369 4.27245 34.3883 4.27245 35.2364 4.47591 36.181 4.88285L36.6923 3.62723 26.7363-0.451545 25.1101-0.451545 25.1101 6.54214C22.2523 3.46946 20.0721 1.53416 18.5696 0.735165 17.0748-0.0558537 15.4911-0.451545 13.8181-0.451545 11.9519-0.451545 10.333 0.0823298 8.96235 1.15008 7.59935 2.22544 6.65067 3.60002 6.1163 5.27455 5.58962 6.95669 5.3261 9.3341 5.3261 12.4064L5.3261 27.1311C5.3261 28.6903 5.15591 29.7697 4.81516 30.3688 4.47441 30.9756 3.97078 31.4402 3.30502 31.7626 2.63889 32.0854 1.43437 32.2352-0.308176 32.212L-0.308176 33.5485 11.3439 33.5485 11.3439 11.4732C11.3439 8.4009 11.882 6.38473 12.9588 5.42434 14.0429 4.46431 15.344 3.98411 16.8618 3.98411 17.9075 3.98411 19.0886 4.3069 20.4051 4.95212 21.7216 5.60495 23.29 6.84172 25.1101 8.66204L25.1101 27.3502C25.1101 29.2242 24.7653 30.4918 24.0761 31.1522 23.387 31.8127 21.9504 32.1659 19.7661 32.212L19.7661 33.5485 31.0928 33.5485Z" fill-rule="evenodd" transform="matrix(1 0 0 -1 1717 955)"/><path d="M11.5696 33.5166 11.5696 26.0867C14.3775 31.0401 17.2593 33.5166 20.2159 33.5166 21.5609 33.5166 22.6716 33.1128 23.5475 32.3051 24.4313 31.5054 24.873 30.5745 24.873 29.5133 24.873 28.5749 24.5525 27.7788 23.9112 27.1251 23.2777 26.479 22.523 26.1557 21.647 26.1557 20.7943 26.1557 19.8363 26.5712 18.7729 27.4018 17.7092 28.2328 16.9193 28.6479 16.403 28.6479 15.965 28.6479 15.4878 28.4096 14.9718 27.9328 13.8767 26.9406 12.7427 25.3175 11.5696 23.064L11.5696 7.23488C11.5696 5.40446 11.8002 4.02002 12.2618 3.08157 12.5823 2.43547 13.1456 1.89688 13.951 1.46615 14.7567 1.03542 15.918 0.820057 17.4353 0.820057L17.4353-0.48339 0.236921-0.48339 0.236921 0.820057C1.9497 0.820057 3.22079 1.08191 4.04983 1.60489 4.65968 1.98949 5.08584 2.60472 5.32831 3.45056 5.45361 3.85841 5.51607 5.02348 5.51607 6.94651L5.51607 19.7413C5.51607 23.587 5.43402 25.8754 5.26991 26.6057 5.1132 27.3444 4.8201 27.8787 4.38987 28.2095 3.96777 28.548 3.4396 28.7172 2.80609 28.7172 2.04764 28.7172 1.19126 28.5364 0.236921 28.175L-0.126777 29.4785 10.0209 33.5166 11.5696 33.5166Z" fill-rule="evenodd" transform="matrix(1 0 0 -1 1754 954)"/><path d="M-0.0720559 44.5807 9.90269 48.6224 11.25 48.6224 11.25 41.0383C12.9258 43.8995 14.6052 45.9013 16.2886 47.0442 17.9794 48.1946 19.7529 48.77 21.61 48.77 24.8707 48.77 27.5842 47.4909 29.7505 44.9324 32.4148 41.8142 33.7471 37.7461 33.7471 32.728 33.7471 27.127 32.143 22.491 28.9354 18.8203 26.2936 15.8154 22.9687 14.313 18.9603 14.313 17.2171 14.313 15.7075 14.5628 14.4315 15.0624 13.4884 15.418 12.4275 16.1296 11.25 17.1967L11.25 7.29676C11.25 5.07131 11.3859 3.65999 11.6577 3.06173 11.9295 2.45632 12.4011 1.97563 13.0731 1.62003 13.7448 1.26443 14.9637 1.08645 16.7302 1.08645L16.7302-0.230514-0.253266-0.230514-0.253266 1.08645 0.629954 1.08645C1.92839 1.06358 3.03776 1.30982 3.95879 1.82446 4.40397 2.08928 4.75141 2.51314 5.00039 3.09604 5.24938 3.67107 5.37387 5.13957 5.37387 7.50082L5.37387 38.2343C5.37387 40.3382 5.2797 41.6741 5.091 42.242 4.9023 42.8095 4.60016 43.2334 4.18531 43.5132 3.77758 43.8009 3.21897 43.9449 2.50947 43.9449 1.94337 43.9449 1.22245 43.7784 0.347081 43.4453L-0.0720559 44.5807ZM11.25 38.938 11.25 26.8129C11.25 24.1865 11.3559 22.4571 11.5671 21.6244 11.8992 20.2545 12.7068 19.0473 13.9903 18.0026 15.2734 16.9658 16.896 16.4473 18.8587 16.4473 21.2137 16.4473 23.1232 17.3708 24.5875 19.2174 26.4973 21.6319 27.4522 25.0267 27.4522 29.4015 27.4522 34.3663 26.3689 38.1849 24.2026 40.8568 22.693 42.7037 20.9005 43.6269 18.8248 43.6269 17.6926 43.6269 16.5714 43.3431 15.4621 42.7756 14.6092 42.3517 13.2051 41.0723 11.25 38.938Z" fill-rule="evenodd" transform="matrix(1 0 0 -1 1778 969)"/><path d="M11.5419 50.2477 11.5419 6.67311C11.5419 4.61504 11.6935 3.24949 11.997 2.57611 12.3085 1.91032 12.7794 1.40564 13.4099 1.06137 14.0404 0.717092 15.2198 0.544773 16.9476 0.544773L16.9476-0.752134 0.566502-0.752134 0.566502 0.544773C2.09974 0.544773 3.14298 0.697945 3.6955 1.00393 4.25612 1.3175 4.69571 1.83012 5.01501 2.54179 5.33395 3.26069 5.4936 4.6378 5.4936 6.67311L5.4936 36.511C5.4936 40.2139 5.40789 42.4901 5.23683 43.3391 5.06541 44.1884 4.78915 44.766 4.40768 45.072 4.0343 45.386 3.55535 45.5427 2.97156 45.5427 2.34105 45.5427 1.53949 45.3513 0.566502 44.9687L-0.0522359 46.2313 9.90716 50.2477 11.5419 50.2477Z" fill-rule="evenodd" transform="matrix(1 0 0 -1 1817 954)"/><path d="M4.8809 21.0996C4.85758 16.207 6.05275 12.3667 8.46605 9.57861 10.8717 6.79845 13.7015 5.40837 16.9551 5.40837 19.1217 5.40837 21.007 5.9995 22.6106 7.1825 24.2146 8.37276 25.5599 10.4084 26.6473 13.2886L27.7575 12.5742C27.2561 9.28703 25.7873 6.29145 23.3511 3.58781 20.9221 0.884531 17.8766-0.46747 14.2142-0.46747 10.2355-0.46747 6.83143 1.07638 4.00164 4.16408 1.17222 7.25141-0.242678 11.3992-0.242678 16.6066-0.242678 22.2438 1.20683 26.6411 4.10586 29.7977 7.01253 32.9543 10.656 34.5326 15.0355 34.5326 18.7518 34.5326 21.8013 33.3155 24.1837 30.8806 26.566 28.4461 27.7575 25.1857 27.7575 21.0996L4.8809 21.0996ZM4.8809 23.1962 20.205 23.1962C20.0895 25.3083 19.8388 26.7945 19.4533 27.6547 18.852 28.9991 17.9538 30.0548 16.7587 30.8229 15.5635 31.5911 14.3144 31.9751 13.0113 31.9751 11.0142 31.9751 9.22579 31.1994 7.6451 29.6479 6.07206 28.1041 5.15054 25.9535 4.8809 23.1962Z" fill-rule="evenodd" transform="matrix(1 0 0 -1 1838 955)"/><path d="M1224.25 1073.56C1227.83 1073.56 1231.27 1072.14 1233.8 1069.6 1236.33 1067.07 1237.75 1063.64 1237.75 1060.06 1237.75 1056.48 1236.33 1053.04 1233.8 1050.51 1231.27 1047.98 1227.83 1046.56 1224.25 1046.56 1220.67 1046.56 1217.24 1047.98 1214.71 1050.51 1212.18 1053.04 1210.75 1056.48 1210.75 1060.06 1210.75 1063.64 1212.18 1067.07 1214.71 1069.6 1217.24 1072.14 1220.67 1073.56 1224.25 1073.56Z" stroke="#FFA500" stroke-width="4.58189" stroke-linejoin="round" stroke-miterlimit="10" fill="#FFA500" fill-rule="evenodd"/><path d="M23.4114 49.3054C29.6403 49.3054 35.035 46.9468 39.5955 42.2303 44.1631 37.5209 46.447 31.6418 46.447 24.593 46.447 17.3261 44.1445 11.2929 39.5387 6.49361 34.9404 1.70146 29.3763-0.694437 22.8451-0.694437 16.2387-0.694437 10.6852 1.64498 6.1854 6.32417 1.69309 11.0034-0.553064 17.0555-0.553064 24.4804-0.553064 32.0784 2.0442 38.2733 7.23872 43.0651 11.7385 47.2253 17.1296 49.3054 23.4114 49.3054ZM22.732 46.7326C18.4431 46.7326 15.0002 45.1452 12.4033 41.9706 9.17159 38.0211 7.55593 32.24 7.55593 24.6271 7.55593 16.8185 9.22832 10.8116 12.5731 6.60621 15.1475 3.40896 18.5451 1.81051 22.7659 1.81051 27.2732 1.81051 30.9955 3.55957 33.9328 7.05768 36.8697 10.5633 38.338 16.0886 38.338 23.634 38.338 31.8187 36.7224 37.9198 33.4911 41.9369 30.9013 45.1338 27.3149 46.7326 22.732 46.7326Z" fill-rule="evenodd" transform="matrix(1 0 0 -1 1299 1086)"/><path d="M11.5679 33.525 11.5679 26.0951C14.3755 31.0481 17.2577 33.525 20.2139 33.525 21.5593 33.525 22.6697 33.1211 23.5457 32.3134 24.4294 31.5137 24.8715 30.5829 24.8715 29.5213 24.8715 28.5832 24.551 27.7871 23.9094 27.1334 23.2758 26.4873 22.5215 26.1641 21.6455 26.1641 20.7928 26.1641 19.8347 26.5796 18.771 27.4102 17.7072 28.2408 16.9173 28.6562 16.4013 28.6562 15.9634 28.6562 15.4862 28.4176 14.9698 27.9408 13.875 26.9486 12.741 25.3259 11.5679 23.072L11.5679 7.24323C11.5679 5.41245 11.7985 4.02801 12.2598 3.08956 12.5806 2.44346 13.1436 1.90523 13.9493 1.4745 14.7551 1.04377 15.9164 0.82841 17.4337 0.82841L17.4337-0.4754 0.235076-0.4754 0.235076 0.82841C1.94788 0.82841 3.21862 1.0899 4.04767 1.61288 4.6579 1.99748 5.08407 2.61271 5.32654 3.45891 5.45184 3.8664 5.5143 5.03184 5.5143 6.95487L5.5143 19.7493C5.5143 23.595 5.43225 25.8834 5.26777 26.6141 5.11142 27.3524 4.81832 27.887 4.38808 28.2179 3.96561 28.556 3.4378 28.7252 2.80428 28.7252 2.04546 28.7252 1.18906 28.5447 0.235076 28.183L-0.128626 29.4868 10.0192 33.525 11.5679 33.525Z" fill-rule="evenodd" transform="matrix(1 0 0 -1 1349 1085)"/><path d="M18.115 5.02687C14.7226 2.37984 12.5956 0.850701 11.734 0.439462 10.434-0.166035 9.04934-0.468784 7.58032-0.468784 5.30317-0.468784 3.42263 0.319242 1.93798 1.89493 0.460955 3.47061-0.277373 5.54294-0.277373 8.11227-0.277373 9.74256 0.0839753 11.1515 0.807035 12.339 1.79184 13.9847 3.50333 15.5333 5.94189 16.9847 8.38008 18.4442 12.4378 20.2178 18.115 22.3059L18.115 23.61C18.115 26.9398 17.5919 29.2222 16.5457 30.4563 15.4994 31.6904 13.9803 32.3076 11.9881 32.3076 10.4726 32.3076 9.26855 31.8963 8.37644 31.0735 7.46108 30.2507 7.00339 29.3036 7.00339 28.2322L7.0841 26.1251C7.0841 25.0072 6.79945 24.1455 6.23017 23.54 5.66851 22.9345 4.93019 22.6317 4.01482 22.6317 3.12272 22.6317 2.39566 22.9462 1.83401 23.5748 1.27235 24.2114 0.991708 25.0731 0.991708 26.1599 0.991708 28.248 2.04958 30.1653 4.16496 31.9117 6.28033 33.6582 9.24564 34.5317 13.0609 34.5317 15.9997 34.5317 18.4033 34.0346 20.2726 33.041 21.6954 32.2882 22.7417 31.112 23.4109 29.5132 23.8493 28.4653 24.0686 26.3307 24.0686 23.1093L24.0686 11.7918C24.0686 8.60927 24.1264 6.66083 24.242 5.94684 24.3648 5.23249 24.5648 4.75528 24.8418 4.51447 25.1188 4.27403 25.438 4.15381 25.7993 4.15381 26.1839 4.15381 26.5187 4.23518 26.8034 4.39828 27.3109 4.71642 28.284 5.60524 29.7225 7.06437L29.7225 5.02687C27.0302 1.38656 24.4572-0.433964 22.0033-0.433964 20.8262-0.433964 19.888-0.0223579 19.1878 0.800487 18.4956 1.62297 18.1379 3.03188 18.115 5.02687ZM18.115 7.39058 18.115 20.0818C14.4841 18.6304 12.1419 17.6019 11.088 16.9964 9.18784 15.9251 7.82643 14.8076 7.00339 13.6431 6.188 12.4787 5.78012 11.2057 5.78012 9.82393 5.78012 8.07745 6.2956 6.62601 7.32657 5.46926 8.36481 4.32058 9.55719 3.74624 10.9033 3.74624 12.7264 3.74624 15.1301 4.9609 18.115 7.39058Z" fill-rule="evenodd" transform="matrix(1 0 0 -1 1376 1086)"/><path d="M11.1395 26.5334C14.9993 31.1945 18.6752 33.525 22.1672 33.525 23.959 33.525 25.5022 33.075 26.7964 32.1751 28.0906 31.2751 29.1206 29.7908 29.8864 27.7218 30.4072 26.2756 30.6674 24.0642 30.6674 21.0876L30.6674 6.98937C30.6674 4.8971 30.836 3.47816 31.173 2.73219 31.4411 2.13222 31.866 1.66299 32.448 1.32451 33.0375 0.993656 34.1214 0.82841 35.699 0.82841L35.699-0.4754 19.4334-0.4754 19.4334 0.82841 20.1225 0.82841C21.6541 0.82841 22.7224 1.05903 23.3275 1.52063 23.9399 1.98985 24.3651 2.68207 24.6025 3.59728 24.702 3.95901 24.7516 5.08958 24.7516 6.98937L24.7516 20.5109C24.7516 23.5107 24.3611 25.6912 23.5801 27.0524 22.8067 28.414 21.497 29.0946 19.6516 29.0946 16.8027 29.0946 13.9653 27.5293 11.1395 24.399L11.1395 6.98937C11.1395 4.7511 11.2738 3.3703 11.5416 2.84732 11.8786 2.14747 12.3382 1.63612 12.9201 1.31289 13.5097 0.990024 14.7007 0.82841 16.4925 0.82841L16.4925-0.4754 0.226916-0.4754 0.226916 0.82841 0.950733 0.82841C2.62782 0.82841 3.75733 1.25151 4.33928 2.09735 4.92883 2.95119 5.22378 4.58186 5.22378 6.98937L5.22378 19.2419C5.22378 23.2107 5.13186 25.6259 4.94801 26.4873 4.77212 27.3564 4.49635 27.9448 4.12105 28.2524 3.75335 28.5676 3.25935 28.7252 2.6394 28.7252 1.96516 28.7252 1.16136 28.5447 0.226916 28.183L-0.30147 29.4868 9.60034 33.525 11.1395 33.525 11.1395 26.5334Z" fill-rule="evenodd" transform="matrix(1 0 0 -1 1406 1085)"/><path d="M8.53212 27.7911C6.53215 28.777 4.99614 30.1516 3.92375 31.9154 2.85925 33.6868 2.32701 35.6434 2.32701 37.7843 2.32701 41.0576 3.54352 43.8724 5.9769 46.2293 8.41819 48.5939 11.5398 49.7762 15.3421 49.7762 18.4525 49.7762 21.1483 49.0059 23.4296 47.4654L30.342 47.4654C31.3688 47.4654 31.9617 47.4345 32.1217 47.3731 32.2888 47.3116 32.4106 47.2112 32.4868 47.0727 32.6234 46.8494 32.692 46.4643 32.692 45.9173 32.692 45.286 32.6349 44.8507 32.5209 44.6121 32.4448 44.4888 32.3193 44.3925 32.1443 44.323 31.9696 44.2539 31.3688 44.2193 30.342 44.2193L26.0988 44.2193C27.4296 42.4861 28.0951 40.2721 28.0951 37.5762 28.0951 34.4956 26.9315 31.8576 24.6045 29.6629 22.2774 27.4754 19.1519 26.3819 15.2281 26.3819 13.6159 26.3819 11.9657 26.6204 10.2773 27.0979 9.22788 26.1891 8.51702 25.3919 8.14434 24.7064 7.77921 24.0213 7.597 23.4358 7.597 22.9507 7.597 22.5423 7.79466 22.1459 8.18998 21.7607 8.5853 21.3756 9.35367 21.0981 10.4943 20.929 11.1556 20.8363 12.8174 20.7516 15.479 20.6748 20.3763 20.5592 23.5475 20.3897 24.9922 20.1664 27.2053 19.8584 28.9695 19.0303 30.2852 17.6826 31.6085 16.3348 32.2697 14.671 32.2697 12.6916 32.2697 9.9732 31.0115 7.4239 28.4941 5.0437 24.7831 1.53176 19.9468-0.224019 13.9847-0.224019 9.39895-0.224019 5.52444 0.823342 2.36115 2.91806 0.581482 4.11962-0.307991 5.37136-0.307991 6.67292-0.307991 7.25043-0.178973 7.82793 0.0797831 8.4058 0.482652 9.29133 1.31534 10.5274 2.57786 12.1141 2.74497 12.3374 3.95789 13.639 6.21661 16.0188 4.9771 16.7661 4.10236 17.4324 3.59311 18.0175 3.08351 18.6107 2.8287 19.2805 2.8287 20.0279 2.8287 20.8672 3.16724 21.8531 3.84396 22.9852 4.52068 24.1173 6.08364 25.7192 8.53212 27.7911ZM14.7261 48.0429C12.9694 48.0429 11.4981 47.3305 10.3118 45.906 9.12546 44.4888 8.53212 42.313 8.53212 39.3786 8.53212 35.5739 9.33821 32.6242 10.9504 30.5291 12.1899 28.9428 13.7604 28.1493 15.6616 28.1493 17.4639 28.1493 18.9467 28.8348 20.11 30.2058 21.2737 31.5768 21.8555 33.733 21.8555 36.6751 21.8555 40.4954 21.0379 43.4913 19.4031 45.6631 18.1862 47.2498 16.6272 48.0429 14.7261 48.0429ZM8.16734 15.73C7.05685 14.5056 6.21661 13.3658 5.64627 12.3105 5.07593 11.2479 4.79058 10.2696 4.79058 9.37606 4.79058 8.22069 5.4788 7.20824 6.85523 6.33762 9.22788 4.85132 12.6614 4.10798 17.1559 4.10798 21.4297 4.10798 24.5818 4.87459 26.612 6.40708 28.65 7.93194 29.6692 9.56117 29.6692 11.294 29.6692 12.5414 29.0608 13.4313 27.8439 13.9626 26.612 14.4939 24.1671 14.806 20.5093 14.8983 15.1635 15.0445 11.0492 15.322 8.16734 15.73Z" fill-rule="evenodd" transform="matrix(1 0 0 -1 1445 1101)"/><path d="M4.88278 21.1076C4.85982 16.2153 6.05465 12.3751 8.46798 9.58695 10.8737 6.80679 13.7035 5.41634 16.9575 5.41634 19.1241 5.41634 21.0091 6.00784 22.6131 7.19048 24.2168 8.3811 25.5621 10.4164 26.6494 13.2966L27.7597 12.5825C27.2587 9.29501 25.7898 6.29979 23.3532 3.59615 20.9245 0.892509 17.8786-0.459129 14.2162-0.459129 10.2378-0.459129 6.83371 1.08472 4.00388 4.17205 1.17405 7.25975-0.24086 11.4071-0.24086 16.6146-0.24086 22.2522 1.20867 26.6491 4.10773 29.806 7.01481 32.9626 10.6579 34.5409 15.0375 34.5409 18.7539 34.5409 21.8034 33.3235 24.1858 30.8889 26.5685 28.454 27.7597 25.1937 27.7597 21.1076L4.88278 21.1076ZM4.88278 23.2045 20.2074 23.2045C20.0915 25.3166 19.8412 26.8028 19.4557 27.6631 18.8541 29.0071 17.9559 30.0632 16.7607 30.8313 15.5655 31.5994 14.3168 31.9834 13.0133 31.9834 11.0165 31.9834 9.22773 31.2077 7.64702 29.6563 6.07396 28.1124 5.15279 25.9618 4.88278 23.2045Z" fill-rule="evenodd" transform="matrix(1 0 0 -1 1482 1086)"/><path d="M1600.25 1073.57C1603.83 1073.57 1607.27 1072.14 1609.8 1069.61 1612.33 1067.08 1613.75 1063.65 1613.75 1060.07 1613.75 1056.49 1612.33 1053.05 1609.8 1050.52 1607.27 1047.99 1603.83 1046.57 1600.25 1046.57 1596.67 1046.57 1593.24 1047.99 1590.71 1050.52 1588.18 1053.05 1586.75 1056.49 1586.75 1060.07 1586.75 1063.65 1588.18 1067.08 1590.71 1069.61 1593.24 1072.14 1596.67 1073.57 1600.25 1073.57Z" stroke="#A52A2A" stroke-width="4.58189" stroke-linejoin="round" stroke-miterlimit="10" fill="#A52A2A" fill-rule="evenodd"/><path d="M32.4282 24.3054C35.821 23.5807 38.3593 22.4244 40.0441 20.8364 42.3752 18.6166 43.5408 15.9033 43.5408 12.6968 43.5408 10.2688 42.7715 7.94092 41.2329 5.71347 39.6943 3.48566 37.5824 1.85948 34.8975 0.8342 32.2206-0.19108 28.1276-0.703538 22.6197-0.703538L-0.459178-0.703538-0.459178 0.637661 1.38699 0.637661C3.42547 0.637661 4.89099 1.28515 5.78353 2.58012 6.3376 3.42779 6.61427 5.22394 6.61427 7.96785L6.61427 39.6249C6.61427 42.6541 6.26452 44.5657 5.5643 45.3598 4.62559 46.4237 3.23315 46.9554 1.38699 46.9554L-0.459178 46.9554-0.459178 48.2966 20.6812 48.2966C24.6196 48.2966 27.7779 48.0076 30.1549 47.4293 33.7628 46.5583 36.5168 45.0206 38.4172 42.8161 40.3175 40.6116 41.2675 38.0759 41.2675 35.2082 41.2675 32.7573 40.5211 30.5604 39.0287 28.6179 37.5362 26.6755 35.336 25.2378 32.4282 24.3054ZM13.5379 26.2478C14.4228 26.0782 15.4343 25.9508 16.5729 25.866 17.7192 25.7889 18.9768 25.7507 20.3463 25.7507 23.862 25.7507 26.5007 26.1281 28.2625 26.8837 30.032 27.6389 31.3859 28.7992 32.3242 30.3639 33.2629 31.9362 33.7323 33.6475 33.7323 35.4972 33.7323 38.3648 32.5667 40.8081 30.2356 42.8277 27.9048 44.855 24.5008 45.8686 20.0231 45.8686 17.6229 45.8686 15.4615 45.6026 13.5379 45.0708L13.5379 26.2478ZM13.5379 2.83453C16.3228 2.18705 19.0732 1.86312 21.789 1.86312 26.143 1.86312 29.4626 2.84218 31.7473 4.79993 34.0322 6.76568 35.1746 9.19367 35.1746 12.0843 35.1746 13.9881 34.6554 15.8185 33.6167 17.5761 32.586 19.3336 30.9049 20.7171 28.5741 21.7271 26.2429 22.7443 23.3581 23.2532 19.9195 23.2532 18.4271 23.2532 17.1499 23.2262 16.0883 23.172 15.0343 23.1258 14.1843 23.045 13.5379 22.9292L13.5379 2.83453Z" fill-rule="evenodd" transform="matrix(1 0 0 -1 1675 1085)"/><path d="M11.1048 33.533 11.1048 26.1031C13.8001 31.0565 16.5671 33.533 19.405 33.533 20.6966 33.533 21.7629 33.1291 22.6038 32.3218 23.4522 31.5217 23.8762 30.5912 23.8762 29.5297 23.8762 28.5912 23.5686 27.7951 22.953 27.1414 22.3448 26.4953 21.6202 26.1724 20.7793 26.1724 19.9607 26.1724 19.0409 26.5876 18.0197 27.4185 16.9985 28.2491 16.2403 28.6646 15.7449 28.6646 15.3244 28.6646 14.8664 28.426 14.371 27.9491 13.3196 26.9569 12.231 25.3339 11.1048 23.0803L11.1048 7.25122C11.1048 5.4208 11.3262 4.03636 11.7694 3.09791 12.077 2.45182 12.6178 1.91359 13.391 1.48286 14.1645 1.05213 15.2794 0.836763 16.736 0.836763L16.736-0.467047 0.225318-0.467047 0.225318 0.836763C1.8696 0.836763 3.08951 1.09825 3.8854 1.62123 4.47123 2.00583 4.88035 2.62106 5.11312 3.46726 5.2334 3.87475 5.29337 5.04019 5.29337 6.96286L5.29337 19.7576C5.29337 23.6033 5.2146 25.8917 5.0567 26.6224 4.9066 27.3608 4.62522 27.8954 4.2122 28.2259 3.80663 28.5643 3.29993 28.7336 2.69175 28.7336 1.96328 28.7336 1.14114 28.5527 0.225318 28.1914L-0.123836 29.4952 9.61805 33.533 11.1048 33.533Z" fill-rule="evenodd" transform="matrix(1 0 0 -1 1723 1085)"/><path d="M15.7306 34.5496C20.7511 34.5496 24.7831 32.6506 27.8263 28.8526 30.4063 25.6083 31.6959 21.8833 31.6959 17.6777 31.6959 14.7256 30.9816 11.7351 29.5525 8.70564 28.1315 5.6842 26.1735 3.40079 23.6786 1.85577 21.184 0.318007 18.4033-0.450874 15.3367-0.450874 10.3396-0.450874 6.36926 1.53268 3.42646 5.49979 0.939565 8.84431-0.304063 12.5922-0.304063 16.7437-0.304063 19.7731 0.448976 22.7829 1.95505 25.7735 3.4615 28.7641 5.44648 30.9745 7.91038 32.4045 10.3743 33.8344 12.9813 34.5496 15.7306 34.5496ZM14.6071 32.2084C13.3324 32.2084 12.0464 31.828 10.7488 31.0667 9.45916 30.3134 8.4163 28.9873 7.62055 27.0884 6.82517 25.189 6.4273 22.7521 6.4273 19.7767 6.4273 14.9718 7.38511 10.8239 9.30075 7.33341 11.2237 3.85058 13.7533 2.10916 16.8892 2.10916 19.2297 2.10916 21.1607 3.07044 22.6821 4.99228 24.2038 6.91449 24.9645 10.2202 24.9645 14.9101 24.9645 20.7685 23.6979 25.3814 21.1647 28.7488 19.4498 31.0551 17.2641 32.2084 14.6071 32.2084Z" fill-rule="evenodd" transform="matrix(1 0 0 -1 1749 1086)"/><path d="M-0.553591 33.5652 13.2456 33.5652 13.2456 32.2287C11.9729 32.1286 11.1374 31.8983 10.7389 31.5374 10.3476 31.1838 10.1523 30.6695 10.1523 29.9934 10.1523 29.2481 10.3556 28.3497 10.7617 27.2972L17.8109 8.32111 24.883 23.7716 23.0201 28.6221C22.4451 30.0663 21.6901 31.0648 20.7546 31.6179 20.2256 31.9559 19.2445 32.1594 17.8109 32.2287L17.8109 33.5652 33.4731 33.5652 33.4731 32.2287C31.7482 32.1594 30.5254 31.8482 29.8048 31.2951 29.3295 30.9114 29.0918 30.2966 29.0918 29.4519 29.0918 28.9757 29.1874 28.4839 29.3791 27.9769L36.8537 9.03561 43.7881 27.2972C44.2634 28.5953 44.5011 29.6286 44.5011 30.3967 44.5011 30.8497 44.267 31.257 43.7996 31.6179 43.3395 31.9788 42.4233 32.1826 41.0513 32.2287L41.0513 33.5652 51.4467 33.5652 51.4467 32.2287C49.3613 31.9135 47.828 30.4965 46.8469 27.9769L35.8418-0.435224 34.3701-0.435224 26.1478 20.6379 16.5458-0.435224 15.2234-0.435224 4.65553 27.2972C3.95811 29.0486 3.27191 30.2277 2.59731 30.8345 1.93032 31.4489 0.880022 31.9135-0.553591 32.2287L-0.553591 33.5652Z" fill-rule="evenodd" transform="matrix(1 0 0 -1 1784 1086)"/><path d="M11.1439 26.5414C15.0033 31.2025 18.6792 33.533 22.1712 33.533 23.9634 33.533 25.5062 33.083 26.8008 32.1834 28.0949 31.2835 29.1249 29.7988 29.8907 27.7298 30.4111 26.2839 30.6717 24.0726 30.6717 21.0959L30.6717 6.99736C30.6717 4.90545 30.8404 3.48651 31.1773 2.74018 31.4451 2.14021 31.87 1.67135 32.4523 1.33286 33.0419 1.00201 34.1254 0.836763 35.703 0.836763L35.703-0.467047 19.4374-0.467047 19.4374 0.836763 20.1268 0.836763C21.658 0.836763 22.7264 1.06738 23.3315 1.52898 23.9442 1.99821 24.3691 2.69043 24.6065 3.60563 24.706 3.967 24.756 5.09757 24.756 6.99736L24.756 20.5192C24.756 23.5187 24.3655 25.6992 23.5841 27.0608 22.8107 28.422 21.5013 29.1029 19.6556 29.1029 16.807 29.1029 13.9697 27.5376 11.1439 24.407L11.1439 6.99736C11.1439 4.75945 11.2778 3.37865 11.546 2.85567 11.8829 2.15583 12.3422 1.64411 12.9245 1.32124 13.514 0.998014 14.7047 0.836763 16.4969 0.836763L16.4969-0.467047 0.231259-0.467047 0.231259 0.836763 0.954714 0.836763C2.6318 0.836763 3.76131 1.25987 4.34362 2.10571 4.93317 2.95954 5.22813 4.59021 5.22813 6.99736L5.22813 19.2499C5.22813 23.2187 5.1362 25.6339 4.95235 26.4953 4.7761 27.3644 4.50033 27.9528 4.12539 28.2607 3.75769 28.576 3.26369 28.7336 2.64338 28.7336 1.9695 28.7336 1.16534 28.5527 0.231259 28.1914L-0.297127 29.4952 9.60468 33.533 11.1439 33.533 11.1439 26.5414Z" fill-rule="evenodd" transform="matrix(1 0 0 -1 1837 1085)"/></g></svg>