<?xml version="1.0" encoding="utf-8" standalone="no"?>
<!DOCTYPE svg PUBLIC "-//W3C//DTD SVG 1.1//EN"
  "http://www.w3.org/Graphics/SVG/1.1/DTD/svg11.dtd">
<svg xmlns:xlink="http://www.w3.org/1999/xlink" width="218.968437pt" height="385.288437pt" viewBox="0 0 218.968437 385.288437" xmlns="http://www.w3.org/2000/svg" version="1.1">
 <metadata>
  <rdf:RDF xmlns:dc="http://purl.org/dc/elements/1.1/" xmlns:cc="http://creativecommons.org/ns#" xmlns:rdf="http://www.w3.org/1999/02/22-rdf-syntax-ns#">
   <cc:Work>
    <dc:type rdf:resource="http://purl.org/dc/dcmitype/StillImage"/>
    <dc:date>2024-05-29T19:25:58.308033</dc:date>
    <dc:format>image/svg+xml</dc:format>
    <dc:creator>
     <cc:Agent>
      <dc:title>Matplotlib v3.5.3, https://matplotlib.org/</dc:title>
     </cc:Agent>
    </dc:creator>
   </cc:Work>
  </rdf:RDF>
 </metadata>
 <defs>
  <style type="text/css">*{stroke-linejoin: round; stroke-linecap: butt}</style>
 </defs>
 <g id="figure_1">
  <g id="patch_1">
   <path d="M 0 385.288437 
L 218.968437 385.288437 
L 218.968437 0 
L 0 0 
z
" style="fill: #ffffff"/>
  </g>
  <g id="axes_1">
   <g id="patch_2">
    <path d="M 45.448438 339.84 
L 211.768438 339.84 
L 211.768438 7.2 
L 45.448438 7.2 
z
" style="fill: #ffffff"/>
   </g>
   <g id="QuadMesh_1">
    <path d="M 45.448438 7.2 
L 59.308438 7.2 
L 59.308438 21.06 
L 45.448438 21.06 
L 45.448438 7.2 
" clip-path="url(#pd74ef531b0)" style="fill: #fcfbfd"/>
    <path d="M 59.308438 7.2 
L 73.168438 7.2 
L 73.168438 21.06 
L 59.308438 21.06 
L 59.308438 7.2 
" clip-path="url(#pd74ef531b0)" style="fill: #fcfbfd"/>
    <path d="M 73.168438 7.2 
L 87.028438 7.2 
L 87.028438 21.06 
L 73.168438 21.06 
L 73.168438 7.2 
" clip-path="url(#pd74ef531b0)" style="fill: #fcfbfd"/>
    <path d="M 87.028438 7.2 
L 100.888438 7.2 
L 100.888438 21.06 
L 87.028438 21.06 
L 87.028438 7.2 
" clip-path="url(#pd74ef531b0)" style="fill: #fcfbfd"/>
    <path d="M 100.888438 7.2 
L 114.748438 7.2 
L 114.748438 21.06 
L 100.888438 21.06 
L 100.888438 7.2 
" clip-path="url(#pd74ef531b0)" style="fill: #fcfbfd"/>
    <path d="M 114.748438 7.2 
L 128.608438 7.2 
L 128.608438 21.06 
L 114.748438 21.06 
L 114.748438 7.2 
" clip-path="url(#pd74ef531b0)" style="fill: #fcfbfd"/>
    <path d="M 128.608438 7.2 
L 142.468438 7.2 
L 142.468438 21.06 
L 128.608438 21.06 
L 128.608438 7.2 
" clip-path="url(#pd74ef531b0)" style="fill: #fcfbfd"/>
    <path d="M 142.468438 7.2 
L 156.328438 7.2 
L 156.328438 21.06 
L 142.468438 21.06 
L 142.468438 7.2 
" clip-path="url(#pd74ef531b0)" style="fill: #fcfbfd"/>
    <path d="M 156.328438 7.2 
L 170.188438 7.2 
L 170.188438 21.06 
L 156.328438 21.06 
L 156.328438 7.2 
" clip-path="url(#pd74ef531b0)" style="fill: #fcfbfd"/>
    <path d="M 170.188438 7.2 
L 184.048438 7.2 
L 184.048438 21.06 
L 170.188438 21.06 
L 170.188438 7.2 
" clip-path="url(#pd74ef531b0)" style="fill: #fcfbfd"/>
    <path d="M 184.048438 7.2 
L 197.908438 7.2 
L 197.908438 21.06 
L 184.048438 21.06 
L 184.048438 7.2 
" clip-path="url(#pd74ef531b0)" style="fill: #fcfbfd"/>
    <path d="M 197.908438 7.2 
L 211.768438 7.2 
L 211.768438 21.06 
L 197.908438 21.06 
L 197.908438 7.2 
" clip-path="url(#pd74ef531b0)" style="fill: #fcfbfd"/>
    <path d="M 45.448438 21.06 
L 59.308438 21.06 
L 59.308438 34.92 
L 45.448438 34.92 
L 45.448438 21.06 
" clip-path="url(#pd74ef531b0)" style="fill: #61409b"/>
    <path d="M 59.308438 21.06 
L 73.168438 21.06 
L 73.168438 34.92 
L 59.308438 34.92 
L 59.308438 21.06 
" clip-path="url(#pd74ef531b0)" style="fill: #fcfbfd"/>
    <path d="M 73.168438 21.06 
L 87.028438 21.06 
L 87.028438 34.92 
L 73.168438 34.92 
L 73.168438 21.06 
" clip-path="url(#pd74ef531b0)" style="fill: #fcfbfd"/>
    <path d="M 87.028438 21.06 
L 100.888438 21.06 
L 100.888438 34.92 
L 87.028438 34.92 
L 87.028438 21.06 
" clip-path="url(#pd74ef531b0)" style="fill: #fcfbfd"/>
    <path d="M 100.888438 21.06 
L 114.748438 21.06 
L 114.748438 34.92 
L 100.888438 34.92 
L 100.888438 21.06 
" clip-path="url(#pd74ef531b0)" style="fill: #fcfbfd"/>
    <path d="M 114.748438 21.06 
L 128.608438 21.06 
L 128.608438 34.92 
L 114.748438 34.92 
L 114.748438 21.06 
" clip-path="url(#pd74ef531b0)" style="fill: #fcfbfd"/>
    <path d="M 128.608438 21.06 
L 142.468438 21.06 
L 142.468438 34.92 
L 128.608438 34.92 
L 128.608438 21.06 
" clip-path="url(#pd74ef531b0)" style="fill: #fcfbfd"/>
    <path d="M 142.468438 21.06 
L 156.328438 21.06 
L 156.328438 34.92 
L 142.468438 34.92 
L 142.468438 21.06 
" clip-path="url(#pd74ef531b0)" style="fill: #fcfbfd"/>
    <path d="M 156.328438 21.06 
L 170.188438 21.06 
L 170.188438 34.92 
L 156.328438 34.92 
L 156.328438 21.06 
" clip-path="url(#pd74ef531b0)" style="fill: #e2e2ef"/>
    <path d="M 170.188438 21.06 
L 184.048438 21.06 
L 184.048438 34.92 
L 170.188438 34.92 
L 170.188438 21.06 
" clip-path="url(#pd74ef531b0)" style="fill: #fcfbfd"/>
    <path d="M 184.048438 21.06 
L 197.908438 21.06 
L 197.908438 34.92 
L 184.048438 34.92 
L 184.048438 21.06 
" clip-path="url(#pd74ef531b0)" style="fill: #fcfbfd"/>
    <path d="M 197.908438 21.06 
L 211.768438 21.06 
L 211.768438 34.92 
L 197.908438 34.92 
L 197.908438 21.06 
" clip-path="url(#pd74ef531b0)" style="fill: #fcfbfd"/>
    <path d="M 45.448438 34.92 
L 59.308438 34.92 
L 59.308438 48.78 
L 45.448438 48.78 
L 45.448438 34.92 
" clip-path="url(#pd74ef531b0)" style="fill: #fcfbfd"/>
    <path d="M 59.308438 34.92 
L 73.168438 34.92 
L 73.168438 48.78 
L 59.308438 48.78 
L 59.308438 34.92 
" clip-path="url(#pd74ef531b0)" style="fill: #fcfbfd"/>
    <path d="M 73.168438 34.92 
L 87.028438 34.92 
L 87.028438 48.78 
L 73.168438 48.78 
L 73.168438 34.92 
" clip-path="url(#pd74ef531b0)" style="fill: #fcfbfd"/>
    <path d="M 87.028438 34.92 
L 100.888438 34.92 
L 100.888438 48.78 
L 87.028438 48.78 
L 87.028438 34.92 
" clip-path="url(#pd74ef531b0)" style="fill: #fcfbfd"/>
    <path d="M 100.888438 34.92 
L 114.748438 34.92 
L 114.748438 48.78 
L 100.888438 48.78 
L 100.888438 34.92 
" clip-path="url(#pd74ef531b0)" style="fill: #fcfbfd"/>
    <path d="M 114.748438 34.92 
L 128.608438 34.92 
L 128.608438 48.78 
L 114.748438 48.78 
L 114.748438 34.92 
" clip-path="url(#pd74ef531b0)" style="fill: #fcfbfd"/>
    <path d="M 128.608438 34.92 
L 142.468438 34.92 
L 142.468438 48.78 
L 128.608438 48.78 
L 128.608438 34.92 
" clip-path="url(#pd74ef531b0)" style="fill: #fcfbfd"/>
    <path d="M 142.468438 34.92 
L 156.328438 34.92 
L 156.328438 48.78 
L 142.468438 48.78 
L 142.468438 34.92 
" clip-path="url(#pd74ef531b0)" style="fill: #fcfbfd"/>
    <path d="M 156.328438 34.92 
L 170.188438 34.92 
L 170.188438 48.78 
L 156.328438 48.78 
L 156.328438 34.92 
" clip-path="url(#pd74ef531b0)" style="fill: #fcfbfd"/>
    <path d="M 170.188438 34.92 
L 184.048438 34.92 
L 184.048438 48.78 
L 170.188438 48.78 
L 170.188438 34.92 
" clip-path="url(#pd74ef531b0)" style="fill: #fcfbfd"/>
    <path d="M 184.048438 34.92 
L 197.908438 34.92 
L 197.908438 48.78 
L 184.048438 48.78 
L 184.048438 34.92 
" clip-path="url(#pd74ef531b0)" style="fill: #fcfbfd"/>
    <path d="M 197.908438 34.92 
L 211.768438 34.92 
L 211.768438 48.78 
L 197.908438 48.78 
L 197.908438 34.92 
" clip-path="url(#pd74ef531b0)" style="fill: #fcfbfd"/>
    <path d="M 45.448438 48.78 
L 59.308438 48.78 
L 59.308438 62.64 
L 45.448438 62.64 
L 45.448438 48.78 
" clip-path="url(#pd74ef531b0)" style="fill: #fcfbfd"/>
    <path d="M 59.308438 48.78 
L 73.168438 48.78 
L 73.168438 62.64 
L 59.308438 62.64 
L 59.308438 48.78 
" clip-path="url(#pd74ef531b0)" style="fill: #fcfbfd"/>
    <path d="M 73.168438 48.78 
L 87.028438 48.78 
L 87.028438 62.64 
L 73.168438 62.64 
L 73.168438 48.78 
" clip-path="url(#pd74ef531b0)" style="fill: #fcfbfd"/>
    <path d="M 87.028438 48.78 
L 100.888438 48.78 
L 100.888438 62.64 
L 87.028438 62.64 
L 87.028438 48.78 
" clip-path="url(#pd74ef531b0)" style="fill: #fcfbfd"/>
    <path d="M 100.888438 48.78 
L 114.748438 48.78 
L 114.748438 62.64 
L 100.888438 62.64 
L 100.888438 48.78 
" clip-path="url(#pd74ef531b0)" style="fill: #fcfbfd"/>
    <path d="M 114.748438 48.78 
L 128.608438 48.78 
L 128.608438 62.64 
L 114.748438 62.64 
L 114.748438 48.78 
" clip-path="url(#pd74ef531b0)" style="fill: #fcfbfd"/>
    <path d="M 128.608438 48.78 
L 142.468438 48.78 
L 142.468438 62.64 
L 128.608438 62.64 
L 128.608438 48.78 
" clip-path="url(#pd74ef531b0)" style="fill: #fcfbfd"/>
    <path d="M 142.468438 48.78 
L 156.328438 48.78 
L 156.328438 62.64 
L 142.468438 62.64 
L 142.468438 48.78 
" clip-path="url(#pd74ef531b0)" style="fill: #fcfbfd"/>
    <path d="M 156.328438 48.78 
L 170.188438 48.78 
L 170.188438 62.64 
L 156.328438 62.64 
L 156.328438 48.78 
" clip-path="url(#pd74ef531b0)" style="fill: #fcfbfd"/>
    <path d="M 170.188438 48.78 
L 184.048438 48.78 
L 184.048438 62.64 
L 170.188438 62.64 
L 170.188438 48.78 
" clip-path="url(#pd74ef531b0)" style="fill: #fcfbfd"/>
    <path d="M 184.048438 48.78 
L 197.908438 48.78 
L 197.908438 62.64 
L 184.048438 62.64 
L 184.048438 48.78 
" clip-path="url(#pd74ef531b0)" style="fill: #fcfbfd"/>
    <path d="M 197.908438 48.78 
L 211.768438 48.78 
L 211.768438 62.64 
L 197.908438 62.64 
L 197.908438 48.78 
" clip-path="url(#pd74ef531b0)" style="fill: #fcfbfd"/>
    <path d="M 45.448438 62.64 
L 59.308438 62.64 
L 59.308438 76.5 
L 45.448438 76.5 
L 45.448438 62.64 
" clip-path="url(#pd74ef531b0)" style="fill: #fcfbfd"/>
    <path d="M 59.308438 62.64 
L 73.168438 62.64 
L 73.168438 76.5 
L 59.308438 76.5 
L 59.308438 62.64 
" clip-path="url(#pd74ef531b0)" style="fill: #fcfbfd"/>
    <path d="M 73.168438 62.64 
L 87.028438 62.64 
L 87.028438 76.5 
L 73.168438 76.5 
L 73.168438 62.64 
" clip-path="url(#pd74ef531b0)" style="fill: #fcfbfd"/>
    <path d="M 87.028438 62.64 
L 100.888438 62.64 
L 100.888438 76.5 
L 87.028438 76.5 
L 87.028438 62.64 
" clip-path="url(#pd74ef531b0)" style="fill: #fcfbfd"/>
    <path d="M 100.888438 62.64 
L 114.748438 62.64 
L 114.748438 76.5 
L 100.888438 76.5 
L 100.888438 62.64 
" clip-path="url(#pd74ef531b0)" style="fill: #fcfbfd"/>
    <path d="M 114.748438 62.64 
L 128.608438 62.64 
L 128.608438 76.5 
L 114.748438 76.5 
L 114.748438 62.64 
" clip-path="url(#pd74ef531b0)" style="fill: #fcfbfd"/>
    <path d="M 128.608438 62.64 
L 142.468438 62.64 
L 142.468438 76.5 
L 128.608438 76.5 
L 128.608438 62.64 
" clip-path="url(#pd74ef531b0)" style="fill: #fcfbfd"/>
    <path d="M 142.468438 62.64 
L 156.328438 62.64 
L 156.328438 76.5 
L 142.468438 76.5 
L 142.468438 62.64 
" clip-path="url(#pd74ef531b0)" style="fill: #fcfbfd"/>
    <path d="M 156.328438 62.64 
L 170.188438 62.64 
L 170.188438 76.5 
L 156.328438 76.5 
L 156.328438 62.64 
" clip-path="url(#pd74ef531b0)" style="fill: #fcfbfd"/>
    <path d="M 170.188438 62.64 
L 184.048438 62.64 
L 184.048438 76.5 
L 170.188438 76.5 
L 170.188438 62.64 
" clip-path="url(#pd74ef531b0)" style="fill: #fcfbfd"/>
    <path d="M 184.048438 62.64 
L 197.908438 62.64 
L 197.908438 76.5 
L 184.048438 76.5 
L 184.048438 62.64 
" clip-path="url(#pd74ef531b0)" style="fill: #fcfbfd"/>
    <path d="M 197.908438 62.64 
L 211.768438 62.64 
L 211.768438 76.5 
L 197.908438 76.5 
L 197.908438 62.64 
" clip-path="url(#pd74ef531b0)" style="fill: #fcfbfd"/>
    <path d="M 45.448438 76.5 
L 59.308438 76.5 
L 59.308438 90.36 
L 45.448438 90.36 
L 45.448438 76.5 
" clip-path="url(#pd74ef531b0)" style="fill: #9692c4"/>
    <path d="M 59.308438 76.5 
L 73.168438 76.5 
L 73.168438 90.36 
L 59.308438 90.36 
L 59.308438 76.5 
" clip-path="url(#pd74ef531b0)" style="fill: #fcfbfd"/>
    <path d="M 73.168438 76.5 
L 87.028438 76.5 
L 87.028438 90.36 
L 73.168438 90.36 
L 73.168438 76.5 
" clip-path="url(#pd74ef531b0)" style="fill: #fcfbfd"/>
    <path d="M 87.028438 76.5 
L 100.888438 76.5 
L 100.888438 90.36 
L 87.028438 90.36 
L 87.028438 76.5 
" clip-path="url(#pd74ef531b0)" style="fill: #fcfbfd"/>
    <path d="M 100.888438 76.5 
L 114.748438 76.5 
L 114.748438 90.36 
L 100.888438 90.36 
L 100.888438 76.5 
" clip-path="url(#pd74ef531b0)" style="fill: #fcfbfd"/>
    <path d="M 114.748438 76.5 
L 128.608438 76.5 
L 128.608438 90.36 
L 114.748438 90.36 
L 114.748438 76.5 
" clip-path="url(#pd74ef531b0)" style="fill: #fcfbfd"/>
    <path d="M 128.608438 76.5 
L 142.468438 76.5 
L 142.468438 90.36 
L 128.608438 90.36 
L 128.608438 76.5 
" clip-path="url(#pd74ef531b0)" style="fill: #fcfbfd"/>
    <path d="M 142.468438 76.5 
L 156.328438 76.5 
L 156.328438 90.36 
L 142.468438 90.36 
L 142.468438 76.5 
" clip-path="url(#pd74ef531b0)" style="fill: #fcfbfd"/>
    <path d="M 156.328438 76.5 
L 170.188438 76.5 
L 170.188438 90.36 
L 156.328438 90.36 
L 156.328438 76.5 
" clip-path="url(#pd74ef531b0)" style="fill: #a6a3cd"/>
    <path d="M 170.188438 76.5 
L 184.048438 76.5 
L 184.048438 90.36 
L 170.188438 90.36 
L 170.188438 76.5 
" clip-path="url(#pd74ef531b0)" style="fill: #fcfbfd"/>
    <path d="M 184.048438 76.5 
L 197.908438 76.5 
L 197.908438 90.36 
L 184.048438 90.36 
L 184.048438 76.5 
" clip-path="url(#pd74ef531b0)" style="fill: #fcfbfd"/>
    <path d="M 197.908438 76.5 
L 211.768438 76.5 
L 211.768438 90.36 
L 197.908438 90.36 
L 197.908438 76.5 
" clip-path="url(#pd74ef531b0)" style="fill: #fcfbfd"/>
    <path d="M 45.448438 90.36 
L 59.308438 90.36 
L 59.308438 104.22 
L 45.448438 104.22 
L 45.448438 90.36 
" clip-path="url(#pd74ef531b0)" style="fill: #fcfbfd"/>
    <path d="M 59.308438 90.36 
L 73.168438 90.36 
L 73.168438 104.22 
L 59.308438 104.22 
L 59.308438 90.36 
" clip-path="url(#pd74ef531b0)" style="fill: #fcfbfd"/>
    <path d="M 73.168438 90.36 
L 87.028438 90.36 
L 87.028438 104.22 
L 73.168438 104.22 
L 73.168438 90.36 
" clip-path="url(#pd74ef531b0)" style="fill: #fcfbfd"/>
    <path d="M 87.028438 90.36 
L 100.888438 90.36 
L 100.888438 104.22 
L 87.028438 104.22 
L 87.028438 90.36 
" clip-path="url(#pd74ef531b0)" style="fill: #fcfbfd"/>
    <path d="M 100.888438 90.36 
L 114.748438 90.36 
L 114.748438 104.22 
L 100.888438 104.22 
L 100.888438 90.36 
" clip-path="url(#pd74ef531b0)" style="fill: #fcfbfd"/>
    <path d="M 114.748438 90.36 
L 128.608438 90.36 
L 128.608438 104.22 
L 114.748438 104.22 
L 114.748438 90.36 
" clip-path="url(#pd74ef531b0)" style="fill: #fcfbfd"/>
    <path d="M 128.608438 90.36 
L 142.468438 90.36 
L 142.468438 104.22 
L 128.608438 104.22 
L 128.608438 90.36 
" clip-path="url(#pd74ef531b0)" style="fill: #fcfbfd"/>
    <path d="M 142.468438 90.36 
L 156.328438 90.36 
L 156.328438 104.22 
L 142.468438 104.22 
L 142.468438 90.36 
" clip-path="url(#pd74ef531b0)" style="fill: #fcfbfd"/>
    <path d="M 156.328438 90.36 
L 170.188438 90.36 
L 170.188438 104.22 
L 156.328438 104.22 
L 156.328438 90.36 
" clip-path="url(#pd74ef531b0)" style="fill: #fcfbfd"/>
    <path d="M 170.188438 90.36 
L 184.048438 90.36 
L 184.048438 104.22 
L 170.188438 104.22 
L 170.188438 90.36 
" clip-path="url(#pd74ef531b0)" style="fill: #fcfbfd"/>
    <path d="M 184.048438 90.36 
L 197.908438 90.36 
L 197.908438 104.22 
L 184.048438 104.22 
L 184.048438 90.36 
" clip-path="url(#pd74ef531b0)" style="fill: #fcfbfd"/>
    <path d="M 197.908438 90.36 
L 211.768438 90.36 
L 211.768438 104.22 
L 197.908438 104.22 
L 197.908438 90.36 
" clip-path="url(#pd74ef531b0)" style="fill: #fcfbfd"/>
    <path d="M 45.448438 104.22 
L 59.308438 104.22 
L 59.308438 118.08 
L 45.448438 118.08 
L 45.448438 104.22 
" clip-path="url(#pd74ef531b0)" style="fill: #fcfbfd"/>
    <path d="M 59.308438 104.22 
L 73.168438 104.22 
L 73.168438 118.08 
L 59.308438 118.08 
L 59.308438 104.22 
" clip-path="url(#pd74ef531b0)" style="fill: #fcfbfd"/>
    <path d="M 73.168438 104.22 
L 87.028438 104.22 
L 87.028438 118.08 
L 73.168438 118.08 
L 73.168438 104.22 
" clip-path="url(#pd74ef531b0)" style="fill: #fcfbfd"/>
    <path d="M 87.028438 104.22 
L 100.888438 104.22 
L 100.888438 118.08 
L 87.028438 118.08 
L 87.028438 104.22 
" clip-path="url(#pd74ef531b0)" style="fill: #fcfbfd"/>
    <path d="M 100.888438 104.22 
L 114.748438 104.22 
L 114.748438 118.08 
L 100.888438 118.08 
L 100.888438 104.22 
" clip-path="url(#pd74ef531b0)" style="fill: #fcfbfd"/>
    <path d="M 114.748438 104.22 
L 128.608438 104.22 
L 128.608438 118.08 
L 114.748438 118.08 
L 114.748438 104.22 
" clip-path="url(#pd74ef531b0)" style="fill: #fcfbfd"/>
    <path d="M 128.608438 104.22 
L 142.468438 104.22 
L 142.468438 118.08 
L 128.608438 118.08 
L 128.608438 104.22 
" clip-path="url(#pd74ef531b0)" style="fill: #fcfbfd"/>
    <path d="M 142.468438 104.22 
L 156.328438 104.22 
L 156.328438 118.08 
L 142.468438 118.08 
L 142.468438 104.22 
" clip-path="url(#pd74ef531b0)" style="fill: #fcfbfd"/>
    <path d="M 156.328438 104.22 
L 170.188438 104.22 
L 170.188438 118.08 
L 156.328438 118.08 
L 156.328438 104.22 
" clip-path="url(#pd74ef531b0)" style="fill: #fcfbfd"/>
    <path d="M 170.188438 104.22 
L 184.048438 104.22 
L 184.048438 118.08 
L 170.188438 118.08 
L 170.188438 104.22 
" clip-path="url(#pd74ef531b0)" style="fill: #fcfbfd"/>
    <path d="M 184.048438 104.22 
L 197.908438 104.22 
L 197.908438 118.08 
L 184.048438 118.08 
L 184.048438 104.22 
" clip-path="url(#pd74ef531b0)" style="fill: #fcfbfd"/>
    <path d="M 197.908438 104.22 
L 211.768438 104.22 
L 211.768438 118.08 
L 197.908438 118.08 
L 197.908438 104.22 
" clip-path="url(#pd74ef531b0)" style="fill: #fcfbfd"/>
    <path d="M 45.448438 118.08 
L 59.308438 118.08 
L 59.308438 131.94 
L 45.448438 131.94 
L 45.448438 118.08 
" clip-path="url(#pd74ef531b0)" style="fill: #fcfbfd"/>
    <path d="M 59.308438 118.08 
L 73.168438 118.08 
L 73.168438 131.94 
L 59.308438 131.94 
L 59.308438 118.08 
" clip-path="url(#pd74ef531b0)" style="fill: #fcfbfd"/>
    <path d="M 73.168438 118.08 
L 87.028438 118.08 
L 87.028438 131.94 
L 73.168438 131.94 
L 73.168438 118.08 
" clip-path="url(#pd74ef531b0)" style="fill: #fcfbfd"/>
    <path d="M 87.028438 118.08 
L 100.888438 118.08 
L 100.888438 131.94 
L 87.028438 131.94 
L 87.028438 118.08 
" clip-path="url(#pd74ef531b0)" style="fill: #fcfbfd"/>
    <path d="M 100.888438 118.08 
L 114.748438 118.08 
L 114.748438 131.94 
L 100.888438 131.94 
L 100.888438 118.08 
" clip-path="url(#pd74ef531b0)" style="fill: #fcfbfd"/>
    <path d="M 114.748438 118.08 
L 128.608438 118.08 
L 128.608438 131.94 
L 114.748438 131.94 
L 114.748438 118.08 
" clip-path="url(#pd74ef531b0)" style="fill: #fcfbfd"/>
    <path d="M 128.608438 118.08 
L 142.468438 118.08 
L 142.468438 131.94 
L 128.608438 131.94 
L 128.608438 118.08 
" clip-path="url(#pd74ef531b0)" style="fill: #fcfbfd"/>
    <path d="M 142.468438 118.08 
L 156.328438 118.08 
L 156.328438 131.94 
L 142.468438 131.94 
L 142.468438 118.08 
" clip-path="url(#pd74ef531b0)" style="fill: #fcfbfd"/>
    <path d="M 156.328438 118.08 
L 170.188438 118.08 
L 170.188438 131.94 
L 156.328438 131.94 
L 156.328438 118.08 
" clip-path="url(#pd74ef531b0)" style="fill: #fcfbfd"/>
    <path d="M 170.188438 118.08 
L 184.048438 118.08 
L 184.048438 131.94 
L 170.188438 131.94 
L 170.188438 118.08 
" clip-path="url(#pd74ef531b0)" style="fill: #fcfbfd"/>
    <path d="M 184.048438 118.08 
L 197.908438 118.08 
L 197.908438 131.94 
L 184.048438 131.94 
L 184.048438 118.08 
" clip-path="url(#pd74ef531b0)" style="fill: #fcfbfd"/>
    <path d="M 197.908438 118.08 
L 211.768438 118.08 
L 211.768438 131.94 
L 197.908438 131.94 
L 197.908438 118.08 
" clip-path="url(#pd74ef531b0)" style="fill: #fcfbfd"/>
    <path d="M 45.448438 131.94 
L 59.308438 131.94 
L 59.308438 145.8 
L 45.448438 145.8 
L 45.448438 131.94 
" clip-path="url(#pd74ef531b0)" style="fill: #fcfbfd"/>
    <path d="M 59.308438 131.94 
L 73.168438 131.94 
L 73.168438 145.8 
L 59.308438 145.8 
L 59.308438 131.94 
" clip-path="url(#pd74ef531b0)" style="fill: #3f007d"/>
    <path d="M 73.168438 131.94 
L 87.028438 131.94 
L 87.028438 145.8 
L 73.168438 145.8 
L 73.168438 131.94 
" clip-path="url(#pd74ef531b0)" style="fill: #fcfbfd"/>
    <path d="M 87.028438 131.94 
L 100.888438 131.94 
L 100.888438 145.8 
L 87.028438 145.8 
L 87.028438 131.94 
" clip-path="url(#pd74ef531b0)" style="fill: #fcfbfd"/>
    <path d="M 100.888438 131.94 
L 114.748438 131.94 
L 114.748438 145.8 
L 100.888438 145.8 
L 100.888438 131.94 
" clip-path="url(#pd74ef531b0)" style="fill: #fcfbfd"/>
    <path d="M 114.748438 131.94 
L 128.608438 131.94 
L 128.608438 145.8 
L 114.748438 145.8 
L 114.748438 131.94 
" clip-path="url(#pd74ef531b0)" style="fill: #fcfbfd"/>
    <path d="M 128.608438 131.94 
L 142.468438 131.94 
L 142.468438 145.8 
L 128.608438 145.8 
L 128.608438 131.94 
" clip-path="url(#pd74ef531b0)" style="fill: #fcfbfd"/>
    <path d="M 142.468438 131.94 
L 156.328438 131.94 
L 156.328438 145.8 
L 142.468438 145.8 
L 142.468438 131.94 
" clip-path="url(#pd74ef531b0)" style="fill: #fcfbfd"/>
    <path d="M 156.328438 131.94 
L 170.188438 131.94 
L 170.188438 145.8 
L 156.328438 145.8 
L 156.328438 131.94 
" clip-path="url(#pd74ef531b0)" style="fill: #fcfbfd"/>
    <path d="M 170.188438 131.94 
L 184.048438 131.94 
L 184.048438 145.8 
L 170.188438 145.8 
L 170.188438 131.94 
" clip-path="url(#pd74ef531b0)" style="fill: #fcfbfd"/>
    <path d="M 184.048438 131.94 
L 197.908438 131.94 
L 197.908438 145.8 
L 184.048438 145.8 
L 184.048438 131.94 
" clip-path="url(#pd74ef531b0)" style="fill: #fcfbfd"/>
    <path d="M 197.908438 131.94 
L 211.768438 131.94 
L 211.768438 145.8 
L 197.908438 145.8 
L 197.908438 131.94 
" clip-path="url(#pd74ef531b0)" style="fill: #fcfbfd"/>
    <path d="M 45.448438 145.8 
L 59.308438 145.8 
L 59.308438 159.66 
L 45.448438 159.66 
L 45.448438 145.8 
" clip-path="url(#pd74ef531b0)" style="fill: #fcfbfd"/>
    <path d="M 59.308438 145.8 
L 73.168438 145.8 
L 73.168438 159.66 
L 59.308438 159.66 
L 59.308438 145.8 
" clip-path="url(#pd74ef531b0)" style="fill: #3f007d"/>
    <path d="M 73.168438 145.8 
L 87.028438 145.8 
L 87.028438 159.66 
L 73.168438 159.66 
L 73.168438 145.8 
" clip-path="url(#pd74ef531b0)" style="fill: #fcfbfd"/>
    <path d="M 87.028438 145.8 
L 100.888438 145.8 
L 100.888438 159.66 
L 87.028438 159.66 
L 87.028438 145.8 
" clip-path="url(#pd74ef531b0)" style="fill: #fcfbfd"/>
    <path d="M 100.888438 145.8 
L 114.748438 145.8 
L 114.748438 159.66 
L 100.888438 159.66 
L 100.888438 145.8 
" clip-path="url(#pd74ef531b0)" style="fill: #fcfbfd"/>
    <path d="M 114.748438 145.8 
L 128.608438 145.8 
L 128.608438 159.66 
L 114.748438 159.66 
L 114.748438 145.8 
" clip-path="url(#pd74ef531b0)" style="fill: #fcfbfd"/>
    <path d="M 128.608438 145.8 
L 142.468438 145.8 
L 142.468438 159.66 
L 128.608438 159.66 
L 128.608438 145.8 
" clip-path="url(#pd74ef531b0)" style="fill: #fcfbfd"/>
    <path d="M 142.468438 145.8 
L 156.328438 145.8 
L 156.328438 159.66 
L 142.468438 159.66 
L 142.468438 145.8 
" clip-path="url(#pd74ef531b0)" style="fill: #fcfbfd"/>
    <path d="M 156.328438 145.8 
L 170.188438 145.8 
L 170.188438 159.66 
L 156.328438 159.66 
L 156.328438 145.8 
" clip-path="url(#pd74ef531b0)" style="fill: #fcfbfd"/>
    <path d="M 170.188438 145.8 
L 184.048438 145.8 
L 184.048438 159.66 
L 170.188438 159.66 
L 170.188438 145.8 
" clip-path="url(#pd74ef531b0)" style="fill: #fcfbfd"/>
    <path d="M 184.048438 145.8 
L 197.908438 145.8 
L 197.908438 159.66 
L 184.048438 159.66 
L 184.048438 145.8 
" clip-path="url(#pd74ef531b0)" style="fill: #fcfbfd"/>
    <path d="M 197.908438 145.8 
L 211.768438 145.8 
L 211.768438 159.66 
L 197.908438 159.66 
L 197.908438 145.8 
" clip-path="url(#pd74ef531b0)" style="fill: #fcfbfd"/>
    <path d="M 45.448438 159.66 
L 59.308438 159.66 
L 59.308438 173.52 
L 45.448438 173.52 
L 45.448438 159.66 
" clip-path="url(#pd74ef531b0)" style="fill: #fcfbfd"/>
    <path d="M 59.308438 159.66 
L 73.168438 159.66 
L 73.168438 173.52 
L 59.308438 173.52 
L 59.308438 159.66 
" clip-path="url(#pd74ef531b0)" style="fill: #fcfbfd"/>
    <path d="M 73.168438 159.66 
L 87.028438 159.66 
L 87.028438 173.52 
L 73.168438 173.52 
L 73.168438 159.66 
" clip-path="url(#pd74ef531b0)" style="fill: #3f007d"/>
    <path d="M 87.028438 159.66 
L 100.888438 159.66 
L 100.888438 173.52 
L 87.028438 173.52 
L 87.028438 159.66 
" clip-path="url(#pd74ef531b0)" style="fill: #fcfbfd"/>
    <path d="M 100.888438 159.66 
L 114.748438 159.66 
L 114.748438 173.52 
L 100.888438 173.52 
L 100.888438 159.66 
" clip-path="url(#pd74ef531b0)" style="fill: #fcfbfd"/>
    <path d="M 114.748438 159.66 
L 128.608438 159.66 
L 128.608438 173.52 
L 114.748438 173.52 
L 114.748438 159.66 
" clip-path="url(#pd74ef531b0)" style="fill: #fcfbfd"/>
    <path d="M 128.608438 159.66 
L 142.468438 159.66 
L 142.468438 173.52 
L 128.608438 173.52 
L 128.608438 159.66 
" clip-path="url(#pd74ef531b0)" style="fill: #fcfbfd"/>
    <path d="M 142.468438 159.66 
L 156.328438 159.66 
L 156.328438 173.52 
L 142.468438 173.52 
L 142.468438 159.66 
" clip-path="url(#pd74ef531b0)" style="fill: #fcfbfd"/>
    <path d="M 156.328438 159.66 
L 170.188438 159.66 
L 170.188438 173.52 
L 156.328438 173.52 
L 156.328438 159.66 
" clip-path="url(#pd74ef531b0)" style="fill: #fcfbfd"/>
    <path d="M 170.188438 159.66 
L 184.048438 159.66 
L 184.048438 173.52 
L 170.188438 173.52 
L 170.188438 159.66 
" clip-path="url(#pd74ef531b0)" style="fill: #fcfbfd"/>
    <path d="M 184.048438 159.66 
L 197.908438 159.66 
L 197.908438 173.52 
L 184.048438 173.52 
L 184.048438 159.66 
" clip-path="url(#pd74ef531b0)" style="fill: #fcfbfd"/>
    <path d="M 197.908438 159.66 
L 211.768438 159.66 
L 211.768438 173.52 
L 197.908438 173.52 
L 197.908438 159.66 
" clip-path="url(#pd74ef531b0)" style="fill: #fcfbfd"/>
    <path d="M 45.448438 173.52 
L 59.308438 173.52 
L 59.308438 187.38 
L 45.448438 187.38 
L 45.448438 173.52 
" clip-path="url(#pd74ef531b0)" style="fill: #fcfbfd"/>
    <path d="M 59.308438 173.52 
L 73.168438 173.52 
L 73.168438 187.38 
L 59.308438 187.38 
L 59.308438 173.52 
" clip-path="url(#pd74ef531b0)" style="fill: #fcfbfd"/>
    <path d="M 73.168438 173.52 
L 87.028438 173.52 
L 87.028438 187.38 
L 73.168438 187.38 
L 73.168438 173.52 
" clip-path="url(#pd74ef531b0)" style="fill: #3f007d"/>
    <path d="M 87.028438 173.52 
L 100.888438 173.52 
L 100.888438 187.38 
L 87.028438 187.38 
L 87.028438 173.52 
" clip-path="url(#pd74ef531b0)" style="fill: #fcfbfd"/>
    <path d="M 100.888438 173.52 
L 114.748438 173.52 
L 114.748438 187.38 
L 100.888438 187.38 
L 100.888438 173.52 
" clip-path="url(#pd74ef531b0)" style="fill: #fcfbfd"/>
    <path d="M 114.748438 173.52 
L 128.608438 173.52 
L 128.608438 187.38 
L 114.748438 187.38 
L 114.748438 173.52 
" clip-path="url(#pd74ef531b0)" style="fill: #fcfbfd"/>
    <path d="M 128.608438 173.52 
L 142.468438 173.52 
L 142.468438 187.38 
L 128.608438 187.38 
L 128.608438 173.52 
" clip-path="url(#pd74ef531b0)" style="fill: #fcfbfd"/>
    <path d="M 142.468438 173.52 
L 156.328438 173.52 
L 156.328438 187.38 
L 142.468438 187.38 
L 142.468438 173.52 
" clip-path="url(#pd74ef531b0)" style="fill: #fcfbfd"/>
    <path d="M 156.328438 173.52 
L 170.188438 173.52 
L 170.188438 187.38 
L 156.328438 187.38 
L 156.328438 173.52 
" clip-path="url(#pd74ef531b0)" style="fill: #fcfbfd"/>
    <path d="M 170.188438 173.52 
L 184.048438 173.52 
L 184.048438 187.38 
L 170.188438 187.38 
L 170.188438 173.52 
" clip-path="url(#pd74ef531b0)" style="fill: #fcfbfd"/>
    <path d="M 184.048438 173.52 
L 197.908438 173.52 
L 197.908438 187.38 
L 184.048438 187.38 
L 184.048438 173.52 
" clip-path="url(#pd74ef531b0)" style="fill: #fcfbfd"/>
    <path d="M 197.908438 173.52 
L 211.768438 173.52 
L 211.768438 187.38 
L 197.908438 187.38 
L 197.908438 173.52 
" clip-path="url(#pd74ef531b0)" style="fill: #fcfbfd"/>
    <path d="M 45.448438 187.38 
L 59.308438 187.38 
L 59.308438 201.24 
L 45.448438 201.24 
L 45.448438 187.38 
" clip-path="url(#pd74ef531b0)" style="fill: #fcfbfd"/>
    <path d="M 59.308438 187.38 
L 73.168438 187.38 
L 73.168438 201.24 
L 59.308438 201.24 
L 59.308438 187.38 
" clip-path="url(#pd74ef531b0)" style="fill: #fcfbfd"/>
    <path d="M 73.168438 187.38 
L 87.028438 187.38 
L 87.028438 201.24 
L 73.168438 201.24 
L 73.168438 187.38 
" clip-path="url(#pd74ef531b0)" style="fill: #fcfbfd"/>
    <path d="M 87.028438 187.38 
L 100.888438 187.38 
L 100.888438 201.24 
L 87.028438 201.24 
L 87.028438 187.38 
" clip-path="url(#pd74ef531b0)" style="fill: #3f007d"/>
    <path d="M 100.888438 187.38 
L 114.748438 187.38 
L 114.748438 201.24 
L 100.888438 201.24 
L 100.888438 187.38 
" clip-path="url(#pd74ef531b0)" style="fill: #fcfbfd"/>
    <path d="M 114.748438 187.38 
L 128.608438 187.38 
L 128.608438 201.24 
L 114.748438 201.24 
L 114.748438 187.38 
" clip-path="url(#pd74ef531b0)" style="fill: #fcfbfd"/>
    <path d="M 128.608438 187.38 
L 142.468438 187.38 
L 142.468438 201.24 
L 128.608438 201.24 
L 128.608438 187.38 
" clip-path="url(#pd74ef531b0)" style="fill: #fcfbfd"/>
    <path d="M 142.468438 187.38 
L 156.328438 187.38 
L 156.328438 201.24 
L 142.468438 201.24 
L 142.468438 187.38 
" clip-path="url(#pd74ef531b0)" style="fill: #fcfbfd"/>
    <path d="M 156.328438 187.38 
L 170.188438 187.38 
L 170.188438 201.24 
L 156.328438 201.24 
L 156.328438 187.38 
" clip-path="url(#pd74ef531b0)" style="fill: #fcfbfd"/>
    <path d="M 170.188438 187.38 
L 184.048438 187.38 
L 184.048438 201.24 
L 170.188438 201.24 
L 170.188438 187.38 
" clip-path="url(#pd74ef531b0)" style="fill: #fcfbfd"/>
    <path d="M 184.048438 187.38 
L 197.908438 187.38 
L 197.908438 201.24 
L 184.048438 201.24 
L 184.048438 187.38 
" clip-path="url(#pd74ef531b0)" style="fill: #fcfbfd"/>
    <path d="M 197.908438 187.38 
L 211.768438 187.38 
L 211.768438 201.24 
L 197.908438 201.24 
L 197.908438 187.38 
" clip-path="url(#pd74ef531b0)" style="fill: #fcfbfd"/>
    <path d="M 45.448438 201.24 
L 59.308438 201.24 
L 59.308438 215.1 
L 45.448438 215.1 
L 45.448438 201.24 
" clip-path="url(#pd74ef531b0)" style="fill: #fcfbfd"/>
    <path d="M 59.308438 201.24 
L 73.168438 201.24 
L 73.168438 215.1 
L 59.308438 215.1 
L 59.308438 201.24 
" clip-path="url(#pd74ef531b0)" style="fill: #fcfbfd"/>
    <path d="M 73.168438 201.24 
L 87.028438 201.24 
L 87.028438 215.1 
L 73.168438 215.1 
L 73.168438 201.24 
" clip-path="url(#pd74ef531b0)" style="fill: #fcfbfd"/>
    <path d="M 87.028438 201.24 
L 100.888438 201.24 
L 100.888438 215.1 
L 87.028438 215.1 
L 87.028438 201.24 
" clip-path="url(#pd74ef531b0)" style="fill: #fcfbfd"/>
    <path d="M 100.888438 201.24 
L 114.748438 201.24 
L 114.748438 215.1 
L 100.888438 215.1 
L 100.888438 201.24 
" clip-path="url(#pd74ef531b0)" style="fill: #3f007d"/>
    <path d="M 114.748438 201.24 
L 128.608438 201.24 
L 128.608438 215.1 
L 114.748438 215.1 
L 114.748438 201.24 
" clip-path="url(#pd74ef531b0)" style="fill: #fcfbfd"/>
    <path d="M 128.608438 201.24 
L 142.468438 201.24 
L 142.468438 215.1 
L 128.608438 215.1 
L 128.608438 201.24 
" clip-path="url(#pd74ef531b0)" style="fill: #fcfbfd"/>
    <path d="M 142.468438 201.24 
L 156.328438 201.24 
L 156.328438 215.1 
L 142.468438 215.1 
L 142.468438 201.24 
" clip-path="url(#pd74ef531b0)" style="fill: #fcfbfd"/>
    <path d="M 156.328438 201.24 
L 170.188438 201.24 
L 170.188438 215.1 
L 156.328438 215.1 
L 156.328438 201.24 
" clip-path="url(#pd74ef531b0)" style="fill: #fcfbfd"/>
    <path d="M 170.188438 201.24 
L 184.048438 201.24 
L 184.048438 215.1 
L 170.188438 215.1 
L 170.188438 201.24 
" clip-path="url(#pd74ef531b0)" style="fill: #fcfbfd"/>
    <path d="M 184.048438 201.24 
L 197.908438 201.24 
L 197.908438 215.1 
L 184.048438 215.1 
L 184.048438 201.24 
" clip-path="url(#pd74ef531b0)" style="fill: #fcfbfd"/>
    <path d="M 197.908438 201.24 
L 211.768438 201.24 
L 211.768438 215.1 
L 197.908438 215.1 
L 197.908438 201.24 
" clip-path="url(#pd74ef531b0)" style="fill: #fcfbfd"/>
    <path d="M 45.448438 215.1 
L 59.308438 215.1 
L 59.308438 228.96 
L 45.448438 228.96 
L 45.448438 215.1 
" clip-path="url(#pd74ef531b0)" style="fill: #fcfbfd"/>
    <path d="M 59.308438 215.1 
L 73.168438 215.1 
L 73.168438 228.96 
L 59.308438 228.96 
L 59.308438 215.1 
" clip-path="url(#pd74ef531b0)" style="fill: #fcfbfd"/>
    <path d="M 73.168438 215.1 
L 87.028438 215.1 
L 87.028438 228.96 
L 73.168438 228.96 
L 73.168438 215.1 
" clip-path="url(#pd74ef531b0)" style="fill: #fcfbfd"/>
    <path d="M 87.028438 215.1 
L 100.888438 215.1 
L 100.888438 228.96 
L 87.028438 228.96 
L 87.028438 215.1 
" clip-path="url(#pd74ef531b0)" style="fill: #fcfbfd"/>
    <path d="M 100.888438 215.1 
L 114.748438 215.1 
L 114.748438 228.96 
L 100.888438 228.96 
L 100.888438 215.1 
" clip-path="url(#pd74ef531b0)" style="fill: #fcfbfd"/>
    <path d="M 114.748438 215.1 
L 128.608438 215.1 
L 128.608438 228.96 
L 114.748438 228.96 
L 114.748438 215.1 
" clip-path="url(#pd74ef531b0)" style="fill: #3f007d"/>
    <path d="M 128.608438 215.1 
L 142.468438 215.1 
L 142.468438 228.96 
L 128.608438 228.96 
L 128.608438 215.1 
" clip-path="url(#pd74ef531b0)" style="fill: #fcfbfd"/>
    <path d="M 142.468438 215.1 
L 156.328438 215.1 
L 156.328438 228.96 
L 142.468438 228.96 
L 142.468438 215.1 
" clip-path="url(#pd74ef531b0)" style="fill: #fcfbfd"/>
    <path d="M 156.328438 215.1 
L 170.188438 215.1 
L 170.188438 228.96 
L 156.328438 228.96 
L 156.328438 215.1 
" clip-path="url(#pd74ef531b0)" style="fill: #fcfbfd"/>
    <path d="M 170.188438 215.1 
L 184.048438 215.1 
L 184.048438 228.96 
L 170.188438 228.96 
L 170.188438 215.1 
" clip-path="url(#pd74ef531b0)" style="fill: #fcfbfd"/>
    <path d="M 184.048438 215.1 
L 197.908438 215.1 
L 197.908438 228.96 
L 184.048438 228.96 
L 184.048438 215.1 
" clip-path="url(#pd74ef531b0)" style="fill: #fcfbfd"/>
    <path d="M 197.908438 215.1 
L 211.768438 215.1 
L 211.768438 228.96 
L 197.908438 228.96 
L 197.908438 215.1 
" clip-path="url(#pd74ef531b0)" style="fill: #fcfbfd"/>
    <path d="M 45.448438 228.96 
L 59.308438 228.96 
L 59.308438 242.82 
L 45.448438 242.82 
L 45.448438 228.96 
" clip-path="url(#pd74ef531b0)" style="fill: #fcfbfd"/>
    <path d="M 59.308438 228.96 
L 73.168438 228.96 
L 73.168438 242.82 
L 59.308438 242.82 
L 59.308438 228.96 
" clip-path="url(#pd74ef531b0)" style="fill: #fcfbfd"/>
    <path d="M 73.168438 228.96 
L 87.028438 228.96 
L 87.028438 242.82 
L 73.168438 242.82 
L 73.168438 228.96 
" clip-path="url(#pd74ef531b0)" style="fill: #fcfbfd"/>
    <path d="M 87.028438 228.96 
L 100.888438 228.96 
L 100.888438 242.82 
L 87.028438 242.82 
L 87.028438 228.96 
" clip-path="url(#pd74ef531b0)" style="fill: #fcfbfd"/>
    <path d="M 100.888438 228.96 
L 114.748438 228.96 
L 114.748438 242.82 
L 100.888438 242.82 
L 100.888438 228.96 
" clip-path="url(#pd74ef531b0)" style="fill: #fcfbfd"/>
    <path d="M 114.748438 228.96 
L 128.608438 228.96 
L 128.608438 242.82 
L 114.748438 242.82 
L 114.748438 228.96 
" clip-path="url(#pd74ef531b0)" style="fill: #fcfbfd"/>
    <path d="M 128.608438 228.96 
L 142.468438 228.96 
L 142.468438 242.82 
L 128.608438 242.82 
L 128.608438 228.96 
" clip-path="url(#pd74ef531b0)" style="fill: #52238d"/>
    <path d="M 142.468438 228.96 
L 156.328438 228.96 
L 156.328438 242.82 
L 142.468438 242.82 
L 142.468438 228.96 
" clip-path="url(#pd74ef531b0)" style="fill: #fcfbfd"/>
    <path d="M 156.328438 228.96 
L 170.188438 228.96 
L 170.188438 242.82 
L 156.328438 242.82 
L 156.328438 228.96 
" clip-path="url(#pd74ef531b0)" style="fill: #fcfbfd"/>
    <path d="M 170.188438 228.96 
L 184.048438 228.96 
L 184.048438 242.82 
L 170.188438 242.82 
L 170.188438 228.96 
" clip-path="url(#pd74ef531b0)" style="fill: #fcfbfd"/>
    <path d="M 184.048438 228.96 
L 197.908438 228.96 
L 197.908438 242.82 
L 184.048438 242.82 
L 184.048438 228.96 
" clip-path="url(#pd74ef531b0)" style="fill: #fcfbfd"/>
    <path d="M 197.908438 228.96 
L 211.768438 228.96 
L 211.768438 242.82 
L 197.908438 242.82 
L 197.908438 228.96 
" clip-path="url(#pd74ef531b0)" style="fill: #f0eef6"/>
    <path d="M 45.448438 242.82 
L 59.308438 242.82 
L 59.308438 256.68 
L 45.448438 256.68 
L 45.448438 242.82 
" clip-path="url(#pd74ef531b0)" style="fill: #fcfbfd"/>
    <path d="M 59.308438 242.82 
L 73.168438 242.82 
L 73.168438 256.68 
L 59.308438 256.68 
L 59.308438 242.82 
" clip-path="url(#pd74ef531b0)" style="fill: #fcfbfd"/>
    <path d="M 73.168438 242.82 
L 87.028438 242.82 
L 87.028438 256.68 
L 73.168438 256.68 
L 73.168438 242.82 
" clip-path="url(#pd74ef531b0)" style="fill: #fcfbfd"/>
    <path d="M 87.028438 242.82 
L 100.888438 242.82 
L 100.888438 256.68 
L 87.028438 256.68 
L 87.028438 242.82 
" clip-path="url(#pd74ef531b0)" style="fill: #fcfbfd"/>
    <path d="M 100.888438 242.82 
L 114.748438 242.82 
L 114.748438 256.68 
L 100.888438 256.68 
L 100.888438 242.82 
" clip-path="url(#pd74ef531b0)" style="fill: #fcfbfd"/>
    <path d="M 114.748438 242.82 
L 128.608438 242.82 
L 128.608438 256.68 
L 114.748438 256.68 
L 114.748438 242.82 
" clip-path="url(#pd74ef531b0)" style="fill: #fcfbfd"/>
    <path d="M 128.608438 242.82 
L 142.468438 242.82 
L 142.468438 256.68 
L 128.608438 256.68 
L 128.608438 242.82 
" clip-path="url(#pd74ef531b0)" style="fill: #fcfbfd"/>
    <path d="M 142.468438 242.82 
L 156.328438 242.82 
L 156.328438 256.68 
L 142.468438 256.68 
L 142.468438 242.82 
" clip-path="url(#pd74ef531b0)" style="fill: #3f007d"/>
    <path d="M 156.328438 242.82 
L 170.188438 242.82 
L 170.188438 256.68 
L 156.328438 256.68 
L 156.328438 242.82 
" clip-path="url(#pd74ef531b0)" style="fill: #fcfbfd"/>
    <path d="M 170.188438 242.82 
L 184.048438 242.82 
L 184.048438 256.68 
L 170.188438 256.68 
L 170.188438 242.82 
" clip-path="url(#pd74ef531b0)" style="fill: #fcfbfd"/>
    <path d="M 184.048438 242.82 
L 197.908438 242.82 
L 197.908438 256.68 
L 184.048438 256.68 
L 184.048438 242.82 
" clip-path="url(#pd74ef531b0)" style="fill: #fcfbfd"/>
    <path d="M 197.908438 242.82 
L 211.768438 242.82 
L 211.768438 256.68 
L 197.908438 256.68 
L 197.908438 242.82 
" clip-path="url(#pd74ef531b0)" style="fill: #fcfbfd"/>
    <path d="M 45.448438 256.68 
L 59.308438 256.68 
L 59.308438 270.54 
L 45.448438 270.54 
L 45.448438 256.68 
" clip-path="url(#pd74ef531b0)" style="fill: #d7d7e9"/>
    <path d="M 59.308438 256.68 
L 73.168438 256.68 
L 73.168438 270.54 
L 59.308438 270.54 
L 59.308438 256.68 
" clip-path="url(#pd74ef531b0)" style="fill: #fcfbfd"/>
    <path d="M 73.168438 256.68 
L 87.028438 256.68 
L 87.028438 270.54 
L 73.168438 270.54 
L 73.168438 256.68 
" clip-path="url(#pd74ef531b0)" style="fill: #fcfbfd"/>
    <path d="M 87.028438 256.68 
L 100.888438 256.68 
L 100.888438 270.54 
L 87.028438 270.54 
L 87.028438 256.68 
" clip-path="url(#pd74ef531b0)" style="fill: #fcfbfd"/>
    <path d="M 100.888438 256.68 
L 114.748438 256.68 
L 114.748438 270.54 
L 100.888438 270.54 
L 100.888438 256.68 
" clip-path="url(#pd74ef531b0)" style="fill: #fcfbfd"/>
    <path d="M 114.748438 256.68 
L 128.608438 256.68 
L 128.608438 270.54 
L 114.748438 270.54 
L 114.748438 256.68 
" clip-path="url(#pd74ef531b0)" style="fill: #fcfbfd"/>
    <path d="M 128.608438 256.68 
L 142.468438 256.68 
L 142.468438 270.54 
L 128.608438 270.54 
L 128.608438 256.68 
" clip-path="url(#pd74ef531b0)" style="fill: #fcfbfd"/>
    <path d="M 142.468438 256.68 
L 156.328438 256.68 
L 156.328438 270.54 
L 142.468438 270.54 
L 142.468438 256.68 
" clip-path="url(#pd74ef531b0)" style="fill: #fcfbfd"/>
    <path d="M 156.328438 256.68 
L 170.188438 256.68 
L 170.188438 270.54 
L 156.328438 270.54 
L 156.328438 256.68 
" clip-path="url(#pd74ef531b0)" style="fill: #6c55a5"/>
    <path d="M 170.188438 256.68 
L 184.048438 256.68 
L 184.048438 270.54 
L 170.188438 270.54 
L 170.188438 256.68 
" clip-path="url(#pd74ef531b0)" style="fill: #fcfbfd"/>
    <path d="M 184.048438 256.68 
L 197.908438 256.68 
L 197.908438 270.54 
L 184.048438 270.54 
L 184.048438 256.68 
" clip-path="url(#pd74ef531b0)" style="fill: #fcfbfd"/>
    <path d="M 197.908438 256.68 
L 211.768438 256.68 
L 211.768438 270.54 
L 197.908438 270.54 
L 197.908438 256.68 
" clip-path="url(#pd74ef531b0)" style="fill: #fcfbfd"/>
    <path d="M 45.448438 270.54 
L 59.308438 270.54 
L 59.308438 284.4 
L 45.448438 284.4 
L 45.448438 270.54 
" clip-path="url(#pd74ef531b0)" style="fill: #fcfbfd"/>
    <path d="M 59.308438 270.54 
L 73.168438 270.54 
L 73.168438 284.4 
L 59.308438 284.4 
L 59.308438 270.54 
" clip-path="url(#pd74ef531b0)" style="fill: #fcfbfd"/>
    <path d="M 73.168438 270.54 
L 87.028438 270.54 
L 87.028438 284.4 
L 73.168438 284.4 
L 73.168438 270.54 
" clip-path="url(#pd74ef531b0)" style="fill: #fcfbfd"/>
    <path d="M 87.028438 270.54 
L 100.888438 270.54 
L 100.888438 284.4 
L 87.028438 284.4 
L 87.028438 270.54 
" clip-path="url(#pd74ef531b0)" style="fill: #fcfbfd"/>
    <path d="M 100.888438 270.54 
L 114.748438 270.54 
L 114.748438 284.4 
L 100.888438 284.4 
L 100.888438 270.54 
" clip-path="url(#pd74ef531b0)" style="fill: #fcfbfd"/>
    <path d="M 114.748438 270.54 
L 128.608438 270.54 
L 128.608438 284.4 
L 114.748438 284.4 
L 114.748438 270.54 
" clip-path="url(#pd74ef531b0)" style="fill: #fcfbfd"/>
    <path d="M 128.608438 270.54 
L 142.468438 270.54 
L 142.468438 284.4 
L 128.608438 284.4 
L 128.608438 270.54 
" clip-path="url(#pd74ef531b0)" style="fill: #fcfbfd"/>
    <path d="M 142.468438 270.54 
L 156.328438 270.54 
L 156.328438 284.4 
L 142.468438 284.4 
L 142.468438 270.54 
" clip-path="url(#pd74ef531b0)" style="fill: #fcfbfd"/>
    <path d="M 156.328438 270.54 
L 170.188438 270.54 
L 170.188438 284.4 
L 156.328438 284.4 
L 156.328438 270.54 
" clip-path="url(#pd74ef531b0)" style="fill: #fcfbfd"/>
    <path d="M 170.188438 270.54 
L 184.048438 270.54 
L 184.048438 284.4 
L 170.188438 284.4 
L 170.188438 270.54 
" clip-path="url(#pd74ef531b0)" style="fill: #3f007d"/>
    <path d="M 184.048438 270.54 
L 197.908438 270.54 
L 197.908438 284.4 
L 184.048438 284.4 
L 184.048438 270.54 
" clip-path="url(#pd74ef531b0)" style="fill: #fcfbfd"/>
    <path d="M 197.908438 270.54 
L 211.768438 270.54 
L 211.768438 284.4 
L 197.908438 284.4 
L 197.908438 270.54 
" clip-path="url(#pd74ef531b0)" style="fill: #fcfbfd"/>
    <path d="M 45.448438 284.4 
L 59.308438 284.4 
L 59.308438 298.26 
L 45.448438 298.26 
L 45.448438 284.4 
" clip-path="url(#pd74ef531b0)" style="fill: #fcfbfd"/>
    <path d="M 59.308438 284.4 
L 73.168438 284.4 
L 73.168438 298.26 
L 59.308438 298.26 
L 59.308438 284.4 
" clip-path="url(#pd74ef531b0)" style="fill: #fcfbfd"/>
    <path d="M 73.168438 284.4 
L 87.028438 284.4 
L 87.028438 298.26 
L 73.168438 298.26 
L 73.168438 284.4 
" clip-path="url(#pd74ef531b0)" style="fill: #fcfbfd"/>
    <path d="M 87.028438 284.4 
L 100.888438 284.4 
L 100.888438 298.26 
L 87.028438 298.26 
L 87.028438 284.4 
" clip-path="url(#pd74ef531b0)" style="fill: #fcfbfd"/>
    <path d="M 100.888438 284.4 
L 114.748438 284.4 
L 114.748438 298.26 
L 100.888438 298.26 
L 100.888438 284.4 
" clip-path="url(#pd74ef531b0)" style="fill: #fcfbfd"/>
    <path d="M 114.748438 284.4 
L 128.608438 284.4 
L 128.608438 298.26 
L 114.748438 298.26 
L 114.748438 284.4 
" clip-path="url(#pd74ef531b0)" style="fill: #fcfbfd"/>
    <path d="M 128.608438 284.4 
L 142.468438 284.4 
L 142.468438 298.26 
L 128.608438 298.26 
L 128.608438 284.4 
" clip-path="url(#pd74ef531b0)" style="fill: #fcfbfd"/>
    <path d="M 142.468438 284.4 
L 156.328438 284.4 
L 156.328438 298.26 
L 142.468438 298.26 
L 142.468438 284.4 
" clip-path="url(#pd74ef531b0)" style="fill: #fcfbfd"/>
    <path d="M 156.328438 284.4 
L 170.188438 284.4 
L 170.188438 298.26 
L 156.328438 298.26 
L 156.328438 284.4 
" clip-path="url(#pd74ef531b0)" style="fill: #fcfbfd"/>
    <path d="M 170.188438 284.4 
L 184.048438 284.4 
L 184.048438 298.26 
L 170.188438 298.26 
L 170.188438 284.4 
" clip-path="url(#pd74ef531b0)" style="fill: #3f007d"/>
    <path d="M 184.048438 284.4 
L 197.908438 284.4 
L 197.908438 298.26 
L 184.048438 298.26 
L 184.048438 284.4 
" clip-path="url(#pd74ef531b0)" style="fill: #fcfbfd"/>
    <path d="M 197.908438 284.4 
L 211.768438 284.4 
L 211.768438 298.26 
L 197.908438 298.26 
L 197.908438 284.4 
" clip-path="url(#pd74ef531b0)" style="fill: #fcfbfd"/>
    <path d="M 45.448438 298.26 
L 59.308438 298.26 
L 59.308438 312.12 
L 45.448438 312.12 
L 45.448438 298.26 
" clip-path="url(#pd74ef531b0)" style="fill: #fcfbfd"/>
    <path d="M 59.308438 298.26 
L 73.168438 298.26 
L 73.168438 312.12 
L 59.308438 312.12 
L 59.308438 298.26 
" clip-path="url(#pd74ef531b0)" style="fill: #fcfbfd"/>
    <path d="M 73.168438 298.26 
L 87.028438 298.26 
L 87.028438 312.12 
L 73.168438 312.12 
L 73.168438 298.26 
" clip-path="url(#pd74ef531b0)" style="fill: #fcfbfd"/>
    <path d="M 87.028438 298.26 
L 100.888438 298.26 
L 100.888438 312.12 
L 87.028438 312.12 
L 87.028438 298.26 
" clip-path="url(#pd74ef531b0)" style="fill: #fcfbfd"/>
    <path d="M 100.888438 298.26 
L 114.748438 298.26 
L 114.748438 312.12 
L 100.888438 312.12 
L 100.888438 298.26 
" clip-path="url(#pd74ef531b0)" style="fill: #fcfbfd"/>
    <path d="M 114.748438 298.26 
L 128.608438 298.26 
L 128.608438 312.12 
L 114.748438 312.12 
L 114.748438 298.26 
" clip-path="url(#pd74ef531b0)" style="fill: #fcfbfd"/>
    <path d="M 128.608438 298.26 
L 142.468438 298.26 
L 142.468438 312.12 
L 128.608438 312.12 
L 128.608438 298.26 
" clip-path="url(#pd74ef531b0)" style="fill: #fcfbfd"/>
    <path d="M 142.468438 298.26 
L 156.328438 298.26 
L 156.328438 312.12 
L 142.468438 312.12 
L 142.468438 298.26 
" clip-path="url(#pd74ef531b0)" style="fill: #fcfbfd"/>
    <path d="M 156.328438 298.26 
L 170.188438 298.26 
L 170.188438 312.12 
L 156.328438 312.12 
L 156.328438 298.26 
" clip-path="url(#pd74ef531b0)" style="fill: #fcfbfd"/>
    <path d="M 170.188438 298.26 
L 184.048438 298.26 
L 184.048438 312.12 
L 170.188438 312.12 
L 170.188438 298.26 
" clip-path="url(#pd74ef531b0)" style="fill: #fcfbfd"/>
    <path d="M 184.048438 298.26 
L 197.908438 298.26 
L 197.908438 312.12 
L 184.048438 312.12 
L 184.048438 298.26 
" clip-path="url(#pd74ef531b0)" style="fill: #3f007d"/>
    <path d="M 197.908438 298.26 
L 211.768438 298.26 
L 211.768438 312.12 
L 197.908438 312.12 
L 197.908438 298.26 
" clip-path="url(#pd74ef531b0)" style="fill: #fcfbfd"/>
    <path d="M 45.448438 312.12 
L 59.308438 312.12 
L 59.308438 325.98 
L 45.448438 325.98 
L 45.448438 312.12 
" clip-path="url(#pd74ef531b0)" style="fill: #fcfbfd"/>
    <path d="M 59.308438 312.12 
L 73.168438 312.12 
L 73.168438 325.98 
L 59.308438 325.98 
L 59.308438 312.12 
" clip-path="url(#pd74ef531b0)" style="fill: #fcfbfd"/>
    <path d="M 73.168438 312.12 
L 87.028438 312.12 
L 87.028438 325.98 
L 73.168438 325.98 
L 73.168438 312.12 
" clip-path="url(#pd74ef531b0)" style="fill: #fcfbfd"/>
    <path d="M 87.028438 312.12 
L 100.888438 312.12 
L 100.888438 325.98 
L 87.028438 325.98 
L 87.028438 312.12 
" clip-path="url(#pd74ef531b0)" style="fill: #fcfbfd"/>
    <path d="M 100.888438 312.12 
L 114.748438 312.12 
L 114.748438 325.98 
L 100.888438 325.98 
L 100.888438 312.12 
" clip-path="url(#pd74ef531b0)" style="fill: #fcfbfd"/>
    <path d="M 114.748438 312.12 
L 128.608438 312.12 
L 128.608438 325.98 
L 114.748438 325.98 
L 114.748438 312.12 
" clip-path="url(#pd74ef531b0)" style="fill: #fcfbfd"/>
    <path d="M 128.608438 312.12 
L 142.468438 312.12 
L 142.468438 325.98 
L 128.608438 325.98 
L 128.608438 312.12 
" clip-path="url(#pd74ef531b0)" style="fill: #fcfbfd"/>
    <path d="M 142.468438 312.12 
L 156.328438 312.12 
L 156.328438 325.98 
L 142.468438 325.98 
L 142.468438 312.12 
" clip-path="url(#pd74ef531b0)" style="fill: #fcfbfd"/>
    <path d="M 156.328438 312.12 
L 170.188438 312.12 
L 170.188438 325.98 
L 156.328438 325.98 
L 156.328438 312.12 
" clip-path="url(#pd74ef531b0)" style="fill: #fcfbfd"/>
    <path d="M 170.188438 312.12 
L 184.048438 312.12 
L 184.048438 325.98 
L 170.188438 325.98 
L 170.188438 312.12 
" clip-path="url(#pd74ef531b0)" style="fill: #fcfbfd"/>
    <path d="M 184.048438 312.12 
L 197.908438 312.12 
L 197.908438 325.98 
L 184.048438 325.98 
L 184.048438 312.12 
" clip-path="url(#pd74ef531b0)" style="fill: #3f007d"/>
    <path d="M 197.908438 312.12 
L 211.768438 312.12 
L 211.768438 325.98 
L 197.908438 325.98 
L 197.908438 312.12 
" clip-path="url(#pd74ef531b0)" style="fill: #fcfbfd"/>
    <path d="M 45.448438 325.98 
L 59.308438 325.98 
L 59.308438 339.84 
L 45.448438 339.84 
L 45.448438 325.98 
" clip-path="url(#pd74ef531b0)" style="fill: #fcfbfd"/>
    <path d="M 59.308438 325.98 
L 73.168438 325.98 
L 73.168438 339.84 
L 59.308438 339.84 
L 59.308438 325.98 
" clip-path="url(#pd74ef531b0)" style="fill: #fcfbfd"/>
    <path d="M 73.168438 325.98 
L 87.028438 325.98 
L 87.028438 339.84 
L 73.168438 339.84 
L 73.168438 325.98 
" clip-path="url(#pd74ef531b0)" style="fill: #fcfbfd"/>
    <path d="M 87.028438 325.98 
L 100.888438 325.98 
L 100.888438 339.84 
L 87.028438 339.84 
L 87.028438 325.98 
" clip-path="url(#pd74ef531b0)" style="fill: #fcfbfd"/>
    <path d="M 100.888438 325.98 
L 114.748438 325.98 
L 114.748438 339.84 
L 100.888438 339.84 
L 100.888438 325.98 
" clip-path="url(#pd74ef531b0)" style="fill: #fcfbfd"/>
    <path d="M 114.748438 325.98 
L 128.608438 325.98 
L 128.608438 339.84 
L 114.748438 339.84 
L 114.748438 325.98 
" clip-path="url(#pd74ef531b0)" style="fill: #fcfbfd"/>
    <path d="M 128.608438 325.98 
L 142.468438 325.98 
L 142.468438 339.84 
L 128.608438 339.84 
L 128.608438 325.98 
" clip-path="url(#pd74ef531b0)" style="fill: #dadaeb"/>
    <path d="M 142.468438 325.98 
L 156.328438 325.98 
L 156.328438 339.84 
L 142.468438 339.84 
L 142.468438 325.98 
" clip-path="url(#pd74ef531b0)" style="fill: #fcfbfd"/>
    <path d="M 156.328438 325.98 
L 170.188438 325.98 
L 170.188438 339.84 
L 156.328438 339.84 
L 156.328438 325.98 
" clip-path="url(#pd74ef531b0)" style="fill: #fcfbfd"/>
    <path d="M 170.188438 325.98 
L 184.048438 325.98 
L 184.048438 339.84 
L 170.188438 339.84 
L 170.188438 325.98 
" clip-path="url(#pd74ef531b0)" style="fill: #fcfbfd"/>
    <path d="M 184.048438 325.98 
L 197.908438 325.98 
L 197.908438 339.84 
L 184.048438 339.84 
L 184.048438 325.98 
" clip-path="url(#pd74ef531b0)" style="fill: #fcfbfd"/>
    <path d="M 197.908438 325.98 
L 211.768438 325.98 
L 211.768438 339.84 
L 197.908438 339.84 
L 197.908438 325.98 
" clip-path="url(#pd74ef531b0)" style="fill: #6a51a3"/>
   </g>
   <g id="matplotlib.axis_1">
    <g id="xtick_1">
     <g id="line2d_1">
      <defs>
       <path id="m26c29afbbd" d="M 0 0 
L 0 3.5 
" style="stroke: #000000; stroke-width: 0.8"/>
      </defs>
      <g>
       <use xlink:href="#m26c29afbbd" x="52.378438" y="339.84" style="stroke: #000000; stroke-width: 0.8"/>
      </g>
     </g>
     <g id="text_1">
      <!-- 0 -->
      <g transform="translate(49.878438 353.78375)scale(0.1 -0.1)">
       <defs>
        <path id="TimesNewRomanPSMT-30" d="M 231 2094 
Q 231 2819 450 3342 
Q 669 3866 1031 4122 
Q 1313 4325 1613 4325 
Q 2100 4325 2488 3828 
Q 2972 3213 2972 2159 
Q 2972 1422 2759 906 
Q 2547 391 2217 158 
Q 1888 -75 1581 -75 
Q 975 -75 572 641 
Q 231 1244 231 2094 
z
M 844 2016 
Q 844 1141 1059 588 
Q 1238 122 1591 122 
Q 1759 122 1940 273 
Q 2122 425 2216 781 
Q 2359 1319 2359 2297 
Q 2359 3022 2209 3506 
Q 2097 3866 1919 4016 
Q 1791 4119 1609 4119 
Q 1397 4119 1231 3928 
Q 1006 3669 925 3112 
Q 844 2556 844 2016 
z
" transform="scale(0.015625)"/>
       </defs>
       <use xlink:href="#TimesNewRomanPSMT-30"/>
      </g>
     </g>
    </g>
    <g id="xtick_2">
     <g id="line2d_2">
      <g>
       <use xlink:href="#m26c29afbbd" x="66.238438" y="339.84" style="stroke: #000000; stroke-width: 0.8"/>
      </g>
     </g>
     <g id="text_2">
      <!-- 1 -->
      <g transform="translate(63.738438 353.78375)scale(0.1 -0.1)">
       <defs>
        <path id="TimesNewRomanPSMT-31" d="M 750 3822 
L 1781 4325 
L 1884 4325 
L 1884 747 
Q 1884 391 1914 303 
Q 1944 216 2037 169 
Q 2131 122 2419 116 
L 2419 0 
L 825 0 
L 825 116 
Q 1125 122 1212 167 
Q 1300 213 1334 289 
Q 1369 366 1369 747 
L 1369 3034 
Q 1369 3497 1338 3628 
Q 1316 3728 1258 3775 
Q 1200 3822 1119 3822 
Q 1003 3822 797 3725 
L 750 3822 
z
" transform="scale(0.015625)"/>
       </defs>
       <use xlink:href="#TimesNewRomanPSMT-31"/>
      </g>
     </g>
    </g>
    <g id="xtick_3">
     <g id="line2d_3">
      <g>
       <use xlink:href="#m26c29afbbd" x="80.098438" y="339.84" style="stroke: #000000; stroke-width: 0.8"/>
      </g>
     </g>
     <g id="text_3">
      <!-- 2 -->
      <g transform="translate(77.598438 353.78375)scale(0.1 -0.1)">
       <defs>
        <path id="TimesNewRomanPSMT-32" d="M 2934 816 
L 2638 0 
L 138 0 
L 138 116 
Q 1241 1122 1691 1759 
Q 2141 2397 2141 2925 
Q 2141 3328 1894 3587 
Q 1647 3847 1303 3847 
Q 991 3847 742 3664 
Q 494 3481 375 3128 
L 259 3128 
Q 338 3706 661 4015 
Q 984 4325 1469 4325 
Q 1984 4325 2329 3994 
Q 2675 3663 2675 3213 
Q 2675 2891 2525 2569 
Q 2294 2063 1775 1497 
Q 997 647 803 472 
L 1909 472 
Q 2247 472 2383 497 
Q 2519 522 2628 598 
Q 2738 675 2819 816 
L 2934 816 
z
" transform="scale(0.015625)"/>
       </defs>
       <use xlink:href="#TimesNewRomanPSMT-32"/>
      </g>
     </g>
    </g>
    <g id="xtick_4">
     <g id="line2d_4">
      <g>
       <use xlink:href="#m26c29afbbd" x="93.958438" y="339.84" style="stroke: #000000; stroke-width: 0.8"/>
      </g>
     </g>
     <g id="text_4">
      <!-- 3 -->
      <g transform="translate(91.458438 353.78375)scale(0.1 -0.1)">
       <defs>
        <path id="TimesNewRomanPSMT-33" d="M 325 3431 
Q 506 3859 782 4092 
Q 1059 4325 1472 4325 
Q 1981 4325 2253 3994 
Q 2459 3747 2459 3466 
Q 2459 3003 1878 2509 
Q 2269 2356 2469 2072 
Q 2669 1788 2669 1403 
Q 2669 853 2319 450 
Q 1863 -75 997 -75 
Q 569 -75 414 31 
Q 259 138 259 259 
Q 259 350 332 419 
Q 406 488 509 488 
Q 588 488 669 463 
Q 722 447 909 348 
Q 1097 250 1169 231 
Q 1284 197 1416 197 
Q 1734 197 1970 444 
Q 2206 691 2206 1028 
Q 2206 1275 2097 1509 
Q 2016 1684 1919 1775 
Q 1784 1900 1550 2001 
Q 1316 2103 1072 2103 
L 972 2103 
L 972 2197 
Q 1219 2228 1467 2375 
Q 1716 2522 1828 2728 
Q 1941 2934 1941 3181 
Q 1941 3503 1739 3701 
Q 1538 3900 1238 3900 
Q 753 3900 428 3381 
L 325 3431 
z
" transform="scale(0.015625)"/>
       </defs>
       <use xlink:href="#TimesNewRomanPSMT-33"/>
      </g>
     </g>
    </g>
    <g id="xtick_5">
     <g id="line2d_5">
      <g>
       <use xlink:href="#m26c29afbbd" x="107.818438" y="339.84" style="stroke: #000000; stroke-width: 0.8"/>
      </g>
     </g>
     <g id="text_5">
      <!-- 4 -->
      <g transform="translate(105.318438 353.78375)scale(0.1 -0.1)">
       <defs>
        <path id="TimesNewRomanPSMT-34" d="M 2978 1563 
L 2978 1119 
L 2409 1119 
L 2409 0 
L 1894 0 
L 1894 1119 
L 100 1119 
L 100 1519 
L 2066 4325 
L 2409 4325 
L 2409 1563 
L 2978 1563 
z
M 1894 1563 
L 1894 3666 
L 406 1563 
L 1894 1563 
z
" transform="scale(0.015625)"/>
       </defs>
       <use xlink:href="#TimesNewRomanPSMT-34"/>
      </g>
     </g>
    </g>
    <g id="xtick_6">
     <g id="line2d_6">
      <g>
       <use xlink:href="#m26c29afbbd" x="121.678438" y="339.84" style="stroke: #000000; stroke-width: 0.8"/>
      </g>
     </g>
     <g id="text_6">
      <!-- 5 -->
      <g transform="translate(119.178438 353.78375)scale(0.1 -0.1)">
       <defs>
        <path id="TimesNewRomanPSMT-35" d="M 2778 4238 
L 2534 3706 
L 1259 3706 
L 981 3138 
Q 1809 3016 2294 2522 
Q 2709 2097 2709 1522 
Q 2709 1188 2573 903 
Q 2438 619 2231 419 
Q 2025 219 1772 97 
Q 1413 -75 1034 -75 
Q 653 -75 479 54 
Q 306 184 306 341 
Q 306 428 378 495 
Q 450 563 559 563 
Q 641 563 702 538 
Q 763 513 909 409 
Q 1144 247 1384 247 
Q 1750 247 2026 523 
Q 2303 800 2303 1197 
Q 2303 1581 2056 1914 
Q 1809 2247 1375 2428 
Q 1034 2569 447 2591 
L 1259 4238 
L 2778 4238 
z
" transform="scale(0.015625)"/>
       </defs>
       <use xlink:href="#TimesNewRomanPSMT-35"/>
      </g>
     </g>
    </g>
    <g id="xtick_7">
     <g id="line2d_7">
      <g>
       <use xlink:href="#m26c29afbbd" x="135.538438" y="339.84" style="stroke: #000000; stroke-width: 0.8"/>
      </g>
     </g>
     <g id="text_7">
      <!-- 6 -->
      <g transform="translate(133.038438 353.78375)scale(0.1 -0.1)">
       <defs>
        <path id="TimesNewRomanPSMT-36" d="M 2869 4325 
L 2869 4209 
Q 2456 4169 2195 4045 
Q 1934 3922 1679 3669 
Q 1425 3416 1258 3105 
Q 1091 2794 978 2366 
Q 1428 2675 1881 2675 
Q 2316 2675 2634 2325 
Q 2953 1975 2953 1425 
Q 2953 894 2631 456 
Q 2244 -75 1606 -75 
Q 1172 -75 869 213 
Q 275 772 275 1663 
Q 275 2231 503 2743 
Q 731 3256 1154 3653 
Q 1578 4050 1965 4187 
Q 2353 4325 2688 4325 
L 2869 4325 
z
M 925 2138 
Q 869 1716 869 1456 
Q 869 1156 980 804 
Q 1091 453 1309 247 
Q 1469 100 1697 100 
Q 1969 100 2183 356 
Q 2397 613 2397 1088 
Q 2397 1622 2184 2012 
Q 1972 2403 1581 2403 
Q 1463 2403 1327 2353 
Q 1191 2303 925 2138 
z
" transform="scale(0.015625)"/>
       </defs>
       <use xlink:href="#TimesNewRomanPSMT-36"/>
      </g>
     </g>
    </g>
    <g id="xtick_8">
     <g id="line2d_8">
      <g>
       <use xlink:href="#m26c29afbbd" x="149.398438" y="339.84" style="stroke: #000000; stroke-width: 0.8"/>
      </g>
     </g>
     <g id="text_8">
      <!-- 7 -->
      <g transform="translate(146.898438 353.78375)scale(0.1 -0.1)">
       <defs>
        <path id="TimesNewRomanPSMT-37" d="M 644 4238 
L 2916 4238 
L 2916 4119 
L 1503 -88 
L 1153 -88 
L 2419 3728 
L 1253 3728 
Q 900 3728 750 3644 
Q 488 3500 328 3200 
L 238 3234 
L 644 4238 
z
" transform="scale(0.015625)"/>
       </defs>
       <use xlink:href="#TimesNewRomanPSMT-37"/>
      </g>
     </g>
    </g>
    <g id="xtick_9">
     <g id="line2d_9">
      <g>
       <use xlink:href="#m26c29afbbd" x="163.258438" y="339.84" style="stroke: #000000; stroke-width: 0.8"/>
      </g>
     </g>
     <g id="text_9">
      <!-- 8 -->
      <g transform="translate(160.758438 353.78375)scale(0.1 -0.1)">
       <defs>
        <path id="TimesNewRomanPSMT-38" d="M 1228 2134 
Q 725 2547 579 2797 
Q 434 3047 434 3316 
Q 434 3728 753 4026 
Q 1072 4325 1600 4325 
Q 2113 4325 2425 4047 
Q 2738 3769 2738 3413 
Q 2738 3175 2569 2928 
Q 2400 2681 1866 2347 
Q 2416 1922 2594 1678 
Q 2831 1359 2831 1006 
Q 2831 559 2490 242 
Q 2150 -75 1597 -75 
Q 994 -75 656 303 
Q 388 606 388 966 
Q 388 1247 577 1523 
Q 766 1800 1228 2134 
z
M 1719 2469 
Q 2094 2806 2194 3001 
Q 2294 3197 2294 3444 
Q 2294 3772 2109 3958 
Q 1925 4144 1606 4144 
Q 1288 4144 1088 3959 
Q 888 3775 888 3528 
Q 888 3366 970 3203 
Q 1053 3041 1206 2894 
L 1719 2469 
z
M 1375 2016 
Q 1116 1797 991 1539 
Q 866 1281 866 981 
Q 866 578 1086 336 
Q 1306 94 1647 94 
Q 1984 94 2187 284 
Q 2391 475 2391 747 
Q 2391 972 2272 1150 
Q 2050 1481 1375 2016 
z
" transform="scale(0.015625)"/>
       </defs>
       <use xlink:href="#TimesNewRomanPSMT-38"/>
      </g>
     </g>
    </g>
    <g id="xtick_10">
     <g id="line2d_10">
      <g>
       <use xlink:href="#m26c29afbbd" x="177.118438" y="339.84" style="stroke: #000000; stroke-width: 0.8"/>
      </g>
     </g>
     <g id="text_10">
      <!-- 9 -->
      <g transform="translate(174.618438 353.78375)scale(0.1 -0.1)">
       <defs>
        <path id="TimesNewRomanPSMT-39" d="M 338 -88 
L 338 28 
Q 744 34 1094 217 
Q 1444 400 1770 856 
Q 2097 1313 2225 1859 
Q 1734 1544 1338 1544 
Q 891 1544 572 1889 
Q 253 2234 253 2806 
Q 253 3363 572 3797 
Q 956 4325 1575 4325 
Q 2097 4325 2469 3894 
Q 2925 3359 2925 2575 
Q 2925 1869 2578 1258 
Q 2231 647 1613 244 
Q 1109 -88 516 -88 
L 338 -88 
z
M 2275 2091 
Q 2331 2497 2331 2741 
Q 2331 3044 2228 3395 
Q 2125 3747 1936 3934 
Q 1747 4122 1506 4122 
Q 1228 4122 1018 3872 
Q 809 3622 809 3128 
Q 809 2469 1088 2097 
Q 1291 1828 1588 1828 
Q 1731 1828 1928 1897 
Q 2125 1966 2275 2091 
z
" transform="scale(0.015625)"/>
       </defs>
       <use xlink:href="#TimesNewRomanPSMT-39"/>
      </g>
     </g>
    </g>
    <g id="xtick_11">
     <g id="line2d_11">
      <g>
       <use xlink:href="#m26c29afbbd" x="190.978438" y="339.84" style="stroke: #000000; stroke-width: 0.8"/>
      </g>
     </g>
     <g id="text_11">
      <!-- 10 -->
      <g transform="translate(185.978438 353.78375)scale(0.1 -0.1)">
       <use xlink:href="#TimesNewRomanPSMT-31"/>
       <use xlink:href="#TimesNewRomanPSMT-30" x="50"/>
      </g>
     </g>
    </g>
    <g id="xtick_12">
     <g id="line2d_12">
      <g>
       <use xlink:href="#m26c29afbbd" x="204.838438" y="339.84" style="stroke: #000000; stroke-width: 0.8"/>
      </g>
     </g>
     <g id="text_12">
      <!-- 11 -->
      <g transform="translate(200.025938 353.78375)scale(0.1 -0.1)">
       <use xlink:href="#TimesNewRomanPSMT-31"/>
       <use xlink:href="#TimesNewRomanPSMT-31" x="46.25"/>
      </g>
     </g>
    </g>
    <g id="text_13">
     <!-- Content Index -->
     <g transform="translate(71.674063 373.810313)scale(0.2 -0.2)">
      <defs>
       <path id="TimesNewRomanPSMT-43" d="M 3853 4334 
L 3950 2894 
L 3853 2894 
Q 3659 3541 3300 3825 
Q 2941 4109 2438 4109 
Q 2016 4109 1675 3895 
Q 1334 3681 1139 3212 
Q 944 2744 944 2047 
Q 944 1472 1128 1050 
Q 1313 628 1683 403 
Q 2053 178 2528 178 
Q 2941 178 3256 354 
Q 3572 531 3950 1056 
L 4047 994 
Q 3728 428 3303 165 
Q 2878 -97 2294 -97 
Q 1241 -97 663 684 
Q 231 1266 231 2053 
Q 231 2688 515 3219 
Q 800 3750 1298 4042 
Q 1797 4334 2388 4334 
Q 2847 4334 3294 4109 
Q 3425 4041 3481 4041 
Q 3566 4041 3628 4100 
Q 3709 4184 3744 4334 
L 3853 4334 
z
" transform="scale(0.015625)"/>
       <path id="TimesNewRomanPSMT-6f" d="M 1600 2947 
Q 2250 2947 2644 2453 
Q 2978 2031 2978 1484 
Q 2978 1100 2793 706 
Q 2609 313 2286 112 
Q 1963 -88 1566 -88 
Q 919 -88 538 428 
Q 216 863 216 1403 
Q 216 1797 411 2186 
Q 606 2575 925 2761 
Q 1244 2947 1600 2947 
z
M 1503 2744 
Q 1338 2744 1170 2645 
Q 1003 2547 900 2300 
Q 797 2053 797 1666 
Q 797 1041 1045 587 
Q 1294 134 1700 134 
Q 2003 134 2200 384 
Q 2397 634 2397 1244 
Q 2397 2006 2069 2444 
Q 1847 2744 1503 2744 
z
" transform="scale(0.015625)"/>
       <path id="TimesNewRomanPSMT-6e" d="M 1034 2341 
Q 1538 2947 1994 2947 
Q 2228 2947 2397 2830 
Q 2566 2713 2666 2444 
Q 2734 2256 2734 1869 
L 2734 647 
Q 2734 375 2778 278 
Q 2813 200 2889 156 
Q 2966 113 3172 113 
L 3172 0 
L 1756 0 
L 1756 113 
L 1816 113 
Q 2016 113 2095 173 
Q 2175 234 2206 353 
Q 2219 400 2219 647 
L 2219 1819 
Q 2219 2209 2117 2386 
Q 2016 2563 1775 2563 
Q 1403 2563 1034 2156 
L 1034 647 
Q 1034 356 1069 288 
Q 1113 197 1189 155 
Q 1266 113 1500 113 
L 1500 0 
L 84 0 
L 84 113 
L 147 113 
Q 366 113 442 223 
Q 519 334 519 647 
L 519 1709 
Q 519 2225 495 2337 
Q 472 2450 423 2490 
Q 375 2531 294 2531 
Q 206 2531 84 2484 
L 38 2597 
L 900 2947 
L 1034 2947 
L 1034 2341 
z
" transform="scale(0.015625)"/>
       <path id="TimesNewRomanPSMT-74" d="M 1031 3803 
L 1031 2863 
L 1700 2863 
L 1700 2644 
L 1031 2644 
L 1031 788 
Q 1031 509 1111 412 
Q 1191 316 1316 316 
Q 1419 316 1516 380 
Q 1613 444 1666 569 
L 1788 569 
Q 1678 263 1478 108 
Q 1278 -47 1066 -47 
Q 922 -47 784 33 
Q 647 113 581 261 
Q 516 409 516 719 
L 516 2644 
L 63 2644 
L 63 2747 
Q 234 2816 414 2980 
Q 594 3144 734 3369 
Q 806 3488 934 3803 
L 1031 3803 
z
" transform="scale(0.015625)"/>
       <path id="TimesNewRomanPSMT-65" d="M 681 1784 
Q 678 1147 991 784 
Q 1303 422 1725 422 
Q 2006 422 2214 576 
Q 2422 731 2563 1106 
L 2659 1044 
Q 2594 616 2278 264 
Q 1963 -88 1488 -88 
Q 972 -88 605 314 
Q 238 716 238 1394 
Q 238 2128 614 2539 
Q 991 2950 1559 2950 
Q 2041 2950 2350 2633 
Q 2659 2316 2659 1784 
L 681 1784 
z
M 681 1966 
L 2006 1966 
Q 1991 2241 1941 2353 
Q 1863 2528 1708 2628 
Q 1553 2728 1384 2728 
Q 1125 2728 920 2526 
Q 716 2325 681 1966 
z
" transform="scale(0.015625)"/>
       <path id="TimesNewRomanPSMT-20" transform="scale(0.015625)"/>
       <path id="TimesNewRomanPSMT-49" d="M 1975 116 
L 1975 0 
L 159 0 
L 159 116 
L 309 116 
Q 572 116 691 269 
Q 766 369 766 750 
L 766 3488 
Q 766 3809 725 3913 
Q 694 3991 597 4047 
Q 459 4122 309 4122 
L 159 4122 
L 159 4238 
L 1975 4238 
L 1975 4122 
L 1822 4122 
Q 1563 4122 1444 3969 
Q 1366 3869 1366 3488 
L 1366 750 
Q 1366 428 1406 325 
Q 1438 247 1538 191 
Q 1672 116 1822 116 
L 1975 116 
z
" transform="scale(0.015625)"/>
       <path id="TimesNewRomanPSMT-64" d="M 2222 322 
Q 2013 103 1813 7 
Q 1613 -88 1381 -88 
Q 913 -88 563 304 
Q 213 697 213 1313 
Q 213 1928 600 2439 
Q 988 2950 1597 2950 
Q 1975 2950 2222 2709 
L 2222 3238 
Q 2222 3728 2198 3840 
Q 2175 3953 2125 3993 
Q 2075 4034 2000 4034 
Q 1919 4034 1784 3984 
L 1744 4094 
L 2597 4444 
L 2738 4444 
L 2738 1134 
Q 2738 631 2761 520 
Q 2784 409 2836 365 
Q 2888 322 2956 322 
Q 3041 322 3181 375 
L 3216 266 
L 2366 -88 
L 2222 -88 
L 2222 322 
z
M 2222 541 
L 2222 2016 
Q 2203 2228 2109 2403 
Q 2016 2578 1861 2667 
Q 1706 2756 1559 2756 
Q 1284 2756 1069 2509 
Q 784 2184 784 1559 
Q 784 928 1059 592 
Q 1334 256 1672 256 
Q 1956 256 2222 541 
z
" transform="scale(0.015625)"/>
       <path id="TimesNewRomanPSMT-78" d="M 84 2863 
L 1431 2863 
L 1431 2747 
Q 1303 2747 1251 2703 
Q 1200 2659 1200 2588 
Q 1200 2513 1309 2356 
Q 1344 2306 1413 2200 
L 1616 1875 
L 1850 2200 
Q 2075 2509 2075 2591 
Q 2075 2656 2022 2701 
Q 1969 2747 1850 2747 
L 1850 2863 
L 2819 2863 
L 2819 2747 
Q 2666 2738 2553 2663 
Q 2400 2556 2134 2200 
L 1744 1678 
L 2456 653 
Q 2719 275 2831 198 
Q 2944 122 3122 113 
L 3122 0 
L 1772 0 
L 1772 113 
Q 1913 113 1991 175 
Q 2050 219 2050 291 
Q 2050 363 1850 653 
L 1431 1266 
L 972 653 
Q 759 369 759 316 
Q 759 241 829 180 
Q 900 119 1041 113 
L 1041 0 
L 106 0 
L 106 113 
Q 219 128 303 191 
Q 422 281 703 653 
L 1303 1450 
L 759 2238 
Q 528 2575 401 2661 
Q 275 2747 84 2747 
L 84 2863 
z
" transform="scale(0.015625)"/>
      </defs>
      <use xlink:href="#TimesNewRomanPSMT-43"/>
      <use xlink:href="#TimesNewRomanPSMT-6f" x="66.699219"/>
      <use xlink:href="#TimesNewRomanPSMT-6e" x="116.699219"/>
      <use xlink:href="#TimesNewRomanPSMT-74" x="166.699219"/>
      <use xlink:href="#TimesNewRomanPSMT-65" x="194.482422"/>
      <use xlink:href="#TimesNewRomanPSMT-6e" x="238.867188"/>
      <use xlink:href="#TimesNewRomanPSMT-74" x="288.867188"/>
      <use xlink:href="#TimesNewRomanPSMT-20" x="316.650391"/>
      <use xlink:href="#TimesNewRomanPSMT-49" x="341.650391"/>
      <use xlink:href="#TimesNewRomanPSMT-6e" x="374.951172"/>
      <use xlink:href="#TimesNewRomanPSMT-64" x="424.951172"/>
      <use xlink:href="#TimesNewRomanPSMT-65" x="474.951172"/>
      <use xlink:href="#TimesNewRomanPSMT-78" x="519.335938"/>
     </g>
    </g>
   </g>
   <g id="matplotlib.axis_2">
    <g id="ytick_1">
     <g id="line2d_13">
      <defs>
       <path id="m512b5c3bca" d="M 0 0 
L -3.5 0 
" style="stroke: #000000; stroke-width: 0.8"/>
      </defs>
      <g>
       <use xlink:href="#m512b5c3bca" x="45.448438" y="14.13" style="stroke: #000000; stroke-width: 0.8"/>
      </g>
     </g>
     <g id="text_14">
      <!-- 0 -->
      <g transform="translate(36.309375 16.63)rotate(-90)scale(0.1 -0.1)">
       <use xlink:href="#TimesNewRomanPSMT-30"/>
      </g>
     </g>
    </g>
    <g id="ytick_2">
     <g id="line2d_14">
      <g>
       <use xlink:href="#m512b5c3bca" x="45.448438" y="27.99" style="stroke: #000000; stroke-width: 0.8"/>
      </g>
     </g>
     <g id="text_15">
      <!-- 1 -->
      <g transform="translate(36.309375 30.49)rotate(-90)scale(0.1 -0.1)">
       <use xlink:href="#TimesNewRomanPSMT-31"/>
      </g>
     </g>
    </g>
    <g id="ytick_3">
     <g id="line2d_15">
      <g>
       <use xlink:href="#m512b5c3bca" x="45.448438" y="41.85" style="stroke: #000000; stroke-width: 0.8"/>
      </g>
     </g>
     <g id="text_16">
      <!-- 2 -->
      <g transform="translate(36.309375 44.35)rotate(-90)scale(0.1 -0.1)">
       <use xlink:href="#TimesNewRomanPSMT-32"/>
      </g>
     </g>
    </g>
    <g id="ytick_4">
     <g id="line2d_16">
      <g>
       <use xlink:href="#m512b5c3bca" x="45.448438" y="55.71" style="stroke: #000000; stroke-width: 0.8"/>
      </g>
     </g>
     <g id="text_17">
      <!-- 3 -->
      <g transform="translate(36.309375 58.21)rotate(-90)scale(0.1 -0.1)">
       <use xlink:href="#TimesNewRomanPSMT-33"/>
      </g>
     </g>
    </g>
    <g id="ytick_5">
     <g id="line2d_17">
      <g>
       <use xlink:href="#m512b5c3bca" x="45.448438" y="69.57" style="stroke: #000000; stroke-width: 0.8"/>
      </g>
     </g>
     <g id="text_18">
      <!-- 4 -->
      <g transform="translate(36.309375 72.07)rotate(-90)scale(0.1 -0.1)">
       <use xlink:href="#TimesNewRomanPSMT-34"/>
      </g>
     </g>
    </g>
    <g id="ytick_6">
     <g id="line2d_18">
      <g>
       <use xlink:href="#m512b5c3bca" x="45.448438" y="83.43" style="stroke: #000000; stroke-width: 0.8"/>
      </g>
     </g>
     <g id="text_19">
      <!-- 5 -->
      <g transform="translate(36.309375 85.93)rotate(-90)scale(0.1 -0.1)">
       <use xlink:href="#TimesNewRomanPSMT-35"/>
      </g>
     </g>
    </g>
    <g id="ytick_7">
     <g id="line2d_19">
      <g>
       <use xlink:href="#m512b5c3bca" x="45.448438" y="97.29" style="stroke: #000000; stroke-width: 0.8"/>
      </g>
     </g>
     <g id="text_20">
      <!-- 6 -->
      <g transform="translate(36.309375 99.79)rotate(-90)scale(0.1 -0.1)">
       <use xlink:href="#TimesNewRomanPSMT-36"/>
      </g>
     </g>
    </g>
    <g id="ytick_8">
     <g id="line2d_20">
      <g>
       <use xlink:href="#m512b5c3bca" x="45.448438" y="111.15" style="stroke: #000000; stroke-width: 0.8"/>
      </g>
     </g>
     <g id="text_21">
      <!-- 7 -->
      <g transform="translate(36.309375 113.65)rotate(-90)scale(0.1 -0.1)">
       <use xlink:href="#TimesNewRomanPSMT-37"/>
      </g>
     </g>
    </g>
    <g id="ytick_9">
     <g id="line2d_21">
      <g>
       <use xlink:href="#m512b5c3bca" x="45.448438" y="125.01" style="stroke: #000000; stroke-width: 0.8"/>
      </g>
     </g>
     <g id="text_22">
      <!-- 8 -->
      <g transform="translate(36.309375 127.51)rotate(-90)scale(0.1 -0.1)">
       <use xlink:href="#TimesNewRomanPSMT-38"/>
      </g>
     </g>
    </g>
    <g id="ytick_10">
     <g id="line2d_22">
      <g>
       <use xlink:href="#m512b5c3bca" x="45.448438" y="138.87" style="stroke: #000000; stroke-width: 0.8"/>
      </g>
     </g>
     <g id="text_23">
      <!-- 9 -->
      <g transform="translate(36.309375 141.37)rotate(-90)scale(0.1 -0.1)">
       <use xlink:href="#TimesNewRomanPSMT-39"/>
      </g>
     </g>
    </g>
    <g id="ytick_11">
     <g id="line2d_23">
      <g>
       <use xlink:href="#m512b5c3bca" x="45.448438" y="152.73" style="stroke: #000000; stroke-width: 0.8"/>
      </g>
     </g>
     <g id="text_24">
      <!-- 10 -->
      <g transform="translate(36.309375 157.73)rotate(-90)scale(0.1 -0.1)">
       <use xlink:href="#TimesNewRomanPSMT-31"/>
       <use xlink:href="#TimesNewRomanPSMT-30" x="50"/>
      </g>
     </g>
    </g>
    <g id="ytick_12">
     <g id="line2d_24">
      <g>
       <use xlink:href="#m512b5c3bca" x="45.448438" y="166.59" style="stroke: #000000; stroke-width: 0.8"/>
      </g>
     </g>
     <g id="text_25">
      <!-- 11 -->
      <g transform="translate(36.309375 171.4025)rotate(-90)scale(0.1 -0.1)">
       <use xlink:href="#TimesNewRomanPSMT-31"/>
       <use xlink:href="#TimesNewRomanPSMT-31" x="46.25"/>
      </g>
     </g>
    </g>
    <g id="ytick_13">
     <g id="line2d_25">
      <g>
       <use xlink:href="#m512b5c3bca" x="45.448438" y="180.45" style="stroke: #000000; stroke-width: 0.8"/>
      </g>
     </g>
     <g id="text_26">
      <!-- 12 -->
      <g transform="translate(36.309375 185.45)rotate(-90)scale(0.1 -0.1)">
       <use xlink:href="#TimesNewRomanPSMT-31"/>
       <use xlink:href="#TimesNewRomanPSMT-32" x="50"/>
      </g>
     </g>
    </g>
    <g id="ytick_14">
     <g id="line2d_26">
      <g>
       <use xlink:href="#m512b5c3bca" x="45.448438" y="194.31" style="stroke: #000000; stroke-width: 0.8"/>
      </g>
     </g>
     <g id="text_27">
      <!-- 13 -->
      <g transform="translate(36.309375 199.31)rotate(-90)scale(0.1 -0.1)">
       <use xlink:href="#TimesNewRomanPSMT-31"/>
       <use xlink:href="#TimesNewRomanPSMT-33" x="50"/>
      </g>
     </g>
    </g>
    <g id="ytick_15">
     <g id="line2d_27">
      <g>
       <use xlink:href="#m512b5c3bca" x="45.448438" y="208.17" style="stroke: #000000; stroke-width: 0.8"/>
      </g>
     </g>
     <g id="text_28">
      <!-- 14 -->
      <g transform="translate(36.309375 213.17)rotate(-90)scale(0.1 -0.1)">
       <use xlink:href="#TimesNewRomanPSMT-31"/>
       <use xlink:href="#TimesNewRomanPSMT-34" x="50"/>
      </g>
     </g>
    </g>
    <g id="ytick_16">
     <g id="line2d_28">
      <g>
       <use xlink:href="#m512b5c3bca" x="45.448438" y="222.03" style="stroke: #000000; stroke-width: 0.8"/>
      </g>
     </g>
     <g id="text_29">
      <!-- 15 -->
      <g transform="translate(36.309375 227.03)rotate(-90)scale(0.1 -0.1)">
       <use xlink:href="#TimesNewRomanPSMT-31"/>
       <use xlink:href="#TimesNewRomanPSMT-35" x="50"/>
      </g>
     </g>
    </g>
    <g id="ytick_17">
     <g id="line2d_29">
      <g>
       <use xlink:href="#m512b5c3bca" x="45.448438" y="235.89" style="stroke: #000000; stroke-width: 0.8"/>
      </g>
     </g>
     <g id="text_30">
      <!-- 16 -->
      <g transform="translate(36.309375 240.89)rotate(-90)scale(0.1 -0.1)">
       <use xlink:href="#TimesNewRomanPSMT-31"/>
       <use xlink:href="#TimesNewRomanPSMT-36" x="50"/>
      </g>
     </g>
    </g>
    <g id="ytick_18">
     <g id="line2d_30">
      <g>
       <use xlink:href="#m512b5c3bca" x="45.448438" y="249.75" style="stroke: #000000; stroke-width: 0.8"/>
      </g>
     </g>
     <g id="text_31">
      <!-- 17 -->
      <g transform="translate(36.309375 254.75)rotate(-90)scale(0.1 -0.1)">
       <use xlink:href="#TimesNewRomanPSMT-31"/>
       <use xlink:href="#TimesNewRomanPSMT-37" x="50"/>
      </g>
     </g>
    </g>
    <g id="ytick_19">
     <g id="line2d_31">
      <g>
       <use xlink:href="#m512b5c3bca" x="45.448438" y="263.61" style="stroke: #000000; stroke-width: 0.8"/>
      </g>
     </g>
     <g id="text_32">
      <!-- 18 -->
      <g transform="translate(36.309375 268.61)rotate(-90)scale(0.1 -0.1)">
       <use xlink:href="#TimesNewRomanPSMT-31"/>
       <use xlink:href="#TimesNewRomanPSMT-38" x="50"/>
      </g>
     </g>
    </g>
    <g id="ytick_20">
     <g id="line2d_32">
      <g>
       <use xlink:href="#m512b5c3bca" x="45.448438" y="277.47" style="stroke: #000000; stroke-width: 0.8"/>
      </g>
     </g>
     <g id="text_33">
      <!-- 19 -->
      <g transform="translate(36.309375 282.47)rotate(-90)scale(0.1 -0.1)">
       <use xlink:href="#TimesNewRomanPSMT-31"/>
       <use xlink:href="#TimesNewRomanPSMT-39" x="50"/>
      </g>
     </g>
    </g>
    <g id="ytick_21">
     <g id="line2d_33">
      <g>
       <use xlink:href="#m512b5c3bca" x="45.448438" y="291.33" style="stroke: #000000; stroke-width: 0.8"/>
      </g>
     </g>
     <g id="text_34">
      <!-- 20 -->
      <g transform="translate(36.309375 296.33)rotate(-90)scale(0.1 -0.1)">
       <use xlink:href="#TimesNewRomanPSMT-32"/>
       <use xlink:href="#TimesNewRomanPSMT-30" x="50"/>
      </g>
     </g>
    </g>
    <g id="ytick_22">
     <g id="line2d_34">
      <g>
       <use xlink:href="#m512b5c3bca" x="45.448438" y="305.19" style="stroke: #000000; stroke-width: 0.8"/>
      </g>
     </g>
     <g id="text_35">
      <!-- 21 -->
      <g transform="translate(36.309375 310.19)rotate(-90)scale(0.1 -0.1)">
       <use xlink:href="#TimesNewRomanPSMT-32"/>
       <use xlink:href="#TimesNewRomanPSMT-31" x="50"/>
      </g>
     </g>
    </g>
    <g id="ytick_23">
     <g id="line2d_35">
      <g>
       <use xlink:href="#m512b5c3bca" x="45.448438" y="319.05" style="stroke: #000000; stroke-width: 0.8"/>
      </g>
     </g>
     <g id="text_36">
      <!-- 22 -->
      <g transform="translate(36.309375 324.05)rotate(-90)scale(0.1 -0.1)">
       <use xlink:href="#TimesNewRomanPSMT-32"/>
       <use xlink:href="#TimesNewRomanPSMT-32" x="50"/>
      </g>
     </g>
    </g>
    <g id="ytick_24">
     <g id="line2d_36">
      <g>
       <use xlink:href="#m512b5c3bca" x="45.448438" y="332.91" style="stroke: #000000; stroke-width: 0.8"/>
      </g>
     </g>
     <g id="text_37">
      <!-- 23 -->
      <g transform="translate(36.309375 337.91)rotate(-90)scale(0.1 -0.1)">
       <use xlink:href="#TimesNewRomanPSMT-32"/>
       <use xlink:href="#TimesNewRomanPSMT-33" x="50"/>
      </g>
     </g>
    </g>
    <g id="text_38">
     <!-- Codebook Index -->
     <g transform="translate(21.0875 239.898125)rotate(-90)scale(0.2 -0.2)">
      <defs>
       <path id="TimesNewRomanPSMT-62" d="M 984 2369 
Q 1400 2947 1881 2947 
Q 2322 2947 2650 2570 
Q 2978 2194 2978 1541 
Q 2978 778 2472 313 
Q 2038 -88 1503 -88 
Q 1253 -88 995 3 
Q 738 94 469 275 
L 469 3241 
Q 469 3728 445 3840 
Q 422 3953 372 3993 
Q 322 4034 247 4034 
Q 159 4034 28 3984 
L -16 4094 
L 844 4444 
L 984 4444 
L 984 2369 
z
M 984 2169 
L 984 456 
Q 1144 300 1314 220 
Q 1484 141 1663 141 
Q 1947 141 2192 453 
Q 2438 766 2438 1363 
Q 2438 1913 2192 2208 
Q 1947 2503 1634 2503 
Q 1469 2503 1303 2419 
Q 1178 2356 984 2169 
z
" transform="scale(0.015625)"/>
       <path id="TimesNewRomanPSMT-6b" d="M 1047 4444 
L 1047 1597 
L 1775 2259 
Q 2006 2472 2044 2528 
Q 2069 2566 2069 2603 
Q 2069 2666 2017 2711 
Q 1966 2756 1847 2763 
L 1847 2863 
L 3091 2863 
L 3091 2763 
Q 2834 2756 2664 2684 
Q 2494 2613 2291 2428 
L 1556 1750 
L 2291 822 
Q 2597 438 2703 334 
Q 2853 188 2966 144 
Q 3044 113 3238 113 
L 3238 0 
L 1847 0 
L 1847 113 
Q 1966 116 2008 148 
Q 2050 181 2050 241 
Q 2050 313 1925 472 
L 1047 1594 
L 1047 644 
Q 1047 366 1086 278 
Q 1125 191 1197 153 
Q 1269 116 1509 113 
L 1509 0 
L 53 0 
L 53 113 
Q 272 113 381 166 
Q 447 200 481 272 
Q 528 375 528 628 
L 528 3234 
Q 528 3731 506 3842 
Q 484 3953 434 3995 
Q 384 4038 303 4038 
Q 238 4038 106 3984 
L 53 4094 
L 903 4444 
L 1047 4444 
z
" transform="scale(0.015625)"/>
      </defs>
      <use xlink:href="#TimesNewRomanPSMT-43"/>
      <use xlink:href="#TimesNewRomanPSMT-6f" x="66.699219"/>
      <use xlink:href="#TimesNewRomanPSMT-64" x="116.699219"/>
      <use xlink:href="#TimesNewRomanPSMT-65" x="166.699219"/>
      <use xlink:href="#TimesNewRomanPSMT-62" x="211.083984"/>
      <use xlink:href="#TimesNewRomanPSMT-6f" x="261.083984"/>
      <use xlink:href="#TimesNewRomanPSMT-6f" x="311.083984"/>
      <use xlink:href="#TimesNewRomanPSMT-6b" x="361.083984"/>
      <use xlink:href="#TimesNewRomanPSMT-20" x="411.083984"/>
      <use xlink:href="#TimesNewRomanPSMT-49" x="436.083984"/>
      <use xlink:href="#TimesNewRomanPSMT-6e" x="469.384766"/>
      <use xlink:href="#TimesNewRomanPSMT-64" x="519.384766"/>
      <use xlink:href="#TimesNewRomanPSMT-65" x="569.384766"/>
      <use xlink:href="#TimesNewRomanPSMT-78" x="613.769531"/>
     </g>
    </g>
   </g>
  </g>
 </g>
 <defs>
  <clipPath id="pd74ef531b0">
   <rect x="45.448438" y="7.2" width="166.32" height="332.64"/>
  </clipPath>
 </defs>
</svg>
